<svg width="271" height="65" viewBox="0 0 271 65" fill="none" xmlns="http://www.w3.org/2000/svg">
<path d="M0.90767 5.5V4.27273C0.90767 3.91051 0.975852 3.52912 1.11222 3.12855C1.24858 2.72798 1.43821 2.34446 1.68111 1.97798C1.92401 1.61151 2.20952 1.29829 2.53764 1.03835L3.48366 1.71591C3.22372 2.09517 3.00213 2.49148 2.81889 2.90483C2.63565 3.31818 2.54403 3.76776 2.54403 4.25355V5.5H0.90767ZM4.16761 5.5V4.27273C4.16761 3.91051 4.2358 3.52912 4.37216 3.12855C4.50852 2.72798 4.69815 2.34446 4.94105 1.97798C5.18395 1.61151 5.46946 1.29829 5.79759 1.03835L6.74361 1.71591C6.48367 2.09517 6.26207 2.49148 6.07884 2.90483C5.8956 3.31818 5.80398 3.76776 5.80398 4.25355V5.5H4.16761ZM8.53977 14.5V1.40909H16.6577V3.10938H10.5149V7.09801H16.076V8.7919H10.5149V14.5H8.53977ZM18.9332 14.5V4.68182H20.8445V14.5H18.9332ZM19.8984 3.1669C19.5661 3.1669 19.2805 3.05611 19.0419 2.83452C18.8075 2.60866 18.6903 2.3402 18.6903 2.02912C18.6903 1.71378 18.8075 1.44531 19.0419 1.22372C19.2805 0.997869 19.5661 0.884943 19.8984 0.884943C20.2308 0.884943 20.5142 0.997869 20.7486 1.22372C20.9872 1.44531 21.1065 1.71378 21.1065 2.02912C21.1065 2.3402 20.9872 2.60866 20.7486 2.83452C20.5142 3.05611 20.2308 3.1669 19.8984 3.1669ZM23.4157 14.5V4.68182H25.263V6.24148H25.3652C25.5442 5.71307 25.8596 5.29758 26.3113 4.99503C26.7672 4.68821 27.2828 4.5348 27.8581 4.5348C27.9775 4.5348 28.1181 4.53906 28.28 4.54759C28.4462 4.55611 28.5762 4.56676 28.6699 4.57955V6.40767C28.5932 6.38636 28.4569 6.36293 28.2608 6.33736C28.0648 6.30753 27.8688 6.29261 27.6728 6.29261C27.2211 6.29261 26.8184 6.38849 26.4647 6.58026C26.1152 6.76776 25.8382 7.02983 25.6337 7.36648C25.4292 7.69886 25.3269 8.07812 25.3269 8.50426V14.5H23.4157ZM37.6811 7.07884L35.9489 7.38565C35.8764 7.16406 35.7614 6.95312 35.6037 6.75284C35.4503 6.55256 35.2415 6.38849 34.9773 6.26065C34.7131 6.13281 34.3828 6.06889 33.9865 6.06889C33.4453 6.06889 32.9936 6.19034 32.6314 6.43324C32.2692 6.67187 32.0881 6.98082 32.0881 7.36009C32.0881 7.68821 32.2095 7.95241 32.4524 8.1527C32.6953 8.35298 33.0874 8.51705 33.6286 8.64489L35.1882 9.00284C36.0916 9.21165 36.7649 9.53338 37.2081 9.96804C37.6513 10.4027 37.8729 10.9673 37.8729 11.6619C37.8729 12.25 37.7024 12.7741 37.3615 13.2344C37.0249 13.6903 36.554 14.0483 35.9489 14.3082C35.348 14.5682 34.6513 14.6982 33.8587 14.6982C32.7592 14.6982 31.8622 14.4638 31.1676 13.995C30.473 13.522 30.0469 12.8509 29.8892 11.9815L31.7365 11.7003C31.8516 12.1818 32.0881 12.5462 32.446 12.7933C32.804 13.0362 33.2706 13.1577 33.8459 13.1577C34.4723 13.1577 34.973 13.0277 35.348 12.7678C35.723 12.5036 35.9105 12.1818 35.9105 11.8026C35.9105 11.4957 35.7955 11.2379 35.5653 11.0291C35.3395 10.8203 34.9922 10.6626 34.5234 10.5561L32.8615 10.1918C31.9453 9.98295 31.2678 9.65057 30.8288 9.1946C30.3942 8.73864 30.1768 8.16122 30.1768 7.46236C30.1768 6.88281 30.3388 6.37571 30.6626 5.94105C30.9865 5.50639 31.4339 5.16761 32.005 4.92472C32.576 4.67756 33.2301 4.55398 33.9673 4.55398C35.0284 4.55398 35.8636 4.78409 36.473 5.24432C37.0824 5.70028 37.4851 6.31179 37.6811 7.07884ZM44.5574 4.68182V6.21591H39.1944V4.68182H44.5574ZM40.6326 2.32955H42.5439V11.6172C42.5439 11.9879 42.5993 12.267 42.71 12.4545C42.8208 12.6378 42.9636 12.7635 43.1383 12.8317C43.3173 12.8956 43.5112 12.9276 43.72 12.9276C43.8734 12.9276 44.0076 12.9169 44.1227 12.8956C44.2377 12.8743 44.3272 12.8572 44.3912 12.8445L44.7363 14.4233C44.6255 14.4659 44.4679 14.5085 44.2633 14.5511C44.0588 14.598 43.8031 14.6236 43.4963 14.6278C42.9934 14.6364 42.5247 14.5469 42.09 14.3594C41.6554 14.1719 41.3038 13.8821 41.0353 13.4901C40.7669 13.098 40.6326 12.6058 40.6326 12.0135V2.32955ZM51.5886 14.5V1.40909H53.5637V12.7997H59.4956V14.5H51.5886ZM61.5953 14.5V4.68182H63.5066V14.5H61.5953ZM62.5605 3.1669C62.2282 3.1669 61.9426 3.05611 61.704 2.83452C61.4696 2.60866 61.3525 2.3402 61.3525 2.02912C61.3525 1.71378 61.4696 1.44531 61.704 1.22372C61.9426 0.997869 62.2282 0.884943 62.5605 0.884943C62.8929 0.884943 63.1763 0.997869 63.4107 1.22372C63.6493 1.44531 63.7686 1.71378 63.7686 2.02912C63.7686 2.3402 63.6493 2.60866 63.4107 2.83452C63.1763 3.05611 62.8929 3.1669 62.5605 3.1669ZM70.1942 18.3864C69.4144 18.3864 68.7433 18.2841 68.1808 18.0795C67.6225 17.875 67.1665 17.6044 66.8129 17.2678C66.4592 16.9311 66.195 16.5625 66.0202 16.1619L67.663 15.4844C67.7781 15.6719 67.9315 15.87 68.1232 16.0788C68.3192 16.2919 68.5835 16.473 68.9158 16.6222C69.2525 16.7713 69.685 16.8459 70.2134 16.8459C70.9379 16.8459 71.5366 16.669 72.0096 16.3153C72.4826 15.9659 72.7191 15.4077 72.7191 14.6406V12.7102H72.5977C72.4826 12.919 72.3164 13.1513 72.0991 13.407C71.886 13.6626 71.592 13.8842 71.217 14.0717C70.842 14.2592 70.354 14.353 69.7532 14.353C68.9776 14.353 68.2788 14.1719 67.6566 13.8097C67.0387 13.4432 66.5487 12.9041 66.1864 12.1925C65.8285 11.4766 65.6495 10.5966 65.6495 9.55256C65.6495 8.50852 65.8263 7.61364 66.18 6.8679C66.538 6.12216 67.0281 5.55114 67.6502 5.15483C68.2724 4.75426 68.9776 4.55398 69.766 4.55398C70.3754 4.55398 70.8675 4.65625 71.2425 4.8608C71.6175 5.06108 71.9094 5.29545 72.1183 5.56392C72.3313 5.83239 72.4954 6.06889 72.6104 6.27344H72.7511V4.68182H74.6239V14.7173C74.6239 15.5611 74.4279 16.2536 74.0359 16.7947C73.6438 17.3359 73.1133 17.7365 72.4442 17.9964C71.7795 18.2564 71.0295 18.3864 70.1942 18.3864ZM70.1751 12.7678C70.7248 12.7678 71.1893 12.6399 71.5685 12.3842C71.9521 12.1243 72.2418 11.7536 72.4379 11.272C72.6381 10.7862 72.7383 10.2045 72.7383 9.52699C72.7383 8.86648 72.6403 8.2848 72.4442 7.78196C72.2482 7.27912 71.9606 6.88707 71.5813 6.60582C71.2021 6.32031 70.7333 6.17756 70.1751 6.17756C69.5998 6.17756 69.1204 6.3267 68.7369 6.625C68.3533 6.91903 68.0636 7.3196 67.8675 7.8267C67.6758 8.33381 67.5799 8.90057 67.5799 9.52699C67.5799 10.1705 67.6779 10.7351 67.8739 11.2209C68.07 11.7067 68.3597 12.0859 68.7433 12.3587C69.131 12.6314 69.6083 12.7678 70.1751 12.7678ZM79.0984 8.67045V14.5H77.1871V1.40909H79.0728V6.27983H79.1942C79.4244 5.75142 79.7759 5.33168 80.2489 5.0206C80.7219 4.70952 81.3398 4.55398 82.1026 4.55398C82.7759 4.55398 83.364 4.69247 83.8668 4.96946C84.3739 5.24645 84.766 5.6598 85.043 6.20952C85.3242 6.75497 85.4648 7.43679 85.4648 8.25497V14.5H83.5536V8.48509C83.5536 7.76491 83.3683 7.20668 82.9975 6.81037C82.6268 6.4098 82.1112 6.20952 81.4506 6.20952C80.9989 6.20952 80.5941 6.3054 80.2362 6.49716C79.8825 6.68892 79.6033 6.97017 79.3988 7.34091C79.1985 7.70739 79.0984 8.15057 79.0984 8.67045ZM92.5984 4.68182V6.21591H87.2354V4.68182H92.5984ZM88.6737 2.32955H90.5849V11.6172C90.5849 11.9879 90.6403 12.267 90.7511 12.4545C90.8619 12.6378 91.0046 12.7635 91.1793 12.8317C91.3583 12.8956 91.5522 12.9276 91.761 12.9276C91.9144 12.9276 92.0487 12.9169 92.1637 12.8956C92.2788 12.8743 92.3683 12.8572 92.4322 12.8445L92.7773 14.4233C92.6665 14.4659 92.5089 14.5085 92.3043 14.5511C92.0998 14.598 91.8441 14.6236 91.5373 14.6278C91.0344 14.6364 90.5657 14.5469 90.131 14.3594C89.6964 14.1719 89.3448 13.8821 89.0763 13.4901C88.8079 13.098 88.6737 12.6058 88.6737 12.0135V2.32955ZM95.9909 14.6214C95.6415 14.6214 95.3411 14.4979 95.0897 14.2507C94.8382 13.9993 94.7125 13.6967 94.7125 13.343C94.7125 12.9936 94.8382 12.6953 95.0897 12.4482C95.3411 12.1967 95.6415 12.071 95.9909 12.071C96.3404 12.071 96.6408 12.1967 96.8922 12.4482C97.1436 12.6953 97.2694 12.9936 97.2694 13.343C97.2694 13.5774 97.2097 13.7926 97.0904 13.9886C96.9753 14.1804 96.8219 14.3338 96.6301 14.4489C96.4384 14.5639 96.2253 14.6214 95.9909 14.6214ZM95.9909 7.47514C95.6415 7.47514 95.3411 7.34943 95.0897 7.09801C94.8382 6.84659 94.7125 6.54616 94.7125 6.19673C94.7125 5.8473 94.8382 5.54901 95.0897 5.30185C95.3411 5.05043 95.6415 4.92472 95.9909 4.92472C96.3404 4.92472 96.6408 5.05043 96.8922 5.30185C97.1436 5.54901 97.2694 5.8473 97.2694 6.19673C97.2694 6.43111 97.2097 6.64631 97.0904 6.84233C96.9753 7.03409 96.8219 7.1875 96.6301 7.30256C96.4384 7.41761 96.2253 7.47514 95.9909 7.47514ZM107.29 14.5L103.66 1.40909H105.737L108.288 11.5469H108.409L111.062 1.40909H113.12L115.773 11.5533H115.894L118.438 1.40909H120.522L116.885 14.5H114.897L112.142 4.6946H112.04L109.285 14.5H107.29ZM124.081 8.67045V14.5H122.17V1.40909H124.055V6.27983H124.177C124.407 5.75142 124.758 5.33168 125.231 5.0206C125.704 4.70952 126.322 4.55398 127.085 4.55398C127.758 4.55398 128.346 4.69247 128.849 4.96946C129.356 5.24645 129.748 5.6598 130.025 6.20952C130.307 6.75497 130.447 7.43679 130.447 8.25497V14.5H128.536V8.48509C128.536 7.76491 128.351 7.20668 127.98 6.81037C127.609 6.4098 127.094 6.20952 126.433 6.20952C125.981 6.20952 125.577 6.3054 125.219 6.49716C124.865 6.68892 124.586 6.97017 124.381 7.34091C124.181 7.70739 124.081 8.15057 124.081 8.67045ZM137.229 14.6982C136.262 14.6982 135.429 14.4915 134.73 14.0781C134.035 13.6605 133.498 13.0746 133.119 12.3203C132.744 11.5618 132.557 10.6733 132.557 9.65483C132.557 8.64915 132.744 7.76278 133.119 6.99574C133.498 6.22869 134.027 5.62997 134.704 5.19957C135.386 4.76918 136.183 4.55398 137.095 4.55398C137.649 4.55398 138.186 4.6456 138.706 4.82884C139.226 5.01207 139.692 5.29972 140.106 5.69176C140.519 6.08381 140.845 6.59304 141.084 7.21946C141.322 7.84162 141.442 8.59801 141.442 9.48864V10.1662H133.637V8.73438H139.569C139.569 8.23153 139.466 7.78622 139.262 7.39844C139.057 7.00639 138.77 6.69744 138.399 6.47159C138.032 6.24574 137.602 6.13281 137.108 6.13281C136.571 6.13281 136.102 6.26491 135.702 6.52912C135.305 6.78906 134.998 7.12997 134.781 7.55185C134.568 7.96946 134.461 8.4233 134.461 8.91335V10.032C134.461 10.6882 134.577 11.2464 134.807 11.7067C135.041 12.1669 135.367 12.5185 135.785 12.7614C136.202 13 136.69 13.1193 137.248 13.1193C137.611 13.1193 137.941 13.0682 138.239 12.9659C138.537 12.8594 138.795 12.7017 139.013 12.4929C139.23 12.2841 139.396 12.0263 139.511 11.7195L141.32 12.0455C141.175 12.5781 140.915 13.0447 140.54 13.4453C140.17 13.8416 139.703 14.1506 139.14 14.3722C138.582 14.5895 137.945 14.6982 137.229 14.6982ZM143.562 14.5V4.68182H145.409V6.24148H145.512C145.691 5.71307 146.006 5.29758 146.458 4.99503C146.914 4.68821 147.429 4.5348 148.005 4.5348C148.124 4.5348 148.265 4.53906 148.426 4.54759C148.593 4.55611 148.723 4.56676 148.816 4.57955V6.40767C148.74 6.38636 148.603 6.36293 148.407 6.33736C148.211 6.30753 148.015 6.29261 147.819 6.29261C147.368 6.29261 146.965 6.38849 146.611 6.58026C146.262 6.76776 145.985 7.02983 145.78 7.36648C145.576 7.69886 145.473 8.07812 145.473 8.50426V14.5H143.562ZM154.35 14.6982C153.383 14.6982 152.55 14.4915 151.851 14.0781C151.156 13.6605 150.619 13.0746 150.24 12.3203C149.865 11.5618 149.678 10.6733 149.678 9.65483C149.678 8.64915 149.865 7.76278 150.24 6.99574C150.619 6.22869 151.148 5.62997 151.825 5.19957C152.507 4.76918 153.304 4.55398 154.216 4.55398C154.77 4.55398 155.307 4.6456 155.827 4.82884C156.347 5.01207 156.813 5.29972 157.227 5.69176C157.64 6.08381 157.966 6.59304 158.205 7.21946C158.443 7.84162 158.563 8.59801 158.563 9.48864V10.1662H150.758V8.73438H156.69C156.69 8.23153 156.588 7.78622 156.383 7.39844C156.178 7.00639 155.891 6.69744 155.52 6.47159C155.154 6.24574 154.723 6.13281 154.229 6.13281C153.692 6.13281 153.223 6.26491 152.823 6.52912C152.426 6.78906 152.119 7.12997 151.902 7.55185C151.689 7.96946 151.583 8.4233 151.583 8.91335V10.032C151.583 10.6882 151.698 11.2464 151.928 11.7067C152.162 12.1669 152.488 12.5185 152.906 12.7614C153.323 13 153.811 13.1193 154.369 13.1193C154.732 13.1193 155.062 13.0682 155.36 12.9659C155.659 12.8594 155.916 12.7017 156.134 12.4929C156.351 12.2841 156.517 12.0263 156.632 11.7195L158.441 12.0455C158.296 12.5781 158.036 13.0447 157.661 13.4453C157.291 13.8416 156.824 14.1506 156.262 14.3722C155.703 14.5895 155.066 14.6982 154.35 14.6982ZM169.563 18.3864C168.784 18.3864 168.112 18.2841 167.55 18.0795C166.992 17.875 166.536 17.6044 166.182 17.2678C165.828 16.9311 165.564 16.5625 165.389 16.1619L167.032 15.4844C167.147 15.6719 167.301 15.87 167.492 16.0788C167.688 16.2919 167.953 16.473 168.285 16.6222C168.622 16.7713 169.054 16.8459 169.583 16.8459C170.307 16.8459 170.906 16.669 171.379 16.3153C171.852 15.9659 172.088 15.4077 172.088 14.6406V12.7102H171.967C171.852 12.919 171.686 13.1513 171.468 13.407C171.255 13.6626 170.961 13.8842 170.586 14.0717C170.211 14.2592 169.723 14.353 169.122 14.353C168.347 14.353 167.648 14.1719 167.026 13.8097C166.408 13.4432 165.918 12.9041 165.556 12.1925C165.198 11.4766 165.019 10.5966 165.019 9.55256C165.019 8.50852 165.195 7.61364 165.549 6.8679C165.907 6.12216 166.397 5.55114 167.019 5.15483C167.642 4.75426 168.347 4.55398 169.135 4.55398C169.744 4.55398 170.237 4.65625 170.612 4.8608C170.987 5.06108 171.279 5.29545 171.487 5.56392C171.7 5.83239 171.865 6.06889 171.98 6.27344H172.12V4.68182H173.993V14.7173C173.993 15.5611 173.797 16.2536 173.405 16.7947C173.013 17.3359 172.482 17.7365 171.813 17.9964C171.149 18.2564 170.399 18.3864 169.563 18.3864ZM169.544 12.7678C170.094 12.7678 170.558 12.6399 170.938 12.3842C171.321 12.1243 171.611 11.7536 171.807 11.272C172.007 10.7862 172.107 10.2045 172.107 9.52699C172.107 8.86648 172.009 8.2848 171.813 7.78196C171.617 7.27912 171.33 6.88707 170.95 6.60582C170.571 6.32031 170.102 6.17756 169.544 6.17756C168.969 6.17756 168.49 6.3267 168.106 6.625C167.722 6.91903 167.433 7.3196 167.237 7.8267C167.045 8.33381 166.949 8.90057 166.949 9.52699C166.949 10.1705 167.047 10.7351 167.243 11.2209C167.439 11.7067 167.729 12.0859 168.112 12.3587C168.5 12.6314 168.977 12.7678 169.544 12.7678ZM176.556 14.5V4.68182H178.404V6.24148H178.506C178.685 5.71307 179 5.29758 179.452 4.99503C179.908 4.68821 180.423 4.5348 180.999 4.5348C181.118 4.5348 181.259 4.53906 181.421 4.54759C181.587 4.55611 181.717 4.56676 181.811 4.57955V6.40767C181.734 6.38636 181.597 6.36293 181.401 6.33736C181.205 6.30753 181.009 6.29261 180.813 6.29261C180.362 6.29261 179.959 6.38849 179.605 6.58026C179.256 6.76776 178.979 7.02983 178.774 7.36648C178.57 7.69886 178.468 8.07812 178.468 8.50426V14.5H176.556ZM187.344 14.6982C186.377 14.6982 185.544 14.4915 184.845 14.0781C184.151 13.6605 183.614 13.0746 183.234 12.3203C182.859 11.5618 182.672 10.6733 182.672 9.65483C182.672 8.64915 182.859 7.76278 183.234 6.99574C183.614 6.22869 184.142 5.62997 184.82 5.19957C185.501 4.76918 186.298 4.55398 187.21 4.55398C187.764 4.55398 188.301 4.6456 188.821 4.82884C189.341 5.01207 189.808 5.29972 190.221 5.69176C190.634 6.08381 190.96 6.59304 191.199 7.21946C191.438 7.84162 191.557 8.59801 191.557 9.48864V10.1662H183.752V8.73438H189.684C189.684 8.23153 189.582 7.78622 189.377 7.39844C189.173 7.00639 188.885 6.69744 188.514 6.47159C188.148 6.24574 187.717 6.13281 187.223 6.13281C186.686 6.13281 186.217 6.26491 185.817 6.52912C185.42 6.78906 185.114 7.12997 184.896 7.55185C184.683 7.96946 184.577 8.4233 184.577 8.91335V10.032C184.577 10.6882 184.692 11.2464 184.922 11.7067C185.156 12.1669 185.482 12.5185 185.9 12.7614C186.317 13 186.805 13.1193 187.364 13.1193C187.726 13.1193 188.056 13.0682 188.354 12.9659C188.653 12.8594 188.911 12.7017 189.128 12.4929C189.345 12.2841 189.511 12.0263 189.626 11.7195L191.435 12.0455C191.29 12.5781 191.031 13.0447 190.656 13.4453C190.285 13.8416 189.818 14.1506 189.256 14.3722C188.697 14.5895 188.06 14.6982 187.344 14.6982ZM196.535 14.7173C195.912 14.7173 195.35 14.6023 194.847 14.3722C194.344 14.1378 193.946 13.799 193.652 13.3558C193.362 12.9126 193.217 12.3693 193.217 11.7259C193.217 11.1719 193.324 10.7159 193.537 10.358C193.75 10 194.037 9.71662 194.4 9.50781C194.762 9.29901 195.167 9.14134 195.614 9.0348C196.062 8.92827 196.518 8.8473 196.982 8.7919C197.57 8.72372 198.047 8.66832 198.414 8.62571C198.78 8.57884 199.047 8.50426 199.213 8.40199C199.379 8.29972 199.462 8.13352 199.462 7.90341V7.85866C199.462 7.30043 199.305 6.8679 198.989 6.56108C198.678 6.25426 198.214 6.10085 197.596 6.10085C196.952 6.10085 196.445 6.24361 196.074 6.52912C195.708 6.81037 195.454 7.12358 195.314 7.46875L193.518 7.05966C193.731 6.46307 194.042 5.98153 194.451 5.61506C194.864 5.24432 195.339 4.97585 195.876 4.80966C196.413 4.6392 196.978 4.55398 197.57 4.55398C197.962 4.55398 198.378 4.60085 198.817 4.6946C199.26 4.78409 199.673 4.95028 200.057 5.19318C200.444 5.43608 200.762 5.78338 201.009 6.23509C201.256 6.68253 201.38 7.2642 201.38 7.98011V14.5H199.513V13.1577H199.437C199.313 13.4048 199.128 13.6477 198.881 13.8864C198.633 14.125 198.316 14.3232 197.928 14.4808C197.54 14.6385 197.076 14.7173 196.535 14.7173ZM196.95 13.1832C197.479 13.1832 197.93 13.0788 198.305 12.87C198.684 12.6612 198.972 12.3885 199.168 12.0518C199.368 11.7109 199.469 11.3466 199.469 10.9588V9.69318C199.4 9.76136 199.268 9.82528 199.072 9.88494C198.881 9.94034 198.661 9.98935 198.414 10.032C198.167 10.0703 197.926 10.1065 197.692 10.1406C197.457 10.1705 197.261 10.196 197.104 10.2173C196.733 10.2642 196.394 10.343 196.087 10.4538C195.785 10.5646 195.542 10.7244 195.358 10.9332C195.18 11.1378 195.09 11.4105 195.09 11.7514C195.09 12.2244 195.265 12.5824 195.614 12.8253C195.964 13.0639 196.409 13.1832 196.95 13.1832ZM208.509 4.68182V6.21591H203.146V4.68182H208.509ZM204.584 2.32955H206.495V11.6172C206.495 11.9879 206.55 12.267 206.661 12.4545C206.772 12.6378 206.915 12.7635 207.089 12.8317C207.268 12.8956 207.462 12.9276 207.671 12.9276C207.825 12.9276 207.959 12.9169 208.074 12.8956C208.189 12.8743 208.278 12.8572 208.342 12.8445L208.688 14.4233C208.577 14.4659 208.419 14.5085 208.214 14.5511C208.01 14.598 207.754 14.6236 207.447 14.6278C206.945 14.6364 206.476 14.5469 206.041 14.3594C205.607 14.1719 205.255 13.8821 204.987 13.4901C204.718 13.098 204.584 12.6058 204.584 12.0135V2.32955ZM219.062 14.6918C218.269 14.6918 217.562 14.4893 216.94 14.0845C216.322 13.6754 215.836 13.0937 215.482 12.3395C215.133 11.581 214.958 10.6712 214.958 9.61009C214.958 8.54901 215.135 7.64133 215.489 6.88707C215.847 6.13281 216.337 5.5554 216.959 5.15483C217.581 4.75426 218.286 4.55398 219.075 4.55398C219.684 4.55398 220.174 4.65625 220.545 4.8608C220.92 5.06108 221.21 5.29545 221.414 5.56392C221.623 5.83239 221.785 6.06889 221.9 6.27344H222.015V1.40909H223.926V14.5H222.06V12.9723H221.9C221.785 13.1811 221.619 13.4197 221.401 13.6882C221.188 13.9567 220.894 14.1911 220.519 14.3913C220.144 14.5916 219.658 14.6918 219.062 14.6918ZM219.484 13.0618C220.033 13.0618 220.498 12.9169 220.877 12.6271C221.261 12.3331 221.55 11.9261 221.746 11.4062C221.947 10.8864 222.047 10.2812 222.047 9.59091C222.047 8.90909 221.949 8.3125 221.753 7.80114C221.557 7.28977 221.269 6.89133 220.89 6.60582C220.511 6.32031 220.042 6.17756 219.484 6.17756C218.908 6.17756 218.429 6.3267 218.045 6.625C217.662 6.9233 217.372 7.33026 217.176 7.84588C216.984 8.36151 216.888 8.94318 216.888 9.59091C216.888 10.2472 216.987 10.8374 217.183 11.3615C217.379 11.8857 217.668 12.3011 218.052 12.608C218.44 12.9105 218.917 13.0618 219.484 13.0618ZM230.885 14.6982C229.918 14.6982 229.085 14.4915 228.386 14.0781C227.692 13.6605 227.155 13.0746 226.775 12.3203C226.4 11.5618 226.213 10.6733 226.213 9.65483C226.213 8.64915 226.4 7.76278 226.775 6.99574C227.155 6.22869 227.683 5.62997 228.361 5.19957C229.042 4.76918 229.839 4.55398 230.751 4.55398C231.305 4.55398 231.842 4.6456 232.362 4.82884C232.882 5.01207 233.349 5.29972 233.762 5.69176C234.175 6.08381 234.501 6.59304 234.74 7.21946C234.979 7.84162 235.098 8.59801 235.098 9.48864V10.1662H227.293V8.73438H233.225C233.225 8.23153 233.123 7.78622 232.918 7.39844C232.714 7.00639 232.426 6.69744 232.055 6.47159C231.689 6.24574 231.258 6.13281 230.764 6.13281C230.227 6.13281 229.758 6.26491 229.358 6.52912C228.961 6.78906 228.655 7.12997 228.437 7.55185C228.224 7.96946 228.118 8.4233 228.118 8.91335V10.032C228.118 10.6882 228.233 11.2464 228.463 11.7067C228.697 12.1669 229.023 12.5185 229.441 12.7614C229.858 13 230.346 13.1193 230.905 13.1193C231.267 13.1193 231.597 13.0682 231.895 12.9659C232.194 12.8594 232.452 12.7017 232.669 12.4929C232.886 12.2841 233.052 12.0263 233.167 11.7195L234.976 12.0455C234.831 12.5781 234.572 13.0447 234.197 13.4453C233.826 13.8416 233.359 14.1506 232.797 14.3722C232.238 14.5895 231.601 14.6982 230.885 14.6982ZM244.576 7.07884L242.843 7.38565C242.771 7.16406 242.656 6.95312 242.498 6.75284C242.345 6.55256 242.136 6.38849 241.872 6.26065C241.608 6.13281 241.277 6.06889 240.881 6.06889C240.34 6.06889 239.888 6.19034 239.526 6.43324C239.164 6.67187 238.983 6.98082 238.983 7.36009C238.983 7.68821 239.104 7.95241 239.347 8.1527C239.59 8.35298 239.982 8.51705 240.523 8.64489L242.083 9.00284C242.986 9.21165 243.659 9.53338 244.103 9.96804C244.546 10.4027 244.767 10.9673 244.767 11.6619C244.767 12.25 244.597 12.7741 244.256 13.2344C243.919 13.6903 243.449 14.0483 242.843 14.3082C242.243 14.5682 241.546 14.6982 240.753 14.6982C239.654 14.6982 238.757 14.4638 238.062 13.995C237.368 13.522 236.941 12.8509 236.784 11.9815L238.631 11.7003C238.746 12.1818 238.983 12.5462 239.341 12.7933C239.699 13.0362 240.165 13.1577 240.74 13.1577C241.367 13.1577 241.868 13.0277 242.243 12.7678C242.618 12.5036 242.805 12.1818 242.805 11.8026C242.805 11.4957 242.69 11.2379 242.46 11.0291C242.234 10.8203 241.887 10.6626 241.418 10.5561L239.756 10.1918C238.84 9.98295 238.162 9.65057 237.723 9.1946C237.289 8.73864 237.071 8.16122 237.071 7.46236C237.071 6.88281 237.233 6.37571 237.557 5.94105C237.881 5.50639 238.328 5.16761 238.9 4.92472C239.471 4.67756 240.125 4.55398 240.862 4.55398C241.923 4.55398 242.758 4.78409 243.368 5.24432C243.977 5.70028 244.38 6.31179 244.576 7.07884ZM246.869 14.5V4.68182H248.78V14.5H246.869ZM247.834 3.1669C247.502 3.1669 247.216 3.05611 246.977 2.83452C246.743 2.60866 246.626 2.3402 246.626 2.02912C246.626 1.71378 246.743 1.44531 246.977 1.22372C247.216 0.997869 247.502 0.884943 247.834 0.884943C248.166 0.884943 248.45 0.997869 248.684 1.22372C248.923 1.44531 249.042 1.71378 249.042 2.02912C249.042 2.3402 248.923 2.60866 248.684 2.83452C248.45 3.05611 248.166 3.1669 247.834 3.1669ZM255.468 18.3864C254.688 18.3864 254.017 18.2841 253.454 18.0795C252.896 17.875 252.44 17.6044 252.086 17.2678C251.733 16.9311 251.468 16.5625 251.294 16.1619L252.936 15.4844C253.051 15.6719 253.205 15.87 253.397 16.0788C253.593 16.2919 253.857 16.473 254.189 16.6222C254.526 16.7713 254.958 16.8459 255.487 16.8459C256.211 16.8459 256.81 16.669 257.283 16.3153C257.756 15.9659 257.993 15.4077 257.993 14.6406V12.7102H257.871C257.756 12.919 257.59 13.1513 257.373 13.407C257.159 13.6626 256.865 13.8842 256.49 14.0717C256.115 14.2592 255.627 14.353 255.027 14.353C254.251 14.353 253.552 14.1719 252.93 13.8097C252.312 13.4432 251.822 12.9041 251.46 12.1925C251.102 11.4766 250.923 10.5966 250.923 9.55256C250.923 8.50852 251.1 7.61364 251.453 6.8679C251.811 6.12216 252.301 5.55114 252.924 5.15483C253.546 4.75426 254.251 4.55398 255.039 4.55398C255.649 4.55398 256.141 4.65625 256.516 4.8608C256.891 5.06108 257.183 5.29545 257.392 5.56392C257.605 5.83239 257.769 6.06889 257.884 6.27344H258.025V4.68182H259.897V14.7173C259.897 15.5611 259.701 16.2536 259.309 16.7947C258.917 17.3359 258.387 17.7365 257.718 17.9964C257.053 18.2564 256.303 18.3864 255.468 18.3864ZM255.449 12.7678C255.998 12.7678 256.463 12.6399 256.842 12.3842C257.225 12.1243 257.515 11.7536 257.711 11.272C257.912 10.7862 258.012 10.2045 258.012 9.52699C258.012 8.86648 257.914 8.2848 257.718 7.78196C257.522 7.27912 257.234 6.88707 256.855 6.60582C256.475 6.32031 256.007 6.17756 255.449 6.17756C254.873 6.17756 254.394 6.3267 254.01 6.625C253.627 6.91903 253.337 7.3196 253.141 7.8267C252.949 8.33381 252.853 8.90057 252.853 9.52699C252.853 10.1705 252.951 10.7351 253.147 11.2209C253.343 11.7067 253.633 12.0859 254.017 12.3587C254.404 12.6314 254.882 12.7678 255.449 12.7678ZM264.372 8.67045V14.5H262.461V4.68182H264.295V6.27983H264.417C264.642 5.75994 264.996 5.34233 265.478 5.02699C265.963 4.71165 266.575 4.55398 267.312 4.55398C267.981 4.55398 268.567 4.6946 269.07 4.97585C269.573 5.25284 269.963 5.66619 270.24 6.21591C270.517 6.76562 270.655 7.44531 270.655 8.25497V14.5H268.744V8.48509C268.744 7.77344 268.559 7.21733 268.188 6.81676C267.817 6.41193 267.308 6.20952 266.66 6.20952C266.217 6.20952 265.823 6.3054 265.478 6.49716C265.137 6.68892 264.866 6.97017 264.666 7.34091C264.47 7.70739 264.372 8.15057 264.372 8.67045ZM4.14205 39.7173C3.51989 39.7173 2.95739 39.6023 2.45455 39.3722C1.9517 39.1378 1.55327 38.799 1.25923 38.3558C0.96946 37.9126 0.824574 37.3693 0.824574 36.7259C0.824574 36.1719 0.931108 35.7159 1.14418 35.358C1.35724 35 1.64489 34.7166 2.0071 34.5078C2.36932 34.299 2.77415 34.1413 3.22159 34.0348C3.66903 33.9283 4.125 33.8473 4.58949 33.7919C5.17756 33.7237 5.65483 33.6683 6.02131 33.6257C6.38778 33.5788 6.65412 33.5043 6.82031 33.402C6.98651 33.2997 7.0696 33.1335 7.0696 32.9034V32.8587C7.0696 32.3004 6.91193 31.8679 6.59659 31.5611C6.28551 31.2543 5.82102 31.1009 5.20312 31.1009C4.55966 31.1009 4.05256 31.2436 3.68182 31.5291C3.31534 31.8104 3.06179 32.1236 2.92116 32.4688L1.125 32.0597C1.33807 31.4631 1.64915 30.9815 2.05824 30.6151C2.47159 30.2443 2.94673 29.9759 3.48366 29.8097C4.0206 29.6392 4.58523 29.554 5.17756 29.554C5.5696 29.554 5.98509 29.6009 6.42401 29.6946C6.86719 29.7841 7.28054 29.9503 7.66406 30.1932C8.05185 30.4361 8.36932 30.7834 8.61648 31.2351C8.86364 31.6825 8.98722 32.2642 8.98722 32.9801V39.5H7.12074V38.1577H7.04403C6.92045 38.4048 6.73509 38.6477 6.48793 38.8864C6.24077 39.125 5.9233 39.3232 5.53551 39.4808C5.14773 39.6385 4.68324 39.7173 4.14205 39.7173ZM4.55753 38.1832C5.08594 38.1832 5.53764 38.0788 5.91264 37.87C6.2919 37.6612 6.57955 37.3885 6.77557 37.0518C6.97585 36.7109 7.07599 36.3466 7.07599 35.9588V34.6932C7.00781 34.7614 6.87571 34.8253 6.67969 34.8849C6.48793 34.9403 6.26847 34.9893 6.02131 35.032C5.77415 35.0703 5.53338 35.1065 5.29901 35.1406C5.06463 35.1705 4.86861 35.196 4.71094 35.2173C4.3402 35.2642 4.00142 35.343 3.6946 35.4538C3.39205 35.5646 3.14915 35.7244 2.96591 35.9332C2.78693 36.1378 2.69744 36.4105 2.69744 36.7514C2.69744 37.2244 2.87216 37.5824 3.22159 37.8253C3.57102 38.0639 4.01634 38.1832 4.55753 38.1832ZM13.4441 33.6705V39.5H11.5328V29.6818H13.3674V31.2798H13.4888C13.7147 30.7599 14.0684 30.3423 14.5499 30.027C15.0357 29.7116 15.6472 29.554 16.3844 29.554C17.0534 29.554 17.6394 29.6946 18.1422 29.9759C18.6451 30.2528 19.035 30.6662 19.312 31.2159C19.589 31.7656 19.7275 32.4453 19.7275 33.255V39.5H17.8162V33.4851C17.8162 32.7734 17.6309 32.2173 17.2601 31.8168C16.8894 31.4119 16.3801 31.2095 15.7324 31.2095C15.2892 31.2095 14.8951 31.3054 14.5499 31.4972C14.209 31.6889 13.9384 31.9702 13.7381 32.3409C13.5421 32.7074 13.4441 33.1506 13.4441 33.6705ZM25.9661 39.6918C25.1735 39.6918 24.4661 39.4893 23.8439 39.0845C23.226 38.6754 22.7402 38.0937 22.3865 37.3395C22.0371 36.581 21.8624 35.6712 21.8624 34.6101C21.8624 33.549 22.0392 32.6413 22.3929 31.8871C22.7509 31.1328 23.2409 30.5554 23.8631 30.1548C24.4853 29.7543 25.1905 29.554 25.9789 29.554C26.5882 29.554 27.0783 29.6562 27.449 29.8608C27.824 30.0611 28.1138 30.2955 28.3184 30.5639C28.5272 30.8324 28.6891 31.0689 28.8042 31.2734H28.9192V26.4091H30.8304V39.5H28.964V37.9723H28.8042C28.6891 38.1811 28.5229 38.4197 28.3056 38.6882C28.0925 38.9567 27.7985 39.1911 27.4235 39.3913C27.0485 39.5916 26.5627 39.6918 25.9661 39.6918ZM26.388 38.0618C26.9377 38.0618 27.4022 37.9169 27.7814 37.6271C28.165 37.3331 28.4547 36.9261 28.6507 36.4062C28.851 35.8864 28.9512 35.2812 28.9512 34.5909C28.9512 33.9091 28.8532 33.3125 28.6571 32.8011C28.4611 32.2898 28.1735 31.8913 27.7942 31.6058C27.415 31.3203 26.9462 31.1776 26.388 31.1776C25.8127 31.1776 25.3333 31.3267 24.9498 31.625C24.5662 31.9233 24.2765 32.3303 24.0804 32.8459C23.8887 33.3615 23.7928 33.9432 23.7928 34.5909C23.7928 35.2472 23.8908 35.8374 24.0868 36.3615C24.2828 36.8857 24.5726 37.3011 24.9561 37.608C25.3439 37.9105 25.8212 38.0618 26.388 38.0618ZM42.905 29.6818V31.2159H37.5421V29.6818H42.905ZM38.9803 27.3295H40.8915V36.6172C40.8915 36.9879 40.9469 37.267 41.0577 37.4545C41.1685 37.6378 41.3113 37.7635 41.486 37.8317C41.665 37.8956 41.8588 37.9276 42.0676 37.9276C42.2211 37.9276 42.3553 37.9169 42.4703 37.8956C42.5854 37.8743 42.6749 37.8572 42.7388 37.8445L43.084 39.4233C42.9732 39.4659 42.8155 39.5085 42.611 39.5511C42.4064 39.598 42.1507 39.6236 41.8439 39.6278C41.3411 39.6364 40.8723 39.5469 40.4377 39.3594C40.003 39.1719 39.6515 38.8821 39.383 38.4901C39.1145 38.098 38.9803 37.6058 38.9803 37.0135V27.3295ZM47.1413 33.6705V39.5H45.2301V26.4091H47.1158V31.2798H47.2372C47.4673 30.7514 47.8189 30.3317 48.2919 30.0206C48.7649 29.7095 49.3828 29.554 50.1456 29.554C50.8189 29.554 51.407 29.6925 51.9098 29.9695C52.4169 30.2464 52.8089 30.6598 53.0859 31.2095C53.3672 31.755 53.5078 32.4368 53.5078 33.255V39.5H51.5966V33.4851C51.5966 32.7649 51.4112 32.2067 51.0405 31.8104C50.6697 31.4098 50.1541 31.2095 49.4936 31.2095C49.0419 31.2095 48.6371 31.3054 48.2791 31.4972C47.9254 31.6889 47.6463 31.9702 47.4418 32.3409C47.2415 32.7074 47.1413 33.1506 47.1413 33.6705ZM60.2898 39.6982C59.3224 39.6982 58.4893 39.4915 57.7905 39.0781C57.0959 38.6605 56.5589 38.0746 56.1797 37.3203C55.8047 36.5618 55.6172 35.6733 55.6172 34.6548C55.6172 33.6491 55.8047 32.7628 56.1797 31.9957C56.5589 31.2287 57.0874 30.63 57.7649 30.1996C58.4467 29.7692 59.2436 29.554 60.1555 29.554C60.7095 29.554 61.2464 29.6456 61.7663 29.8288C62.2862 30.0121 62.7528 30.2997 63.1662 30.6918C63.5795 31.0838 63.9055 31.593 64.1442 32.2195C64.3828 32.8416 64.5021 33.598 64.5021 34.4886V35.1662H56.6974V33.7344H62.6293C62.6293 33.2315 62.527 32.7862 62.3224 32.3984C62.1179 32.0064 61.8303 31.6974 61.4595 31.4716C61.093 31.2457 60.6626 31.1328 60.1683 31.1328C59.6314 31.1328 59.1626 31.2649 58.7621 31.5291C58.3658 31.7891 58.0589 32.13 57.8416 32.5518C57.6286 32.9695 57.522 33.4233 57.522 33.9134V35.032C57.522 35.6882 57.6371 36.2464 57.8672 36.7067C58.1016 37.1669 58.4276 37.5185 58.8452 37.7614C59.2628 38 59.7507 38.1193 60.3089 38.1193C60.6712 38.1193 61.0014 38.0682 61.2997 37.9659C61.598 37.8594 61.8558 37.7017 62.0732 37.4929C62.2905 37.2841 62.4567 37.0263 62.5717 36.7195L64.3807 37.0455C64.2358 37.5781 63.9759 38.0447 63.6009 38.4453C63.2301 38.8416 62.7635 39.1506 62.201 39.3722C61.6428 39.5895 61.0057 39.6982 60.2898 39.6982ZM76.0589 29.6818V31.2159H70.5107V29.6818H76.0589ZM72.032 39.5V28.544C72.032 27.9304 72.1662 27.4212 72.4347 27.0163C72.7031 26.6072 73.0589 26.3026 73.5021 26.1023C73.9453 25.8977 74.4268 25.7955 74.9467 25.7955C75.3303 25.7955 75.6584 25.8274 75.9311 25.8913C76.2038 25.951 76.4062 26.0064 76.5384 26.0575L76.0909 27.6044C76.0014 27.5788 75.8864 27.549 75.7457 27.5149C75.6051 27.4766 75.4347 27.4574 75.2344 27.4574C74.7699 27.4574 74.4375 27.5724 74.2372 27.8026C74.0412 28.0327 73.9432 28.3651 73.9432 28.7997V39.5H72.032ZM78.0309 39.5V29.6818H79.9421V39.5H78.0309ZM78.9961 28.1669C78.6637 28.1669 78.3782 28.0561 78.1396 27.8345C77.9052 27.6087 77.788 27.3402 77.788 27.0291C77.788 26.7138 77.9052 26.4453 78.1396 26.2237C78.3782 25.9979 78.6637 25.8849 78.9961 25.8849C79.3285 25.8849 79.6119 25.9979 79.8462 26.2237C80.0849 26.4453 80.2042 26.7138 80.2042 27.0291C80.2042 27.3402 80.0849 27.6087 79.8462 27.8345C79.6119 28.0561 79.3285 28.1669 78.9961 28.1669ZM84.4245 33.6705V39.5H82.5133V29.6818H84.3478V31.2798H84.4693C84.6951 30.7599 85.0488 30.3423 85.5304 30.027C86.0162 29.7116 86.6277 29.554 87.3649 29.554C88.0339 29.554 88.6199 29.6946 89.1227 29.9759C89.6255 30.2528 90.0154 30.6662 90.2924 31.2159C90.5694 31.7656 90.7079 32.4453 90.7079 33.255V39.5H88.7967V33.4851C88.7967 32.7734 88.6113 32.2173 88.2406 31.8168C87.8699 31.4119 87.3606 31.2095 86.7129 31.2095C86.2697 31.2095 85.8755 31.3054 85.5304 31.4972C85.1895 31.6889 84.9189 31.9702 84.7186 32.3409C84.5225 32.7074 84.4245 33.1506 84.4245 33.6705ZM97.5027 39.6982C96.5353 39.6982 95.7022 39.4915 95.0034 39.0781C94.3088 38.6605 93.7718 38.0746 93.3926 37.3203C93.0176 36.5618 92.8301 35.6733 92.8301 34.6548C92.8301 33.6491 93.0176 32.7628 93.3926 31.9957C93.7718 31.2287 94.3002 30.63 94.9778 30.1996C95.6596 29.7692 96.4565 29.554 97.3684 29.554C97.9224 29.554 98.4593 29.6456 98.9792 29.8288C99.4991 30.0121 99.9657 30.2997 100.379 30.6918C100.792 31.0838 101.118 31.593 101.357 32.2195C101.596 32.8416 101.715 33.598 101.715 34.4886V35.1662H93.9103V33.7344H99.8422C99.8422 33.2315 99.7399 32.7862 99.5353 32.3984C99.3308 32.0064 99.0431 31.6974 98.6724 31.4716C98.3059 31.2457 97.8755 31.1328 97.3812 31.1328C96.8443 31.1328 96.3755 31.2649 95.975 31.5291C95.5787 31.7891 95.2718 32.13 95.0545 32.5518C94.8414 32.9695 94.7349 33.4233 94.7349 33.9134V35.032C94.7349 35.6882 94.85 36.2464 95.0801 36.7067C95.3145 37.1669 95.6404 37.5185 96.0581 37.7614C96.4757 38 96.9636 38.1193 97.5218 38.1193C97.8841 38.1193 98.2143 38.0682 98.5126 37.9659C98.8109 37.8594 99.0687 37.7017 99.286 37.4929C99.5034 37.2841 99.6696 37.0263 99.7846 36.7195L101.594 37.0455C101.449 37.5781 101.189 38.0447 100.814 38.4453C100.443 38.8416 99.9764 39.1506 99.4139 39.3722C98.8556 39.5895 98.2186 39.6982 97.5027 39.6982ZM111.193 32.0788L109.461 32.3857C109.388 32.1641 109.273 31.9531 109.115 31.7528C108.962 31.5526 108.753 31.3885 108.489 31.2607C108.225 31.1328 107.895 31.0689 107.498 31.0689C106.957 31.0689 106.505 31.1903 106.143 31.4332C105.781 31.6719 105.6 31.9808 105.6 32.3601C105.6 32.6882 105.721 32.9524 105.964 33.1527C106.207 33.353 106.599 33.517 107.14 33.6449L108.7 34.0028C109.603 34.2116 110.277 34.5334 110.72 34.968C111.163 35.4027 111.385 35.9673 111.385 36.6619C111.385 37.25 111.214 37.7741 110.873 38.2344C110.537 38.6903 110.066 39.0483 109.461 39.3082C108.86 39.5682 108.163 39.6982 107.37 39.6982C106.271 39.6982 105.374 39.4638 104.679 38.995C103.985 38.522 103.559 37.8509 103.401 36.9815L105.248 36.7003C105.363 37.1818 105.6 37.5462 105.958 37.7933C106.316 38.0362 106.782 38.1577 107.358 38.1577C107.984 38.1577 108.485 38.0277 108.86 37.7678C109.235 37.5036 109.422 37.1818 109.422 36.8026C109.422 36.4957 109.307 36.2379 109.077 36.0291C108.851 35.8203 108.504 35.6626 108.035 35.5561L106.373 35.1918C105.457 34.983 104.779 34.6506 104.341 34.1946C103.906 33.7386 103.689 33.1612 103.689 32.4624C103.689 31.8828 103.85 31.3757 104.174 30.9411C104.498 30.5064 104.946 30.1676 105.517 29.9247C106.088 29.6776 106.742 29.554 107.479 29.554C108.54 29.554 109.375 29.7841 109.985 30.2443C110.594 30.7003 110.997 31.3118 111.193 32.0788ZM118.069 29.6818V31.2159H112.706V29.6818H118.069ZM114.144 27.3295H116.056V36.6172C116.056 36.9879 116.111 37.267 116.222 37.4545C116.333 37.6378 116.475 37.7635 116.65 37.8317C116.829 37.8956 117.023 37.9276 117.232 37.9276C117.385 37.9276 117.519 37.9169 117.634 37.8956C117.749 37.8743 117.839 37.8572 117.903 37.8445L118.248 39.4233C118.137 39.4659 117.98 39.5085 117.775 39.5511C117.57 39.598 117.315 39.6236 117.008 39.6278C116.505 39.6364 116.036 39.5469 115.602 39.3594C115.167 39.1719 114.816 38.8821 114.547 38.4901C114.279 38.098 114.144 37.6058 114.144 37.0135V27.3295ZM124.947 39.5V29.6818H126.781V31.2798H126.903C127.107 30.7386 127.442 30.3168 127.906 30.0142C128.371 29.7074 128.927 29.554 129.575 29.554C130.231 29.554 130.781 29.7074 131.224 30.0142C131.671 30.321 132.002 30.7429 132.215 31.2798H132.317C132.551 30.7557 132.924 30.3381 133.436 30.027C133.947 29.7116 134.556 29.554 135.264 29.554C136.154 29.554 136.881 29.8331 137.443 30.3913C138.01 30.9496 138.294 31.7912 138.294 32.9162V39.5H136.382V33.0952C136.382 32.4304 136.201 31.9489 135.839 31.6506C135.477 31.3523 135.044 31.2031 134.541 31.2031C133.919 31.2031 133.436 31.3949 133.09 31.7784C132.745 32.1577 132.573 32.6456 132.573 33.2422V39.5H130.668V32.9737C130.668 32.4411 130.502 32.0128 130.169 31.6889C129.837 31.3651 129.404 31.2031 128.872 31.2031C128.509 31.2031 128.175 31.299 127.868 31.4908C127.566 31.6783 127.32 31.9403 127.133 32.277C126.95 32.6136 126.858 33.0036 126.858 33.4467V39.5H124.947ZM143.712 39.7173C143.09 39.7173 142.528 39.6023 142.025 39.3722C141.522 39.1378 141.124 38.799 140.83 38.3558C140.54 37.9126 140.395 37.3693 140.395 36.7259C140.395 36.1719 140.501 35.7159 140.714 35.358C140.928 35 141.215 34.7166 141.577 34.5078C141.94 34.299 142.344 34.1413 142.792 34.0348C143.239 33.9283 143.695 33.8473 144.16 33.7919C144.748 33.7237 145.225 33.6683 145.592 33.6257C145.958 33.5788 146.224 33.5043 146.391 33.402C146.557 33.2997 146.64 33.1335 146.64 32.9034V32.8587C146.64 32.3004 146.482 31.8679 146.167 31.5611C145.856 31.2543 145.391 31.1009 144.773 31.1009C144.13 31.1009 143.623 31.2436 143.252 31.5291C142.886 31.8104 142.632 32.1236 142.491 32.4688L140.695 32.0597C140.908 31.4631 141.219 30.9815 141.629 30.6151C142.042 30.2443 142.517 29.9759 143.054 29.8097C143.591 29.6392 144.156 29.554 144.748 29.554C145.14 29.554 145.555 29.6009 145.994 29.6946C146.438 29.7841 146.851 29.9503 147.234 30.1932C147.622 30.4361 147.94 30.7834 148.187 31.2351C148.434 31.6825 148.558 32.2642 148.558 32.9801V39.5H146.691V38.1577H146.614C146.491 38.4048 146.305 38.6477 146.058 38.8864C145.811 39.125 145.494 39.3232 145.106 39.4808C144.718 39.6385 144.254 39.7173 143.712 39.7173ZM144.128 38.1832C144.656 38.1832 145.108 38.0788 145.483 37.87C145.862 37.6612 146.15 37.3885 146.346 37.0518C146.546 36.7109 146.646 36.3466 146.646 35.9588V34.6932C146.578 34.7614 146.446 34.8253 146.25 34.8849C146.058 34.9403 145.839 34.9893 145.592 35.032C145.344 35.0703 145.104 35.1065 144.869 35.1406C144.635 35.1705 144.439 35.196 144.281 35.2173C143.911 35.2642 143.572 35.343 143.265 35.4538C142.962 35.5646 142.719 35.7244 142.536 35.9332C142.357 36.1378 142.268 36.4105 142.268 36.7514C142.268 37.2244 142.442 37.5824 142.792 37.8253C143.141 38.0639 143.587 38.1832 144.128 38.1832ZM155.686 29.6818V31.2159H150.323V29.6818H155.686ZM151.762 27.3295H153.673V36.6172C153.673 36.9879 153.728 37.267 153.839 37.4545C153.95 37.6378 154.093 37.7635 154.267 37.8317C154.446 37.8956 154.64 37.9276 154.849 37.9276C155.002 37.9276 155.137 37.9169 155.252 37.8956C155.367 37.8743 155.456 37.8572 155.52 37.8445L155.865 39.4233C155.754 39.4659 155.597 39.5085 155.392 39.5511C155.188 39.598 154.932 39.6236 154.625 39.6278C154.122 39.6364 153.654 39.5469 153.219 39.3594C152.784 39.1719 152.433 38.8821 152.164 38.4901C151.896 38.098 151.762 37.6058 151.762 37.0135V27.3295ZM161.926 39.6982C160.959 39.6982 160.126 39.4915 159.427 39.0781C158.733 38.6605 158.196 38.0746 157.816 37.3203C157.441 36.5618 157.254 35.6733 157.254 34.6548C157.254 33.6491 157.441 32.7628 157.816 31.9957C158.196 31.2287 158.724 30.63 159.402 30.1996C160.083 29.7692 160.88 29.554 161.792 29.554C162.346 29.554 162.883 29.6456 163.403 29.8288C163.923 30.0121 164.39 30.2997 164.803 30.6918C165.216 31.0838 165.542 31.593 165.781 32.2195C166.02 32.8416 166.139 33.598 166.139 34.4886V35.1662H158.334V33.7344H164.266C164.266 33.2315 164.164 32.7862 163.959 32.3984C163.755 32.0064 163.467 31.6974 163.096 31.4716C162.73 31.2457 162.299 31.1328 161.805 31.1328C161.268 31.1328 160.799 31.2649 160.399 31.5291C160.002 31.7891 159.696 32.13 159.478 32.5518C159.265 32.9695 159.159 33.4233 159.159 33.9134V35.032C159.159 35.6882 159.274 36.2464 159.504 36.7067C159.738 37.1669 160.064 37.5185 160.482 37.7614C160.9 38 161.387 38.1193 161.946 38.1193C162.308 38.1193 162.638 38.0682 162.936 37.9659C163.235 37.8594 163.493 37.7017 163.71 37.4929C163.927 37.2841 164.093 37.0263 164.208 36.7195L166.017 37.0455C165.873 37.5781 165.613 38.0447 165.238 38.4453C164.867 38.8416 164.4 39.1506 163.838 39.3722C163.279 39.5895 162.642 39.6982 161.926 39.6982ZM168.259 39.5V29.6818H170.107V31.2415H170.209C170.388 30.7131 170.703 30.2976 171.155 29.995C171.611 29.6882 172.127 29.5348 172.702 29.5348C172.821 29.5348 172.962 29.5391 173.124 29.5476C173.29 29.5561 173.42 29.5668 173.514 29.5795V31.4077C173.437 31.3864 173.301 31.3629 173.105 31.3374C172.909 31.3075 172.713 31.2926 172.517 31.2926C172.065 31.2926 171.662 31.3885 171.308 31.5803C170.959 31.7678 170.682 32.0298 170.477 32.3665C170.273 32.6989 170.171 33.0781 170.171 33.5043V39.5H168.259ZM175.168 39.5V29.6818H177.079V39.5H175.168ZM176.133 28.1669C175.8 28.1669 175.515 28.0561 175.276 27.8345C175.042 27.6087 174.925 27.3402 174.925 27.0291C174.925 26.7138 175.042 26.4453 175.276 26.2237C175.515 25.9979 175.8 25.8849 176.133 25.8849C176.465 25.8849 176.749 25.9979 176.983 26.2237C177.222 26.4453 177.341 26.7138 177.341 27.0291C177.341 27.3402 177.222 27.6087 176.983 27.8345C176.749 28.0561 176.465 28.1669 176.133 28.1669ZM182.507 39.7173C181.885 39.7173 181.323 39.6023 180.82 39.3722C180.317 39.1378 179.919 38.799 179.624 38.3558C179.335 37.9126 179.19 37.3693 179.19 36.7259C179.19 36.1719 179.296 35.7159 179.509 35.358C179.722 35 180.01 34.7166 180.372 34.5078C180.735 34.299 181.139 34.1413 181.587 34.0348C182.034 33.9283 182.49 33.8473 182.955 33.7919C183.543 33.7237 184.02 33.6683 184.387 33.6257C184.753 33.5788 185.019 33.5043 185.186 33.402C185.352 33.2997 185.435 33.1335 185.435 32.9034V32.8587C185.435 32.3004 185.277 31.8679 184.962 31.5611C184.651 31.2543 184.186 31.1009 183.568 31.1009C182.925 31.1009 182.418 31.2436 182.047 31.5291C181.681 31.8104 181.427 32.1236 181.286 32.4688L179.49 32.0597C179.703 31.4631 180.014 30.9815 180.423 30.6151C180.837 30.2443 181.312 29.9759 181.849 29.8097C182.386 29.6392 182.95 29.554 183.543 29.554C183.935 29.554 184.35 29.6009 184.789 29.6946C185.232 29.7841 185.646 29.9503 186.029 30.1932C186.417 30.4361 186.735 30.7834 186.982 31.2351C187.229 31.6825 187.352 32.2642 187.352 32.9801V39.5H185.486V38.1577H185.409C185.286 38.4048 185.1 38.6477 184.853 38.8864C184.606 39.125 184.289 39.3232 183.901 39.4808C183.513 39.6385 183.048 39.7173 182.507 39.7173ZM182.923 38.1832C183.451 38.1832 183.903 38.0788 184.278 37.87C184.657 37.6612 184.945 37.3885 185.141 37.0518C185.341 36.7109 185.441 36.3466 185.441 35.9588V34.6932C185.373 34.7614 185.241 34.8253 185.045 34.8849C184.853 34.9403 184.634 34.9893 184.387 35.032C184.139 35.0703 183.899 35.1065 183.664 35.1406C183.43 35.1705 183.234 35.196 183.076 35.2173C182.705 35.2642 182.367 35.343 182.06 35.4538C181.757 35.5646 181.514 35.7244 181.331 35.9332C181.152 36.1378 181.063 36.4105 181.063 36.7514C181.063 37.2244 181.237 37.5824 181.587 37.8253C181.936 38.0639 182.382 38.1832 182.923 38.1832ZM191.809 26.4091V39.5H189.898V26.4091H191.809ZM201.738 32.0788L200.006 32.3857C199.933 32.1641 199.818 31.9531 199.66 31.7528C199.507 31.5526 199.298 31.3885 199.034 31.2607C198.77 31.1328 198.439 31.0689 198.043 31.0689C197.502 31.0689 197.05 31.1903 196.688 31.4332C196.326 31.6719 196.145 31.9808 196.145 32.3601C196.145 32.6882 196.266 32.9524 196.509 33.1527C196.752 33.353 197.144 33.517 197.685 33.6449L199.245 34.0028C200.148 34.2116 200.822 34.5334 201.265 34.968C201.708 35.4027 201.93 35.9673 201.93 36.6619C201.93 37.25 201.759 37.7741 201.418 38.2344C201.081 38.6903 200.611 39.0483 200.006 39.3082C199.405 39.5682 198.708 39.6982 197.915 39.6982C196.816 39.6982 195.919 39.4638 195.224 38.995C194.53 38.522 194.104 37.8509 193.946 36.9815L195.793 36.7003C195.908 37.1818 196.145 37.5462 196.503 37.7933C196.861 38.0362 197.327 38.1577 197.903 38.1577C198.529 38.1577 199.03 38.0277 199.405 37.7678C199.78 37.5036 199.967 37.1818 199.967 36.8026C199.967 36.4957 199.852 36.2379 199.622 36.0291C199.396 35.8203 199.049 35.6626 198.58 35.5561L196.918 35.1918C196.002 34.983 195.324 34.6506 194.885 34.1946C194.451 33.7386 194.233 33.1612 194.233 32.4624C194.233 31.8828 194.395 31.3757 194.719 30.9411C195.043 30.5064 195.491 30.1676 196.062 29.9247C196.633 29.6776 197.287 29.554 198.024 29.554C199.085 29.554 199.92 29.7841 200.53 30.2443C201.139 30.7003 201.542 31.3118 201.738 32.0788ZM215.014 35.4283V29.6818H216.932V39.5H215.052V37.7997H214.95C214.724 38.3239 214.362 38.7607 213.863 39.1101C213.369 39.4553 212.753 39.6278 212.016 39.6278C211.385 39.6278 210.827 39.4893 210.341 39.2124C209.86 38.9311 209.481 38.5156 209.204 37.9659C208.931 37.4162 208.795 36.7365 208.795 35.9268V29.6818H210.706V35.6967C210.706 36.3658 210.891 36.8984 211.262 37.2947C211.633 37.6911 212.114 37.8892 212.706 37.8892C213.064 37.8892 213.42 37.7997 213.774 37.6207C214.132 37.4418 214.428 37.1712 214.662 36.8089C214.901 36.4467 215.018 35.9865 215.014 35.4283ZM221.411 33.6705V39.5H219.5V29.6818H221.334V31.2798H221.456C221.681 30.7599 222.035 30.3423 222.517 30.027C223.002 29.7116 223.614 29.554 224.351 29.554C225.02 29.554 225.606 29.6946 226.109 29.9759C226.612 30.2528 227.002 30.6662 227.279 31.2159C227.556 31.7656 227.694 32.4453 227.694 33.255V39.5H225.783V33.4851C225.783 32.7734 225.598 32.2173 225.227 31.8168C224.856 31.4119 224.347 31.2095 223.699 31.2095C223.256 31.2095 222.862 31.3054 222.517 31.4972C222.176 31.6889 221.905 31.9702 221.705 32.3409C221.509 32.7074 221.411 33.1506 221.411 33.6705ZM230.257 39.5V29.6818H232.169V39.5H230.257ZM231.223 28.1669C230.89 28.1669 230.605 28.0561 230.366 27.8345C230.132 27.6087 230.015 27.3402 230.015 27.0291C230.015 26.7138 230.132 26.4453 230.366 26.2237C230.605 25.9979 230.89 25.8849 231.223 25.8849C231.555 25.8849 231.838 25.9979 232.073 26.2237C232.311 26.4453 232.431 26.7138 232.431 27.0291C232.431 27.3402 232.311 27.6087 232.073 27.8345C231.838 28.0561 231.555 28.1669 231.223 28.1669ZM239.323 29.6818V31.2159H233.96V29.6818H239.323ZM235.398 27.3295H237.309V36.6172C237.309 36.9879 237.365 37.267 237.476 37.4545C237.586 37.6378 237.729 37.7635 237.904 37.8317C238.083 37.8956 238.277 37.9276 238.486 37.9276C238.639 37.9276 238.773 37.9169 238.888 37.8956C239.003 37.8743 239.093 37.8572 239.157 37.8445L239.502 39.4233C239.391 39.4659 239.233 39.5085 239.029 39.5511C238.824 39.598 238.569 39.6236 238.262 39.6278C237.759 39.6364 237.29 39.5469 236.856 39.3594C236.421 39.1719 236.069 38.8821 235.801 38.4901C235.532 38.098 235.398 37.6058 235.398 37.0135V27.3295ZM245.563 39.6982C244.596 39.6982 243.763 39.4915 243.064 39.0781C242.369 38.6605 241.832 38.0746 241.453 37.3203C241.078 36.5618 240.891 35.6733 240.891 34.6548C240.891 33.6491 241.078 32.7628 241.453 31.9957C241.832 31.2287 242.361 30.63 243.038 30.1996C243.72 29.7692 244.517 29.554 245.429 29.554C245.983 29.554 246.52 29.6456 247.04 29.8288C247.56 30.0121 248.026 30.2997 248.44 30.6918C248.853 31.0838 249.179 31.593 249.418 32.2195C249.656 32.8416 249.776 33.598 249.776 34.4886V35.1662H241.971V33.7344H247.903C247.903 33.2315 247.8 32.7862 247.596 32.3984C247.391 32.0064 247.104 31.6974 246.733 31.4716C246.366 31.2457 245.936 31.1328 245.442 31.1328C244.905 31.1328 244.436 31.2649 244.036 31.5291C243.639 31.7891 243.332 32.13 243.115 32.5518C242.902 32.9695 242.795 33.4233 242.795 33.9134V35.032C242.795 35.6882 242.911 36.2464 243.141 36.7067C243.375 37.1669 243.701 37.5185 244.119 37.7614C244.536 38 245.024 38.1193 245.582 38.1193C245.945 38.1193 246.275 38.0682 246.573 37.9659C246.871 37.8594 247.129 37.7017 247.347 37.4929C247.564 37.2841 247.73 37.0263 247.845 36.7195L249.654 37.0455C249.509 37.5781 249.249 38.0447 248.874 38.4453C248.504 38.8416 248.037 39.1506 247.474 39.3722C246.916 39.5895 246.279 39.6982 245.563 39.6982ZM256.66 39.5V29.6818H258.571V39.5H256.66ZM257.625 28.1669C257.293 28.1669 257.007 28.0561 256.768 27.8345C256.534 27.6087 256.417 27.3402 256.417 27.0291C256.417 26.7138 256.534 26.4453 256.768 26.2237C257.007 25.9979 257.293 25.8849 257.625 25.8849C257.957 25.8849 258.241 25.9979 258.475 26.2237C258.714 26.4453 258.833 26.7138 258.833 27.0291C258.833 27.3402 258.714 27.6087 258.475 27.8345C258.241 28.0561 257.957 28.1669 257.625 28.1669ZM263.053 33.6705V39.5H261.142V29.6818H262.977V31.2798H263.098C263.324 30.7599 263.678 30.3423 264.159 30.027C264.645 29.7116 265.257 29.554 265.994 29.554C266.663 29.554 267.249 29.6946 267.752 29.9759C268.254 30.2528 268.644 30.6662 268.921 31.2159C269.198 31.7656 269.337 32.4453 269.337 33.255V39.5H267.426V33.4851C267.426 32.7734 267.24 32.2173 266.869 31.8168C266.499 31.4119 265.99 31.2095 265.342 31.2095C264.899 31.2095 264.504 31.3054 264.159 31.4972C263.818 31.6889 263.548 31.9702 263.347 32.3409C263.151 32.7074 263.053 33.1506 263.053 33.6705ZM7.50426 60.4283V54.6818H9.42188V64.5H7.54261V62.7997H7.44034C7.21449 63.3239 6.85227 63.7607 6.35369 64.1101C5.85938 64.4553 5.24361 64.6278 4.50639 64.6278C3.87571 64.6278 3.31747 64.4893 2.83168 64.2124C2.35014 63.9311 1.97088 63.5156 1.69389 62.9659C1.42116 62.4162 1.2848 61.7365 1.2848 60.9268V54.6818H3.19602V60.6967C3.19602 61.3658 3.38139 61.8984 3.75213 62.2947C4.12287 62.6911 4.6044 62.8892 5.19673 62.8892C5.55469 62.8892 5.91051 62.7997 6.2642 62.6207C6.62216 62.4418 6.91832 62.1712 7.1527 61.8089C7.39134 61.4467 7.50852 60.9865 7.50426 60.4283ZM13.9011 51.4091V64.5H11.9899V51.4091H13.9011ZM21.0554 54.6818V56.2159H15.6925V54.6818H21.0554ZM17.1307 52.3295H19.0419V61.6172C19.0419 61.9879 19.0973 62.267 19.2081 62.4545C19.3189 62.6378 19.4616 62.7635 19.6364 62.8317C19.8153 62.8956 20.0092 62.9276 20.218 62.9276C20.3714 62.9276 20.5057 62.9169 20.6207 62.8956C20.7358 62.8743 20.8253 62.8572 20.8892 62.8445L21.2344 64.4233C21.1236 64.4659 20.9659 64.5085 20.7614 64.5511C20.5568 64.598 20.3011 64.6236 19.9943 64.6278C19.4915 64.6364 19.0227 64.5469 18.5881 64.3594C18.1534 64.1719 17.8018 63.8821 17.5334 63.4901C17.2649 63.098 17.1307 62.6058 17.1307 62.0135V52.3295ZM23.1696 64.5V54.6818H25.0808V64.5H23.1696ZM24.1348 53.1669C23.8024 53.1669 23.5169 53.0561 23.2782 52.8345C23.0439 52.6087 22.9267 52.3402 22.9267 52.0291C22.9267 51.7138 23.0439 51.4453 23.2782 51.2237C23.5169 50.9979 23.8024 50.8849 24.1348 50.8849C24.4672 50.8849 24.7505 50.9979 24.9849 51.2237C25.2235 51.4453 25.3429 51.7138 25.3429 52.0291C25.3429 52.3402 25.2235 52.6087 24.9849 52.8345C24.7505 53.0561 24.4672 53.1669 24.1348 53.1669ZM27.652 64.5V54.6818H29.4865V56.2798H29.608C29.8125 55.7386 30.147 55.3168 30.6115 55.0142C31.076 54.7074 31.6321 54.554 32.2798 54.554C32.9361 54.554 33.4858 54.7074 33.929 55.0142C34.3764 55.321 34.7067 55.7429 34.9197 56.2798H35.022C35.2564 55.7557 35.6293 55.3381 36.1406 55.027C36.652 54.7116 37.2614 54.554 37.9688 54.554C38.8594 54.554 39.5859 54.8331 40.1484 55.3913C40.7152 55.9496 40.9986 56.7912 40.9986 57.9162V64.5H39.0874V58.0952C39.0874 57.4304 38.9063 56.9489 38.544 56.6506C38.1818 56.3523 37.7493 56.2031 37.2464 56.2031C36.6243 56.2031 36.1406 56.3949 35.7955 56.7784C35.4503 57.1577 35.2777 57.6456 35.2777 58.2422V64.5H33.3729V57.9737C33.3729 57.4411 33.2067 57.0128 32.8743 56.6889C32.5419 56.3651 32.1094 56.2031 31.5767 56.2031C31.2145 56.2031 30.88 56.299 30.5732 56.4908C30.2706 56.6783 30.0256 56.9403 29.8381 57.277C29.6548 57.6136 29.5632 58.0036 29.5632 58.4467V64.5H27.652ZM46.4174 64.7173C45.7953 64.7173 45.2328 64.6023 44.7299 64.3722C44.2271 64.1378 43.8287 63.799 43.5346 63.3558C43.2449 62.9126 43.1 62.3693 43.1 61.7259C43.1 61.1719 43.2065 60.7159 43.4196 60.358C43.6326 60 43.9203 59.7166 44.2825 59.5078C44.6447 59.299 45.0495 59.1413 45.497 59.0348C45.9444 58.9283 46.4004 58.8473 46.8649 58.7919C47.4529 58.7237 47.9302 58.6683 48.2967 58.6257C48.6632 58.5788 48.9295 58.5043 49.0957 58.402C49.2619 58.2997 49.345 58.1335 49.345 57.9034V57.8587C49.345 57.3004 49.1873 56.8679 48.872 56.5611C48.5609 56.2543 48.0964 56.1009 47.4785 56.1009C46.835 56.1009 46.3279 56.2436 45.9572 56.5291C45.5907 56.8104 45.3372 57.1236 45.1966 57.4688L43.4004 57.0597C43.6135 56.4631 43.9245 55.9815 44.3336 55.6151C44.747 55.2443 45.2221 54.9759 45.7591 54.8097C46.296 54.6392 46.8606 54.554 47.4529 54.554C47.845 54.554 48.2605 54.6009 48.6994 54.6946C49.1426 54.7841 49.5559 54.9503 49.9395 55.1932C50.3272 55.4361 50.6447 55.7834 50.8919 56.2351C51.139 56.6825 51.2626 57.2642 51.2626 57.9801V64.5H49.3961V63.1577H49.3194C49.1958 63.4048 49.0105 63.6477 48.7633 63.8864C48.5162 64.125 48.1987 64.3232 47.8109 64.4808C47.4231 64.6385 46.9586 64.7173 46.4174 64.7173ZM46.8329 63.1832C47.3613 63.1832 47.813 63.0788 48.188 62.87C48.5673 62.6612 48.8549 62.3885 49.051 62.0518C49.2512 61.7109 49.3514 61.3466 49.3514 60.9588V59.6932C49.2832 59.7614 49.1511 59.8253 48.9551 59.8849C48.7633 59.9403 48.5439 59.9893 48.2967 60.032C48.0495 60.0703 47.8088 60.1065 47.5744 60.1406C47.34 60.1705 47.144 60.196 46.9863 60.2173C46.6156 60.2642 46.2768 60.343 45.97 60.4538C45.6674 60.5646 45.4245 60.7244 45.2413 60.9332C45.0623 61.1378 44.9728 61.4105 44.9728 61.7514C44.9728 62.2244 45.1475 62.5824 45.497 62.8253C45.8464 63.0639 46.2917 63.1832 46.8329 63.1832ZM58.3913 54.6818V56.2159H53.0284V54.6818H58.3913ZM54.4666 52.3295H56.3778V61.6172C56.3778 61.9879 56.4332 62.267 56.544 62.4545C56.6548 62.6378 56.7976 62.7635 56.9723 62.8317C57.1513 62.8956 57.3452 62.9276 57.554 62.9276C57.7074 62.9276 57.8416 62.9169 57.9567 62.8956C58.0717 62.8743 58.1612 62.8572 58.2251 62.8445L58.5703 64.4233C58.4595 64.4659 58.3018 64.5085 58.0973 64.5511C57.8928 64.598 57.6371 64.6236 57.3303 64.6278C56.8274 64.6364 56.3587 64.5469 55.924 64.3594C55.4893 64.1719 55.1378 63.8821 54.8693 63.4901C54.6009 63.098 54.4666 62.6058 54.4666 62.0135V52.3295ZM64.6316 64.6982C63.6642 64.6982 62.8311 64.4915 62.1323 64.0781C61.4377 63.6605 60.9007 63.0746 60.5215 62.3203C60.1465 61.5618 59.959 60.6733 59.959 59.6548C59.959 58.6491 60.1465 57.7628 60.5215 56.9957C60.9007 56.2287 61.4292 55.63 62.1067 55.1996C62.7885 54.7692 63.5854 54.554 64.4973 54.554C65.0513 54.554 65.5882 54.6456 66.1081 54.8288C66.628 55.0121 67.0946 55.2997 67.508 55.6918C67.9213 56.0838 68.2473 56.593 68.486 57.2195C68.7246 57.8416 68.8439 58.598 68.8439 59.4886V60.1662H61.0392V58.7344H66.9711C66.9711 58.2315 66.8688 57.7862 66.6642 57.3984C66.4597 57.0064 66.1721 56.6974 65.8013 56.4716C65.4348 56.2457 65.0044 56.1328 64.5101 56.1328C63.9732 56.1328 63.5044 56.2649 63.1039 56.5291C62.7076 56.7891 62.4007 57.13 62.1834 57.5518C61.9703 57.9695 61.8638 58.4233 61.8638 58.9134V60.032C61.8638 60.6882 61.9789 61.2464 62.209 61.7067C62.4434 62.1669 62.7694 62.5185 63.187 62.7614C63.6046 63 64.0925 63.1193 64.6507 63.1193C65.013 63.1193 65.3432 63.0682 65.6415 62.9659C65.9398 62.8594 66.1976 62.7017 66.415 62.4929C66.6323 62.2841 66.7985 62.0263 66.9135 61.7195L68.7225 62.0455C68.5776 62.5781 68.3176 63.0447 67.9426 63.4453C67.5719 63.8416 67.1053 64.1506 66.5428 64.3722C65.9846 64.5895 65.3475 64.6982 64.6316 64.6982ZM79.8638 64.6982C78.9135 64.6982 78.0953 64.483 77.4093 64.0526C76.7275 63.6179 76.2033 63.0192 75.8368 62.2564C75.4703 61.4936 75.2871 60.62 75.2871 59.6357C75.2871 58.6385 75.4746 57.7585 75.8496 56.9957C76.2246 56.2287 76.753 55.63 77.4348 55.1996C78.1167 54.7692 78.9199 54.554 79.8446 54.554C80.5904 54.554 81.2551 54.6925 81.839 54.9695C82.4228 55.2422 82.8936 55.6257 83.2516 56.12C83.6138 56.6143 83.829 57.1918 83.8972 57.8523H82.0371C81.9348 57.392 81.7005 56.9957 81.334 56.6634C80.9718 56.331 80.486 56.1648 79.8766 56.1648C79.3439 56.1648 78.8773 56.3054 78.4767 56.5866C78.0804 56.8636 77.7715 57.2599 77.5499 57.7756C77.3283 58.2869 77.2175 58.892 77.2175 59.5909C77.2175 60.3068 77.3262 60.9247 77.5435 61.4446C77.7608 61.9645 78.0676 62.3672 78.464 62.6527C78.8645 62.9382 79.3354 63.081 79.8766 63.081C80.2388 63.081 80.5669 63.0149 80.861 62.8828C81.1593 62.7464 81.4086 62.5526 81.6088 62.3011C81.8134 62.0497 81.9561 61.7472 82.0371 61.3935H83.8972C83.829 62.0284 83.6223 62.5952 83.2772 63.0938C82.932 63.5923 82.4696 63.9844 81.8901 64.2699C81.3148 64.5554 80.6394 64.6982 79.8638 64.6982ZM90.0767 64.6982C89.1563 64.6982 88.353 64.4872 87.6669 64.0653C86.9808 63.6435 86.4482 63.0533 86.0689 62.2947C85.6896 61.5362 85.5 60.6499 85.5 59.6357C85.5 58.6172 85.6896 57.7266 86.0689 56.9638C86.4482 56.201 86.9808 55.6087 87.6669 55.1868C88.353 54.7649 89.1563 54.554 90.0767 54.554C90.9972 54.554 91.8004 54.7649 92.4865 55.1868C93.1726 55.6087 93.7053 56.201 94.0845 56.9638C94.4638 57.7266 94.6534 58.6172 94.6534 59.6357C94.6534 60.6499 94.4638 61.5362 94.0845 62.2947C93.7053 63.0533 93.1726 63.6435 92.4865 64.0653C91.8004 64.4872 90.9972 64.6982 90.0767 64.6982ZM90.0831 63.0938C90.6797 63.0938 91.174 62.9361 91.5661 62.6207C91.9581 62.3054 92.2479 61.8857 92.4354 61.3615C92.6271 60.8374 92.723 60.2599 92.723 59.6293C92.723 59.0028 92.6271 58.4276 92.4354 57.9034C92.2479 57.375 91.9581 56.951 91.5661 56.6314C91.174 56.3118 90.6797 56.152 90.0831 56.152C89.4822 56.152 88.9837 56.3118 88.5874 56.6314C88.1953 56.951 87.9034 57.375 87.7116 57.9034C87.5241 58.4276 87.4304 59.0028 87.4304 59.6293C87.4304 60.2599 87.5241 60.8374 87.7116 61.3615C87.9034 61.8857 88.1953 62.3054 88.5874 62.6207C88.9837 62.9361 89.4822 63.0938 90.0831 63.0938ZM96.7868 64.5V54.6818H98.6213V56.2798H98.7427C98.9473 55.7386 99.2818 55.3168 99.7463 55.0142C100.211 54.7074 100.767 54.554 101.415 54.554C102.071 54.554 102.621 54.7074 103.064 55.0142C103.511 55.321 103.841 55.7429 104.055 56.2798H104.157C104.391 55.7557 104.764 55.3381 105.275 55.027C105.787 54.7116 106.396 54.554 107.104 54.554C107.994 54.554 108.721 54.8331 109.283 55.3913C109.85 55.9496 110.133 56.7912 110.133 57.9162V64.5H108.222V58.0952C108.222 57.4304 108.041 56.9489 107.679 56.6506C107.317 56.3523 106.884 56.2031 106.381 56.2031C105.759 56.2031 105.275 56.3949 104.93 56.7784C104.585 57.1577 104.412 57.6456 104.412 58.2422V64.5H102.508V57.9737C102.508 57.4411 102.341 57.0128 102.009 56.6889C101.677 56.3651 101.244 56.2031 100.711 56.2031C100.349 56.2031 100.015 56.299 99.7079 56.4908C99.4054 56.6783 99.1603 56.9403 98.9728 57.277C98.7896 57.6136 98.698 58.0036 98.698 58.4467V64.5H96.7868ZM117.368 54.6818V56.2159H111.819V54.6818H117.368ZM113.341 64.5V53.544C113.341 52.9304 113.475 52.4212 113.743 52.0163C114.012 51.6072 114.368 51.3026 114.811 51.1023C115.254 50.8977 115.735 50.7955 116.255 50.7955C116.639 50.7955 116.967 50.8274 117.24 50.8913C117.512 50.951 117.715 51.0064 117.847 51.0575L117.4 52.6044C117.31 52.5788 117.195 52.549 117.054 52.5149C116.914 52.4766 116.743 52.4574 116.543 52.4574C116.078 52.4574 115.746 52.5724 115.546 52.8026C115.35 53.0327 115.252 53.3651 115.252 53.7997V64.5H113.341ZM123.088 64.6982C122.168 64.6982 121.365 64.4872 120.679 64.0653C119.993 63.6435 119.46 63.0533 119.081 62.2947C118.701 61.5362 118.512 60.6499 118.512 59.6357C118.512 58.6172 118.701 57.7266 119.081 56.9638C119.46 56.201 119.993 55.6087 120.679 55.1868C121.365 54.7649 122.168 54.554 123.088 54.554C124.009 54.554 124.812 54.7649 125.498 55.1868C126.184 55.6087 126.717 56.201 127.096 56.9638C127.475 57.7266 127.665 58.6172 127.665 59.6357C127.665 60.6499 127.475 61.5362 127.096 62.2947C126.717 63.0533 126.184 63.6435 125.498 64.0653C124.812 64.4872 124.009 64.6982 123.088 64.6982ZM123.095 63.0938C123.691 63.0938 124.186 62.9361 124.578 62.6207C124.97 62.3054 125.26 61.8857 125.447 61.3615C125.639 60.8374 125.735 60.2599 125.735 59.6293C125.735 59.0028 125.639 58.4276 125.447 57.9034C125.26 57.375 124.97 56.951 124.578 56.6314C124.186 56.3118 123.691 56.152 123.095 56.152C122.494 56.152 121.995 56.3118 121.599 56.6314C121.207 56.951 120.915 57.375 120.723 57.9034C120.536 58.4276 120.442 59.0028 120.442 59.6293C120.442 60.2599 120.536 60.8374 120.723 61.3615C120.915 61.8857 121.207 62.3054 121.599 62.6207C121.995 62.9361 122.494 63.0938 123.095 63.0938ZM129.798 64.5V54.6818H131.646V56.2415H131.748C131.927 55.7131 132.242 55.2976 132.694 54.995C133.15 54.6882 133.666 54.5348 134.241 54.5348C134.36 54.5348 134.501 54.5391 134.663 54.5476C134.829 54.5561 134.959 54.5668 135.053 54.5795V56.4077C134.976 56.3864 134.84 56.3629 134.644 56.3374C134.448 56.3075 134.252 56.2926 134.056 56.2926C133.604 56.2926 133.201 56.3885 132.847 56.5803C132.498 56.7678 132.221 57.0298 132.017 57.3665C131.812 57.6989 131.71 58.0781 131.71 58.5043V64.5H129.798ZM141.87 54.6818V56.2159H136.507V54.6818H141.87ZM137.945 52.3295H139.856V61.6172C139.856 61.9879 139.912 62.267 140.023 62.4545C140.133 62.6378 140.276 62.7635 140.451 62.8317C140.63 62.8956 140.824 62.9276 141.032 62.9276C141.186 62.9276 141.32 62.9169 141.435 62.8956C141.55 62.8743 141.64 62.8572 141.704 62.8445L142.049 64.4233C141.938 64.4659 141.78 64.5085 141.576 64.5511C141.371 64.598 141.116 64.6236 140.809 64.6278C140.306 64.6364 139.837 64.5469 139.403 64.3594C138.968 64.1719 138.616 63.8821 138.348 63.4901C138.079 63.098 137.945 62.6058 137.945 62.0135V52.3295ZM146.119 51.4091V52.6364C146.119 52.9986 146.051 53.38 145.914 53.7805C145.782 54.1768 145.595 54.5582 145.352 54.9247C145.109 55.2912 144.824 55.6065 144.495 55.8707L143.549 55.1932C143.801 54.8267 144.018 54.4368 144.201 54.0234C144.389 53.6101 144.483 53.1541 144.483 52.6555V51.4091H146.119ZM149.373 51.4091V52.6364C149.373 52.9986 149.304 53.38 149.168 53.7805C149.036 54.1768 148.848 54.5582 148.605 54.9247C148.363 55.2912 148.077 55.6065 147.749 55.8707L146.803 55.1932C147.054 54.8267 147.272 54.4368 147.455 54.0234C147.642 53.6101 147.736 53.1541 147.736 52.6555V51.4091H149.373Z" fill="black"/>
</svg>
