<svg width="323" height="20" viewBox="0 0 323 20" fill="none" xmlns="http://www.w3.org/2000/svg">
<path d="M20 7.52699V9.92756H0V7.52699H20ZM34.738 6.15625C34.6386 5.81061 34.4989 5.50521 34.319 5.24006C34.139 4.97017 33.9189 4.7429 33.6585 4.55824C33.4028 4.36884 33.1092 4.22443 32.7778 4.125C32.4511 4.02557 32.0889 3.97585 31.6911 3.97585C30.9478 3.97585 30.2943 4.16051 29.7309 4.52983C29.1722 4.89915 28.7366 5.43655 28.4241 6.14205C28.1116 6.8428 27.9553 7.69981 27.9553 8.71307C27.9553 9.72633 28.1092 10.5881 28.417 11.2983C28.7247 12.0085 29.1603 12.5507 29.7238 12.9247C30.2872 13.294 30.9525 13.4787 31.7195 13.4787C32.4156 13.4787 33.0098 13.3556 33.5022 13.1094C33.9994 12.8584 34.3782 12.5057 34.6386 12.0511C34.9037 11.5966 35.0363 11.0592 35.0363 10.4389L35.6613 10.5312H31.9113V8.21591H37.9979V10.0483C37.9979 11.3267 37.7281 12.4252 37.1883 13.3438C36.6485 14.2576 35.9051 14.9631 34.9582 15.4602C34.0112 15.9527 32.9269 16.1989 31.7053 16.1989C30.3417 16.1989 29.1438 15.8982 28.1116 15.2969C27.0794 14.6908 26.2745 13.8314 25.6968 12.7188C25.1239 11.6013 24.8374 10.2756 24.8374 8.74148C24.8374 7.5625 25.0079 6.51136 25.3488 5.58807C25.6944 4.66004 26.1774 3.87405 26.7977 3.23011C27.4179 2.58617 28.14 2.09612 28.9639 1.75994C29.7877 1.42377 30.6802 1.25568 31.6414 1.25568C32.4653 1.25568 33.2323 1.37642 33.9425 1.6179C34.6528 1.85464 35.2825 2.19081 35.8317 2.62642C36.3857 3.06203 36.8379 3.58049 37.1883 4.18182C37.5387 4.77841 37.7636 5.43655 37.863 6.15625H34.738ZM46.8469 11.3551V5.09091H49.8724V16H46.9676V14.0185H46.854C46.6078 14.6577 46.1982 15.1714 45.6253 15.5597C45.0571 15.9479 44.3634 16.142 43.5443 16.142C42.8152 16.142 42.1736 15.9763 41.6196 15.6449C41.0656 15.3134 40.6324 14.8423 40.3199 14.2315C40.0121 13.6207 39.8559 12.8892 39.8511 12.0369V5.09091H42.8767V11.4972C42.8814 12.1411 43.0543 12.6501 43.3952 13.0241C43.7361 13.3982 44.193 13.5852 44.7659 13.5852C45.1305 13.5852 45.4714 13.5024 45.7886 13.3366C46.1059 13.1662 46.3616 12.9152 46.5557 12.5838C46.7545 12.2524 46.8516 11.8428 46.8469 11.3551ZM56.8641 16.2131C55.742 16.2131 54.7761 15.9858 53.9664 15.5312C53.1615 15.072 52.5412 14.4233 52.1056 13.5852C51.67 12.7424 51.4522 11.7457 51.4522 10.5952C51.4522 9.47301 51.67 8.48816 52.1056 7.64062C52.5412 6.79309 53.1544 6.13258 53.9451 5.65909C54.7406 5.18561 55.6733 4.94886 56.7434 4.94886C57.4631 4.94886 58.1331 5.06487 58.7533 5.29688C59.3783 5.52415 59.9228 5.86742 60.3869 6.3267C60.8556 6.78598 61.2202 7.36364 61.4806 8.05966C61.741 8.75095 61.8712 9.56061 61.8712 10.4886V11.3196H52.6596V9.4446H59.0232C59.0232 9.009 58.9285 8.62311 58.7391 8.28693C58.5497 7.95076 58.287 7.68797 57.9508 7.49858C57.6193 7.30445 57.2335 7.20739 56.7931 7.20739C56.3338 7.20739 55.9266 7.31392 55.5715 7.52699C55.2211 7.73532 54.9465 8.01705 54.7477 8.37216C54.5488 8.72254 54.447 9.11316 54.4423 9.54403V11.3267C54.4423 11.8665 54.5417 12.3329 54.7406 12.7259C54.9442 13.1188 55.2306 13.4219 55.5999 13.6349C55.9692 13.848 56.4072 13.9545 56.9139 13.9545C57.25 13.9545 57.5578 13.9072 57.8371 13.8125C58.1165 13.7178 58.3556 13.5758 58.5545 13.3864C58.7533 13.197 58.9049 12.965 59.009 12.6903L61.8073 12.875C61.6653 13.5473 61.3741 14.1345 60.9337 14.6364C60.4981 15.1335 59.9347 15.5218 59.2434 15.8011C58.5568 16.0758 57.7638 16.2131 56.8641 16.2131ZM63.4457 16V5.09091H66.3789V6.99432H66.4925C66.6914 6.31723 67.0252 5.80587 67.494 5.46023C67.9627 5.10985 68.5025 4.93466 69.1133 4.93466C69.2648 4.93466 69.4281 4.94413 69.6033 4.96307C69.7785 4.98201 69.9324 5.00805 70.065 5.04119V7.72585C69.9229 7.68324 69.7264 7.64536 69.4755 7.61222C69.2246 7.57907 68.9949 7.5625 68.7866 7.5625C68.3415 7.5625 67.9438 7.65956 67.5934 7.85369C67.2478 8.04309 66.9731 8.30824 66.7695 8.64915C66.5707 8.99006 66.4712 9.38305 66.4712 9.82812V16H63.4457ZM74.0276 16.206C73.3315 16.206 72.7113 16.0852 72.1668 15.8438C71.6223 15.5975 71.1914 15.2353 70.8741 14.7571C70.5616 14.2741 70.4054 13.6728 70.4054 12.9531C70.4054 12.3471 70.5167 11.8381 70.7392 11.4261C70.9617 11.0142 71.2648 10.6828 71.6483 10.4318C72.0318 10.1809 72.4674 9.99148 72.9551 9.86364C73.4475 9.7358 73.9636 9.64583 74.5034 9.59375C75.1379 9.52746 75.6492 9.46591 76.0375 9.40909C76.4258 9.34754 76.7075 9.25758 76.8827 9.1392C77.0579 9.02083 77.1455 8.84564 77.1455 8.61364V8.57102C77.1455 8.12121 77.0034 7.7732 76.7193 7.52699C76.44 7.28078 76.0422 7.15767 75.5261 7.15767C74.9816 7.15767 74.5484 7.27841 74.2264 7.51989C73.9044 7.75663 73.6914 8.05492 73.5872 8.41477L70.7889 8.1875C70.931 7.52462 71.2103 6.9517 71.627 6.46875C72.0437 5.98106 72.5811 5.60701 73.2392 5.34659C73.9021 5.08144 74.6691 4.94886 75.5403 4.94886C76.1464 4.94886 76.7264 5.01989 77.2804 5.16193C77.8391 5.30398 78.3339 5.52415 78.7648 5.82244C79.2004 6.12074 79.5437 6.50426 79.7946 6.97301C80.0455 7.43703 80.171 7.99337 80.171 8.64205V16H77.3017V14.4872H77.2165C77.0413 14.8281 76.8069 15.1288 76.5134 15.3892C76.2198 15.6449 75.867 15.8461 75.4551 15.9929C75.0432 16.1349 74.5673 16.206 74.0276 16.206ZM74.894 14.1179C75.3391 14.1179 75.7321 14.0303 76.073 13.8551C76.4139 13.6752 76.6814 13.4337 76.8756 13.1307C77.0697 12.8277 77.1668 12.4844 77.1668 12.1009V10.9432C77.0721 11.0047 76.9419 11.0616 76.7761 11.1136C76.6152 11.161 76.4329 11.206 76.2293 11.2486C76.0257 11.2865 75.8221 11.322 75.6185 11.3551C75.4149 11.3835 75.2302 11.4096 75.0645 11.4332C74.7094 11.4853 74.3992 11.5682 74.1341 11.6818C73.8689 11.7955 73.663 11.9493 73.5162 12.1435C73.3694 12.3329 73.296 12.5696 73.296 12.8537C73.296 13.2656 73.4452 13.5805 73.7435 13.7983C74.0465 14.0114 74.43 14.1179 74.894 14.1179ZM86.4041 16V1.45455H89.4793V13.4645H95.7151V16H86.4041ZM100.406 16.206C99.7097 16.206 99.0894 16.0852 98.5449 15.8438C98.0004 15.5975 97.5695 15.2353 97.2523 14.7571C96.9398 14.2741 96.7835 13.6728 96.7835 12.9531C96.7835 12.3471 96.8948 11.8381 97.1173 11.4261C97.3399 11.0142 97.6429 10.6828 98.0264 10.4318C98.4099 10.1809 98.8456 9.99148 99.3332 9.86364C99.8257 9.7358 100.342 9.64583 100.882 9.59375C101.516 9.52746 102.027 9.46591 102.416 9.40909C102.804 9.34754 103.086 9.25758 103.261 9.1392C103.436 9.02083 103.524 8.84564 103.524 8.61364V8.57102C103.524 8.12121 103.382 7.7732 103.097 7.52699C102.818 7.28078 102.42 7.15767 101.904 7.15767C101.36 7.15767 100.927 7.27841 100.605 7.51989C100.283 7.75663 100.07 8.05492 99.9653 8.41477L97.167 8.1875C97.3091 7.52462 97.5884 6.9517 98.0051 6.46875C98.4218 5.98106 98.9592 5.60701 99.6173 5.34659C100.28 5.08144 101.047 4.94886 101.918 4.94886C102.525 4.94886 103.105 5.01989 103.659 5.16193C104.217 5.30398 104.712 5.52415 105.143 5.82244C105.579 6.12074 105.922 6.50426 106.173 6.97301C106.424 7.43703 106.549 7.99337 106.549 8.64205V16H103.68V14.4872H103.595C103.419 14.8281 103.185 15.1288 102.891 15.3892C102.598 15.6449 102.245 15.8461 101.833 15.9929C101.421 16.1349 100.945 16.206 100.406 16.206ZM101.272 14.1179C101.717 14.1179 102.11 14.0303 102.451 13.8551C102.792 13.6752 103.06 13.4337 103.254 13.1307C103.448 12.8277 103.545 12.4844 103.545 12.1009V10.9432C103.45 11.0047 103.32 11.0616 103.154 11.1136C102.993 11.161 102.811 11.206 102.607 11.2486C102.404 11.2865 102.2 11.322 101.997 11.3551C101.793 11.3835 101.608 11.4096 101.443 11.4332C101.088 11.4853 100.777 11.5682 100.512 11.6818C100.247 11.7955 100.041 11.9493 99.8943 12.1435C99.7475 12.3329 99.6741 12.5696 99.6741 12.8537C99.6741 13.2656 99.8233 13.5805 100.122 13.7983C100.425 14.0114 100.808 14.1179 101.272 14.1179ZM114.299 5.09091V7.36364H107.729V5.09091H114.299ZM109.221 2.47727H112.246V12.6477C112.246 12.9271 112.289 13.1449 112.374 13.3011C112.46 13.4527 112.578 13.5592 112.729 13.6207C112.886 13.6823 113.066 13.7131 113.269 13.7131C113.411 13.7131 113.553 13.7012 113.695 13.6776C113.837 13.6491 113.946 13.6278 114.022 13.6136L114.498 15.8651C114.346 15.9124 114.133 15.9669 113.859 16.0284C113.584 16.0947 113.25 16.1349 112.857 16.1491C112.128 16.1776 111.489 16.0805 110.94 15.858C110.395 15.6354 109.971 15.2898 109.668 14.821C109.365 14.3523 109.216 13.7604 109.221 13.0455V2.47727ZM115.87 16V5.09091H118.895V16H115.87ZM117.39 3.68466C116.94 3.68466 116.554 3.53551 116.232 3.23722C115.915 2.93419 115.756 2.57197 115.756 2.15057C115.756 1.7339 115.915 1.37642 116.232 1.07812C116.554 0.775094 116.94 0.623579 117.39 0.623579C117.84 0.623579 118.223 0.775094 118.54 1.07812C118.862 1.37642 119.023 1.7339 119.023 2.15057C119.023 2.57197 118.862 2.93419 118.54 3.23722C118.223 3.53551 117.84 3.68466 117.39 3.68466ZM129.996 8.2017L127.226 8.37216C127.179 8.13542 127.077 7.92235 126.921 7.73295C126.764 7.53883 126.558 7.38494 126.303 7.27131C126.052 7.15294 125.751 7.09375 125.401 7.09375C124.932 7.09375 124.537 7.19318 124.215 7.39205C123.893 7.58617 123.732 7.84659 123.732 8.1733C123.732 8.43371 123.836 8.65388 124.044 8.83381C124.252 9.01373 124.61 9.15814 125.117 9.26705L127.091 9.66477C128.152 9.88258 128.942 10.233 129.463 10.7159C129.984 11.1989 130.244 11.8333 130.244 12.6193C130.244 13.3343 130.034 13.9616 129.612 14.5014C129.196 15.0412 128.623 15.4626 127.894 15.7656C127.169 16.0639 126.333 16.2131 125.386 16.2131C123.942 16.2131 122.792 15.9124 121.935 15.3111C121.082 14.705 120.583 13.8812 120.436 12.8395L123.412 12.6832C123.502 13.1236 123.72 13.4598 124.065 13.6918C124.411 13.919 124.854 14.0327 125.394 14.0327C125.924 14.0327 126.35 13.9309 126.672 13.7273C126.999 13.5189 127.164 13.2514 127.169 12.9247C127.164 12.6501 127.048 12.4252 126.821 12.25C126.594 12.0701 126.243 11.9328 125.77 11.8381L123.881 11.4616C122.815 11.2486 122.022 10.8793 121.501 10.3537C120.985 9.82812 120.727 9.15814 120.727 8.34375C120.727 7.64299 120.917 7.0393 121.296 6.53267C121.679 6.02604 122.216 5.63542 122.908 5.3608C123.604 5.08617 124.418 4.94886 125.351 4.94886C126.729 4.94886 127.813 5.24006 128.604 5.82244C129.399 6.40483 129.863 7.19792 129.996 8.2017ZM140.826 8.2017L138.056 8.37216C138.009 8.13542 137.907 7.92235 137.751 7.73295C137.595 7.53883 137.389 7.38494 137.133 7.27131C136.882 7.15294 136.581 7.09375 136.231 7.09375C135.762 7.09375 135.367 7.19318 135.045 7.39205C134.723 7.58617 134.562 7.84659 134.562 8.1733C134.562 8.43371 134.666 8.65388 134.875 8.83381C135.083 9.01373 135.44 9.15814 135.947 9.26705L137.921 9.66477C138.982 9.88258 139.773 10.233 140.294 10.7159C140.814 11.1989 141.075 11.8333 141.075 12.6193C141.075 13.3343 140.864 13.9616 140.443 14.5014C140.026 15.0412 139.453 15.4626 138.724 15.7656C138 16.0639 137.164 16.2131 136.217 16.2131C134.773 16.2131 133.622 15.9124 132.765 15.3111C131.913 14.705 131.413 13.8812 131.267 12.8395L134.242 12.6832C134.332 13.1236 134.55 13.4598 134.896 13.6918C135.242 13.919 135.684 14.0327 136.224 14.0327C136.754 14.0327 137.18 13.9309 137.502 13.7273C137.829 13.5189 137.995 13.2514 138 12.9247C137.995 12.6501 137.879 12.4252 137.652 12.25C137.424 12.0701 137.074 11.9328 136.6 11.8381L134.711 11.4616C133.646 11.2486 132.853 10.8793 132.332 10.3537C131.816 9.82812 131.558 9.15814 131.558 8.34375C131.558 7.64299 131.747 7.0393 132.126 6.53267C132.51 6.02604 133.047 5.63542 133.738 5.3608C134.434 5.08617 135.249 4.94886 136.181 4.94886C137.559 4.94886 138.644 5.24006 139.434 5.82244C140.23 6.40483 140.694 7.19792 140.826 8.2017ZM145.691 16.206C144.995 16.206 144.375 16.0852 143.83 15.8438C143.286 15.5975 142.855 15.2353 142.537 14.7571C142.225 14.2741 142.069 13.6728 142.069 12.9531C142.069 12.3471 142.18 11.8381 142.402 11.4261C142.625 11.0142 142.928 10.6828 143.312 10.4318C143.695 10.1809 144.131 9.99148 144.618 9.86364C145.111 9.7358 145.627 9.64583 146.167 9.59375C146.801 9.52746 147.313 9.46591 147.701 9.40909C148.089 9.34754 148.371 9.25758 148.546 9.1392C148.721 9.02083 148.809 8.84564 148.809 8.61364V8.57102C148.809 8.12121 148.667 7.7732 148.383 7.52699C148.103 7.28078 147.706 7.15767 147.189 7.15767C146.645 7.15767 146.212 7.27841 145.89 7.51989C145.568 7.75663 145.355 8.05492 145.25 8.41477L142.452 8.1875C142.594 7.52462 142.874 6.9517 143.29 6.46875C143.707 5.98106 144.244 5.60701 144.902 5.34659C145.565 5.08144 146.332 4.94886 147.204 4.94886C147.81 4.94886 148.39 5.01989 148.944 5.16193C149.502 5.30398 149.997 5.52415 150.428 5.82244C150.864 6.12074 151.207 6.50426 151.458 6.97301C151.709 7.43703 151.834 7.99337 151.834 8.64205V16H148.965V14.4872H148.88C148.705 14.8281 148.47 15.1288 148.177 15.3892C147.883 15.6449 147.53 15.8461 147.118 15.9929C146.706 16.1349 146.231 16.206 145.691 16.206ZM146.557 14.1179C147.002 14.1179 147.395 14.0303 147.736 13.8551C148.077 13.6752 148.345 13.4337 148.539 13.1307C148.733 12.8277 148.83 12.4844 148.83 12.1009V10.9432C148.735 11.0047 148.605 11.0616 148.439 11.1136C148.278 11.161 148.096 11.206 147.893 11.2486C147.689 11.2865 147.485 11.322 147.282 11.3551C147.078 11.3835 146.893 11.4096 146.728 11.4332C146.373 11.4853 146.063 11.5682 145.797 11.6818C145.532 11.7955 145.326 11.9493 145.179 12.1435C145.033 12.3329 144.959 12.5696 144.959 12.8537C144.959 13.2656 145.108 13.5805 145.407 13.7983C145.71 14.0114 146.093 14.1179 146.557 14.1179ZM157.056 14.0114L156.978 14.7926C156.916 15.4176 156.798 16.0402 156.623 16.6605C156.452 17.2855 156.272 17.8513 156.083 18.358C155.898 18.8646 155.749 19.2623 155.635 19.5511H153.675C153.746 19.2718 153.843 18.8812 153.966 18.3793C154.089 17.8821 154.205 17.3234 154.314 16.7031C154.423 16.0829 154.492 15.4508 154.52 14.8068L154.556 14.0114H157.056ZM176.478 6.54688H173.367C173.31 6.14441 173.194 5.78693 173.019 5.47443C172.844 5.1572 172.619 4.88731 172.344 4.66477C172.07 4.44223 171.752 4.27178 171.392 4.15341C171.037 4.03504 170.651 3.97585 170.235 3.97585C169.482 3.97585 168.826 4.16288 168.267 4.53693C167.709 4.90625 167.276 5.44602 166.968 6.15625C166.66 6.86174 166.506 7.71875 166.506 8.72727C166.506 9.7642 166.66 10.6354 166.968 11.3409C167.28 12.0464 167.716 12.5791 168.275 12.9389C168.833 13.2988 169.48 13.4787 170.213 13.4787C170.625 13.4787 171.007 13.4242 171.357 13.3153C171.712 13.2064 172.027 13.0478 172.302 12.8395C172.576 12.6264 172.803 12.3684 172.983 12.0653C173.168 11.7623 173.296 11.4167 173.367 11.0284L176.478 11.0426C176.397 11.7102 176.196 12.3542 175.874 12.9744C175.557 13.59 175.128 14.1416 174.588 14.6293C174.053 15.1122 173.414 15.4957 172.671 15.7798C171.932 16.0592 171.097 16.1989 170.164 16.1989C168.866 16.1989 167.706 15.9053 166.684 15.3182C165.666 14.7311 164.861 13.8812 164.269 12.7685C163.682 11.6558 163.388 10.3087 163.388 8.72727C163.388 7.1411 163.687 5.79167 164.283 4.67898C164.88 3.56629 165.689 2.71875 166.712 2.13636C167.735 1.54924 168.885 1.25568 170.164 1.25568C171.007 1.25568 171.788 1.37405 172.508 1.6108C173.232 1.84754 173.874 2.19318 174.432 2.64773C174.991 3.09754 175.445 3.64915 175.796 4.30256C176.151 4.95597 176.378 5.70407 176.478 6.54688ZM178.226 16V5.09091H181.159V6.99432H181.273C181.472 6.31723 181.806 5.80587 182.274 5.46023C182.743 5.10985 183.283 4.93466 183.894 4.93466C184.045 4.93466 184.209 4.94413 184.384 4.96307C184.559 4.98201 184.713 5.00805 184.845 5.04119V7.72585C184.703 7.68324 184.507 7.64536 184.256 7.61222C184.005 7.57907 183.775 7.5625 183.567 7.5625C183.122 7.5625 182.724 7.65956 182.374 7.85369C182.028 8.04309 181.754 8.30824 181.55 8.64915C181.351 8.99006 181.252 9.38305 181.252 9.82812V16H178.226ZM190.474 16.2131C189.351 16.2131 188.385 15.9858 187.576 15.5312C186.771 15.072 186.151 14.4233 185.715 13.5852C185.279 12.7424 185.062 11.7457 185.062 10.5952C185.062 9.47301 185.279 8.48816 185.715 7.64062C186.151 6.79309 186.764 6.13258 187.554 5.65909C188.35 5.18561 189.283 4.94886 190.353 4.94886C191.072 4.94886 191.742 5.06487 192.363 5.29688C192.988 5.52415 193.532 5.86742 193.996 6.3267C194.465 6.78598 194.83 7.36364 195.09 8.05966C195.35 8.75095 195.481 9.56061 195.481 10.4886V11.3196H186.269V9.4446H192.633C192.633 9.009 192.538 8.62311 192.349 8.28693C192.159 7.95076 191.896 7.68797 191.56 7.49858C191.229 7.30445 190.843 7.20739 190.402 7.20739C189.943 7.20739 189.536 7.31392 189.181 7.52699C188.831 7.73532 188.556 8.01705 188.357 8.37216C188.158 8.72254 188.056 9.11316 188.052 9.54403V11.3267C188.052 11.8665 188.151 12.3329 188.35 12.7259C188.554 13.1188 188.84 13.4219 189.209 13.6349C189.579 13.848 190.017 13.9545 190.523 13.9545C190.859 13.9545 191.167 13.9072 191.447 13.8125C191.726 13.7178 191.965 13.5758 192.164 13.3864C192.363 13.197 192.514 12.965 192.618 12.6903L195.417 12.875C195.275 13.5473 194.983 14.1345 194.543 14.6364C194.107 15.1335 193.544 15.5218 192.853 15.8011C192.166 16.0758 191.373 16.2131 190.474 16.2131ZM200.166 16.206C199.47 16.206 198.85 16.0852 198.305 15.8438C197.761 15.5975 197.33 15.2353 197.012 14.7571C196.7 14.2741 196.544 13.6728 196.544 12.9531C196.544 12.3471 196.655 11.8381 196.877 11.4261C197.1 11.0142 197.403 10.6828 197.787 10.4318C198.17 10.1809 198.606 9.99148 199.093 9.86364C199.586 9.7358 200.102 9.64583 200.642 9.59375C201.276 9.52746 201.788 9.46591 202.176 9.40909C202.564 9.34754 202.846 9.25758 203.021 9.1392C203.196 9.02083 203.284 8.84564 203.284 8.61364V8.57102C203.284 8.12121 203.142 7.7732 202.858 7.52699C202.578 7.28078 202.181 7.15767 201.664 7.15767C201.12 7.15767 200.687 7.27841 200.365 7.51989C200.043 7.75663 199.83 8.05492 199.725 8.41477L196.927 8.1875C197.069 7.52462 197.349 6.9517 197.765 6.46875C198.182 5.98106 198.719 5.60701 199.377 5.34659C200.04 5.08144 200.807 4.94886 201.679 4.94886C202.285 4.94886 202.865 5.01989 203.419 5.16193C203.977 5.30398 204.472 5.52415 204.903 5.82244C205.339 6.12074 205.682 6.50426 205.933 6.97301C206.184 7.43703 206.309 7.99337 206.309 8.64205V16H203.44V14.4872H203.355C203.18 14.8281 202.945 15.1288 202.652 15.3892C202.358 15.6449 202.005 15.8461 201.593 15.9929C201.181 16.1349 200.706 16.206 200.166 16.206ZM201.032 14.1179C201.477 14.1179 201.87 14.0303 202.211 13.8551C202.552 13.6752 202.82 13.4337 203.014 13.1307C203.208 12.8277 203.305 12.4844 203.305 12.1009V10.9432C203.21 11.0047 203.08 11.0616 202.914 11.1136C202.753 11.161 202.571 11.206 202.368 11.2486C202.164 11.2865 201.96 11.322 201.757 11.3551C201.553 11.3835 201.368 11.4096 201.203 11.4332C200.848 11.4853 200.538 11.5682 200.272 11.6818C200.007 11.7955 199.801 11.9493 199.654 12.1435C199.508 12.3329 199.434 12.5696 199.434 12.8537C199.434 13.2656 199.583 13.5805 199.882 13.7983C200.185 14.0114 200.568 14.1179 201.032 14.1179ZM214.059 5.09091V7.36364H207.49V5.09091H214.059ZM208.981 2.47727H212.007V12.6477C212.007 12.9271 212.049 13.1449 212.134 13.3011C212.22 13.4527 212.338 13.5592 212.49 13.6207C212.646 13.6823 212.826 13.7131 213.029 13.7131C213.171 13.7131 213.313 13.7012 213.455 13.6776C213.598 13.6491 213.706 13.6278 213.782 13.6136L214.258 15.8651C214.107 15.9124 213.893 15.9669 213.619 16.0284C213.344 16.0947 213.01 16.1349 212.617 16.1491C211.888 16.1776 211.249 16.0805 210.7 15.858C210.155 15.6354 209.732 15.2898 209.428 14.821C209.125 14.3523 208.976 13.7604 208.981 13.0455V2.47727ZM215.63 16V5.09091H218.656V16H215.63ZM217.15 3.68466C216.7 3.68466 216.314 3.53551 215.992 3.23722C215.675 2.93419 215.516 2.57197 215.516 2.15057C215.516 1.7339 215.675 1.37642 215.992 1.07812C216.314 0.775094 216.7 0.623579 217.15 0.623579C217.6 0.623579 217.983 0.775094 218.3 1.07812C218.622 1.37642 218.783 1.7339 218.783 2.15057C218.783 2.57197 218.622 2.93419 218.3 3.23722C217.983 3.53551 217.6 3.68466 217.15 3.68466ZM230.85 5.09091L227.036 16H223.627L219.813 5.09091H223.009L225.274 12.8963H225.388L227.647 5.09091H230.85ZM236.618 16.2131C235.496 16.2131 234.53 15.9858 233.72 15.5312C232.915 15.072 232.295 14.4233 231.86 13.5852C231.424 12.7424 231.206 11.7457 231.206 10.5952C231.206 9.47301 231.424 8.48816 231.86 7.64062C232.295 6.79309 232.908 6.13258 233.699 5.65909C234.494 5.18561 235.427 4.94886 236.497 4.94886C237.217 4.94886 237.887 5.06487 238.507 5.29688C239.132 5.52415 239.677 5.86742 240.141 6.3267C240.61 6.78598 240.974 7.36364 241.235 8.05966C241.495 8.75095 241.625 9.56061 241.625 10.4886V11.3196H232.413V9.4446H238.777C238.777 9.009 238.682 8.62311 238.493 8.28693C238.304 7.95076 238.041 7.68797 237.705 7.49858C237.373 7.30445 236.987 7.20739 236.547 7.20739C236.088 7.20739 235.681 7.31392 235.325 7.52699C234.975 7.73532 234.7 8.01705 234.502 8.37216C234.303 8.72254 234.201 9.11316 234.196 9.54403V11.3267C234.196 11.8665 234.296 12.3329 234.494 12.7259C234.698 13.1188 234.985 13.4219 235.354 13.6349C235.723 13.848 236.161 13.9545 236.668 13.9545C237.004 13.9545 237.312 13.9072 237.591 13.8125C237.87 13.7178 238.11 13.5758 238.308 13.3864C238.507 13.197 238.659 12.965 238.763 12.6903L241.561 12.875C241.419 13.5473 241.128 14.1345 240.688 14.6364C240.252 15.1335 239.689 15.5218 238.997 15.8011C238.311 16.0758 237.518 16.2131 236.618 16.2131ZM252.642 16H247.485V1.45455H252.684C254.147 1.45455 255.407 1.74574 256.463 2.32812C257.518 2.90578 258.33 3.73674 258.899 4.82102C259.472 5.9053 259.758 7.20265 259.758 8.71307C259.758 10.2282 259.472 11.5303 258.899 12.6193C258.33 13.7083 257.514 14.544 256.448 15.1264C255.388 15.7088 254.119 16 252.642 16ZM250.561 13.3651H252.514C253.423 13.3651 254.187 13.2041 254.808 12.8821C255.433 12.5554 255.901 12.0511 256.214 11.3693C256.531 10.6828 256.69 9.79735 256.69 8.71307C256.69 7.63826 256.531 6.75994 256.214 6.07812C255.901 5.39631 255.435 4.89441 254.815 4.57244C254.195 4.25047 253.43 4.08949 252.521 4.08949H250.561V13.3651ZM261.579 16V5.09091H264.605V16H261.579ZM263.099 3.68466C262.649 3.68466 262.263 3.53551 261.941 3.23722C261.624 2.93419 261.466 2.57197 261.466 2.15057C261.466 1.7339 261.624 1.37642 261.941 1.07812C262.263 0.775094 262.649 0.623579 263.099 0.623579C263.549 0.623579 263.932 0.775094 264.25 1.07812C264.572 1.37642 264.733 1.7339 264.733 2.15057C264.733 2.57197 264.572 2.93419 264.25 3.23722C263.932 3.53551 263.549 3.68466 263.099 3.68466ZM266.628 16V5.09091H269.562V6.99432H269.675C269.874 6.31723 270.208 5.80587 270.677 5.46023C271.146 5.10985 271.685 4.93466 272.296 4.93466C272.448 4.93466 272.611 4.94413 272.786 4.96307C272.961 4.98201 273.115 5.00805 273.248 5.04119V7.72585C273.106 7.68324 272.909 7.64536 272.658 7.61222C272.407 7.57907 272.178 7.5625 271.969 7.5625C271.524 7.5625 271.127 7.65956 270.776 7.85369C270.431 8.04309 270.156 8.30824 269.952 8.64915C269.753 8.99006 269.654 9.38305 269.654 9.82812V16H266.628ZM278.876 16.2131C277.754 16.2131 276.788 15.9858 275.978 15.5312C275.173 15.072 274.553 14.4233 274.117 13.5852C273.682 12.7424 273.464 11.7457 273.464 10.5952C273.464 9.47301 273.682 8.48816 274.117 7.64062C274.553 6.79309 275.166 6.13258 275.957 5.65909C276.752 5.18561 277.685 4.94886 278.755 4.94886C279.475 4.94886 280.145 5.06487 280.765 5.29688C281.39 5.52415 281.935 5.86742 282.399 6.3267C282.867 6.78598 283.232 7.36364 283.492 8.05966C283.753 8.75095 283.883 9.56061 283.883 10.4886V11.3196H274.671V9.4446H281.035C281.035 9.009 280.94 8.62311 280.751 8.28693C280.561 7.95076 280.299 7.68797 279.962 7.49858C279.631 7.30445 279.245 7.20739 278.805 7.20739C278.346 7.20739 277.938 7.31392 277.583 7.52699C277.233 7.73532 276.958 8.01705 276.759 8.37216C276.561 8.72254 276.459 9.11316 276.454 9.54403V11.3267C276.454 11.8665 276.553 12.3329 276.752 12.7259C276.956 13.1188 277.242 13.4219 277.612 13.6349C277.981 13.848 278.419 13.9545 278.926 13.9545C279.262 13.9545 279.57 13.9072 279.849 13.8125C280.128 13.7178 280.367 13.5758 280.566 13.3864C280.765 13.197 280.917 12.965 281.021 12.6903L283.819 12.875C283.677 13.5473 283.386 14.1345 282.945 14.6364C282.51 15.1335 281.946 15.5218 281.255 15.8011C280.569 16.0758 279.775 16.2131 278.876 16.2131ZM290.386 16.2131C289.269 16.2131 288.308 15.9763 287.503 15.5028C286.703 15.0246 286.087 14.3617 285.656 13.5142C285.23 12.6667 285.017 11.6913 285.017 10.5881C285.017 9.47064 285.232 8.49053 285.663 7.64773C286.099 6.80019 286.717 6.13968 287.517 5.66619C288.317 5.18797 289.269 4.94886 290.372 4.94886C291.324 4.94886 292.157 5.12169 292.872 5.46733C293.587 5.81297 294.153 6.2983 294.57 6.9233C294.986 7.5483 295.216 8.2822 295.259 9.125H292.403C292.323 8.58049 292.11 8.14252 291.764 7.81108C291.423 7.47491 290.976 7.30682 290.422 7.30682C289.953 7.30682 289.544 7.43466 289.193 7.69034C288.848 7.94129 288.578 8.30824 288.384 8.79119C288.189 9.27415 288.092 9.8589 288.092 10.5455C288.092 11.2415 288.187 11.8333 288.376 12.321C288.571 12.8087 288.843 13.1804 289.193 13.4361C289.544 13.6918 289.953 13.8196 290.422 13.8196C290.768 13.8196 291.078 13.7486 291.352 13.6065C291.632 13.4645 291.861 13.2585 292.041 12.9886C292.226 12.714 292.347 12.3849 292.403 12.0014H295.259C295.211 12.8348 294.984 13.5687 294.577 14.2031C294.174 14.8329 293.618 15.3253 292.908 15.6804C292.197 16.0355 291.357 16.2131 290.386 16.2131ZM302.598 5.09091V7.36364H296.029V5.09091H302.598ZM297.52 2.47727H300.546V12.6477C300.546 12.9271 300.588 13.1449 300.674 13.3011C300.759 13.4527 300.877 13.5592 301.029 13.6207C301.185 13.6823 301.365 13.7131 301.568 13.7131C301.71 13.7131 301.852 13.7012 301.995 13.6776C302.137 13.6491 302.245 13.6278 302.321 13.6136L302.797 15.8651C302.646 15.9124 302.433 15.9669 302.158 16.0284C301.883 16.0947 301.549 16.1349 301.156 16.1491C300.427 16.1776 299.788 16.0805 299.239 15.858C298.694 15.6354 298.271 15.2898 297.968 14.821C297.665 14.3523 297.515 13.7604 297.52 13.0455V2.47727ZM308.981 16.2131C307.878 16.2131 306.924 15.9787 306.119 15.5099C305.319 15.0365 304.701 14.3783 304.265 13.5355C303.829 12.688 303.612 11.7055 303.612 10.5881C303.612 9.46117 303.829 8.47633 304.265 7.63352C304.701 6.78598 305.319 6.12784 306.119 5.65909C306.924 5.18561 307.878 4.94886 308.981 4.94886C310.084 4.94886 311.036 5.18561 311.836 5.65909C312.641 6.12784 313.261 6.78598 313.697 7.63352C314.132 8.47633 314.35 9.46117 314.35 10.5881C314.35 11.7055 314.132 12.688 313.697 13.5355C313.261 14.3783 312.641 15.0365 311.836 15.5099C311.036 15.9787 310.084 16.2131 308.981 16.2131ZM308.995 13.8693C309.497 13.8693 309.916 13.7273 310.252 13.4432C310.588 13.1544 310.842 12.7614 311.012 12.2642C311.187 11.767 311.275 11.2012 311.275 10.5668C311.275 9.93229 311.187 9.36648 311.012 8.86932C310.842 8.37216 310.588 7.97917 310.252 7.69034C309.916 7.40151 309.497 7.2571 308.995 7.2571C308.488 7.2571 308.062 7.40151 307.717 7.69034C307.376 7.97917 307.118 8.37216 306.943 8.86932C306.772 9.36648 306.687 9.93229 306.687 10.5668C306.687 11.2012 306.772 11.767 306.943 12.2642C307.118 12.7614 307.376 13.1544 307.717 13.4432C308.062 13.7273 308.488 13.8693 308.995 13.8693ZM315.918 16V5.09091H318.851V6.99432H318.964C319.163 6.31723 319.497 5.80587 319.966 5.46023C320.435 5.10985 320.974 4.93466 321.585 4.93466C321.737 4.93466 321.9 4.94413 322.075 4.96307C322.25 4.98201 322.404 5.00805 322.537 5.04119V7.72585C322.395 7.68324 322.198 7.64536 321.947 7.61222C321.696 7.57907 321.467 7.5625 321.258 7.5625C320.813 7.5625 320.416 7.65956 320.065 7.85369C319.72 8.04309 319.445 8.30824 319.241 8.64915C319.043 8.99006 318.943 9.38305 318.943 9.82812V16H315.918Z" fill="black"/>
</svg>
