<svg width="464" height="232" viewBox="0 0 464 232" fill="none" xmlns="http://www.w3.org/2000/svg">
<path d="M2.2017 11V7.93182C2.2017 7.06061 2.37216 6.17045 2.71307 5.26136C3.05398 4.35227 3.50379 3.49527 4.0625 2.69034C4.62121 1.88542 5.22727 1.21307 5.88068 0.673295L8.55114 2.25C8.02083 3.08333 7.58523 3.95455 7.24432 4.86364C6.91288 5.77273 6.74716 6.78598 6.74716 7.90341V11H2.2017ZM9.375 11V7.93182C9.375 7.06061 9.54545 6.17045 9.88636 5.26136C10.2273 4.35227 10.6771 3.49527 11.2358 2.69034C11.7945 1.88542 12.4006 1.21307 13.054 0.673295L15.7244 2.25C15.1941 3.08333 14.7585 3.95455 14.4176 4.86364C14.0862 5.77273 13.9205 6.78598 13.9205 7.90341V11H9.375ZM27.0612 31V1.90909H46.3226V6.98011H33.2118V13.9119H45.0442V18.983H33.2118V31H27.0612ZM49.546 31V9.18182H55.5972V31H49.546ZM52.5858 6.36932C51.6862 6.36932 50.9144 6.07102 50.2705 5.47443C49.636 4.86837 49.3187 4.14394 49.3187 3.30114C49.3187 2.4678 49.636 1.75284 50.2705 1.15625C50.9144 0.550188 51.6862 0.247158 52.5858 0.247158C53.4854 0.247158 54.2525 0.550188 54.8869 1.15625C55.5309 1.75284 55.8528 2.4678 55.8528 3.30114C55.8528 4.14394 55.5309 4.86837 54.8869 5.47443C54.2525 6.07102 53.4854 6.36932 52.5858 6.36932ZM59.6445 31V9.18182H65.5109V12.9886H65.7382C66.1359 11.6345 66.8036 10.6117 67.7411 9.92045C68.6786 9.2197 69.7581 8.86932 70.9797 8.86932C71.2827 8.86932 71.6094 8.88826 71.9598 8.92614C72.3102 8.96402 72.6179 9.0161 72.8831 9.08239V14.4517C72.599 14.3665 72.206 14.2907 71.7041 14.2244C71.2022 14.1581 70.7429 14.125 70.3263 14.125C69.4361 14.125 68.6407 14.3191 67.9399 14.7074C67.2486 15.0862 66.6994 15.6165 66.2922 16.2983C65.8945 16.9801 65.6956 17.7661 65.6956 18.6562V31H59.6445ZM93.3651 15.4034L87.8253 15.7443C87.7306 15.2708 87.527 14.8447 87.2145 14.4659C86.902 14.0777 86.4901 13.7699 85.9787 13.5426C85.4768 13.3059 84.8755 13.1875 84.1747 13.1875C83.2372 13.1875 82.4465 13.3864 81.8026 13.7841C81.1586 14.1723 80.8366 14.6932 80.8366 15.3466C80.8366 15.8674 81.045 16.3078 81.4616 16.6676C81.8783 17.0275 82.5933 17.3163 83.6065 17.5341L87.5554 18.3295C89.6766 18.7652 91.258 19.4659 92.2997 20.4318C93.3414 21.3977 93.8622 22.6667 93.8622 24.2386C93.8622 25.6686 93.4408 26.9233 92.598 28.0028C91.7647 29.0824 90.6188 29.9252 89.1605 30.5312C87.7116 31.1278 86.0402 31.4261 84.1463 31.4261C81.258 31.4261 78.9569 30.8248 77.2429 29.6222C75.5384 28.41 74.5393 26.7623 74.2457 24.679L80.1974 24.3665C80.3774 25.2472 80.813 25.9195 81.5043 26.3835C82.1955 26.8381 83.081 27.0653 84.1605 27.0653C85.2211 27.0653 86.0734 26.8617 86.7173 26.4545C87.3707 26.0379 87.7022 25.5028 87.7116 24.8494C87.7022 24.3002 87.4702 23.8504 87.0156 23.5C86.5611 23.1402 85.8603 22.8655 84.9134 22.6761L81.1349 21.9233C79.0043 21.4972 77.4181 20.7585 76.3764 19.7074C75.3442 18.6562 74.8281 17.3163 74.8281 15.6875C74.8281 14.286 75.2069 13.0786 75.9645 12.0653C76.7315 11.0521 77.8063 10.2708 79.1889 9.72159C80.581 9.17235 82.2098 8.89773 84.0753 8.89773C86.831 8.89773 88.9995 9.48011 90.581 10.6449C92.1719 11.8097 93.0999 13.3958 93.3651 15.4034ZM108.478 9.18182V13.7273H95.3385V9.18182H108.478ZM98.3214 3.95455H104.373V24.2955C104.373 24.8542 104.458 25.2898 104.628 25.6023C104.799 25.9053 105.035 26.1184 105.338 26.2415C105.651 26.3646 106.011 26.4261 106.418 26.4261C106.702 26.4261 106.986 26.4025 107.27 26.3551C107.554 26.2983 107.772 26.2557 107.924 26.2273L108.875 30.7301C108.572 30.8248 108.146 30.9337 107.597 31.0568C107.048 31.1894 106.38 31.2699 105.594 31.2983C104.136 31.3551 102.857 31.161 101.759 30.7159C100.67 30.2708 99.8224 29.5795 99.2163 28.642C98.6103 27.7045 98.312 26.5208 98.3214 25.0909V3.95455ZM120.191 31V1.90909H126.341V25.929H138.813V31H120.191ZM141.973 31V9.18182H148.024V31H141.973ZM145.012 6.36932C144.113 6.36932 143.341 6.07102 142.697 5.47443C142.063 4.86837 141.745 4.14394 141.745 3.30114C141.745 2.4678 142.063 1.75284 142.697 1.15625C143.341 0.550188 144.113 0.247158 145.012 0.247158C145.912 0.247158 146.679 0.550188 147.313 1.15625C147.957 1.75284 148.279 2.4678 148.279 3.30114C148.279 4.14394 147.957 4.86837 147.313 5.47443C146.679 6.07102 145.912 6.36932 145.012 6.36932ZM161.901 39.6364C159.94 39.6364 158.259 39.3665 156.858 38.8267C155.466 38.2964 154.358 37.572 153.534 36.6534C152.71 35.7348 152.175 34.7027 151.929 33.5568L157.526 32.804C157.696 33.2396 157.966 33.6468 158.335 34.0256C158.705 34.4044 159.192 34.7074 159.798 34.9347C160.414 35.1714 161.162 35.2898 162.043 35.2898C163.359 35.2898 164.443 34.9678 165.295 34.3239C166.157 33.6894 166.588 32.6241 166.588 31.1278V27.1364H166.332C166.067 27.7424 165.67 28.3153 165.139 28.8551C164.609 29.3949 163.927 29.8352 163.094 30.1761C162.26 30.517 161.266 30.6875 160.111 30.6875C158.473 30.6875 156.981 30.3087 155.636 29.5511C154.301 28.7841 153.236 27.6146 152.44 26.0426C151.654 24.4612 151.261 22.4631 151.261 20.0483C151.261 17.5767 151.664 15.5123 152.469 13.8551C153.274 12.1979 154.344 10.9574 155.679 10.1335C157.024 9.30966 158.496 8.89773 160.097 8.89773C161.318 8.89773 162.341 9.10606 163.165 9.52273C163.989 9.92992 164.652 10.4413 165.153 11.0568C165.665 11.6629 166.058 12.2595 166.332 12.8466H166.56V9.18182H172.568V31.2131C172.568 33.0691 172.114 34.6222 171.205 35.8722C170.295 37.1222 169.036 38.0597 167.426 38.6847C165.826 39.3191 163.984 39.6364 161.901 39.6364ZM162.028 26.142C163.004 26.142 163.828 25.9006 164.5 25.4176C165.182 24.9252 165.703 24.2244 166.062 23.3153C166.432 22.3968 166.616 21.2983 166.616 20.0199C166.616 18.7415 166.437 17.6335 166.077 16.696C165.717 15.7491 165.196 15.0152 164.514 14.4943C163.832 13.9735 163.004 13.7131 162.028 13.7131C161.034 13.7131 160.196 13.983 159.514 14.5227C158.832 15.053 158.316 15.7917 157.966 16.7386C157.616 17.6856 157.44 18.7794 157.44 20.0199C157.44 21.2794 157.616 22.3684 157.966 23.2869C158.326 24.196 158.842 24.9015 159.514 25.4034C160.196 25.8958 161.034 26.142 162.028 26.142ZM182.635 18.3864V31H176.584V1.90909H182.464V13.0312H182.72C183.212 11.7434 184.008 10.7348 185.106 10.0057C186.205 9.26705 187.583 8.89773 189.24 8.89773C190.755 8.89773 192.076 9.22917 193.203 9.89205C194.339 10.5455 195.22 11.4877 195.845 12.7188C196.479 13.9403 196.792 15.4034 196.782 17.108V31H190.731V18.1875C190.741 16.8428 190.4 15.7964 189.709 15.0483C189.027 14.3002 188.07 13.9261 186.839 13.9261C186.015 13.9261 185.286 14.1013 184.652 14.4517C184.027 14.8021 183.534 15.3134 183.174 15.9858C182.824 16.6487 182.644 17.4489 182.635 18.3864ZM212.35 9.18182V13.7273H199.21V9.18182H212.35ZM202.193 3.95455H208.244V24.2955C208.244 24.8542 208.33 25.2898 208.5 25.6023C208.671 25.9053 208.907 26.1184 209.21 26.2415C209.523 26.3646 209.883 26.4261 210.29 26.4261C210.574 26.4261 210.858 26.4025 211.142 26.3551C211.426 26.2983 211.644 26.2557 211.796 26.2273L212.747 30.7301C212.444 30.8248 212.018 30.9337 211.469 31.0568C210.92 31.1894 210.252 31.2699 209.466 31.2983C208.008 31.3551 206.729 31.161 205.631 30.7159C204.542 30.2708 203.694 29.5795 203.088 28.642C202.482 27.7045 202.184 26.5208 202.193 25.0909V3.95455ZM223.949 39.1818V9.18182H229.915V12.8466H230.185C230.45 12.2595 230.834 11.6629 231.336 11.0568C231.847 10.4413 232.51 9.92992 233.324 9.52273C234.148 9.10606 235.171 8.89773 236.392 8.89773C237.983 8.89773 239.451 9.31439 240.796 10.1477C242.14 10.9716 243.215 12.2169 244.02 13.8835C244.825 15.5407 245.228 17.6193 245.228 20.1193C245.228 22.553 244.835 24.608 244.049 26.2841C243.272 27.9508 242.211 29.215 240.867 30.0767C239.532 30.929 238.035 31.3551 236.378 31.3551C235.204 31.3551 234.205 31.161 233.381 30.7727C232.567 30.3845 231.899 29.8968 231.378 29.3097C230.857 28.7131 230.46 28.1117 230.185 27.5057H230V39.1818H223.949ZM229.872 20.0909C229.872 21.3883 230.052 22.5199 230.412 23.4858C230.772 24.4517 231.293 25.2045 231.975 25.7443C232.657 26.2746 233.485 26.5398 234.461 26.5398C235.445 26.5398 236.279 26.2699 236.961 25.7301C237.642 25.1809 238.158 24.4233 238.509 23.4574C238.869 22.482 239.049 21.3598 239.049 20.0909C239.049 18.8314 238.873 17.7235 238.523 16.767C238.173 15.8106 237.657 15.0625 236.975 14.5227C236.293 13.983 235.455 13.7131 234.461 13.7131C233.476 13.7131 232.642 13.9735 231.961 14.4943C231.288 15.0152 230.772 15.7538 230.412 16.7102C230.052 17.6667 229.872 18.7936 229.872 20.0909ZM248.462 31V9.18182H254.328V12.9886H254.555C254.953 11.6345 255.621 10.6117 256.558 9.92045C257.496 9.2197 258.575 8.86932 259.797 8.86932C260.1 8.86932 260.427 8.88826 260.777 8.92614C261.127 8.96402 261.435 9.0161 261.7 9.08239V14.4517C261.416 14.3665 261.023 14.2907 260.521 14.2244C260.019 14.1581 259.56 14.125 259.143 14.125C258.253 14.125 257.458 14.3191 256.757 14.7074C256.066 15.0862 255.517 15.6165 255.109 16.2983C254.712 16.9801 254.513 17.7661 254.513 18.6562V31H248.462ZM272.871 31.4261C270.665 31.4261 268.757 30.9574 267.147 30.0199C265.546 29.0729 264.311 27.7566 263.439 26.071C262.568 24.3759 262.133 22.411 262.133 20.1761C262.133 17.9223 262.568 15.9527 263.439 14.267C264.311 12.572 265.546 11.2557 267.147 10.3182C268.757 9.37121 270.665 8.89773 272.871 8.89773C275.078 8.89773 276.981 9.37121 278.581 10.3182C280.191 11.2557 281.432 12.572 282.303 14.267C283.174 15.9527 283.61 17.9223 283.61 20.1761C283.61 22.411 283.174 24.3759 282.303 26.071C281.432 27.7566 280.191 29.0729 278.581 30.0199C276.981 30.9574 275.078 31.4261 272.871 31.4261ZM272.9 26.7386C273.903 26.7386 274.741 26.4545 275.414 25.8864C276.086 25.3087 276.593 24.5227 276.934 23.5284C277.284 22.5341 277.459 21.4025 277.459 20.1335C277.459 18.8646 277.284 17.733 276.934 16.7386C276.593 15.7443 276.086 14.9583 275.414 14.3807C274.741 13.803 273.903 13.5142 272.9 13.5142C271.886 13.5142 271.034 13.803 270.343 14.3807C269.661 14.9583 269.145 15.7443 268.794 16.7386C268.454 17.733 268.283 18.8646 268.283 20.1335C268.283 21.4025 268.454 22.5341 268.794 23.5284C269.145 24.5227 269.661 25.3087 270.343 25.8864C271.034 26.4545 271.886 26.7386 272.9 26.7386ZM286.744 31V9.18182H292.512V13.0312H292.767C293.222 11.7528 293.979 10.7443 295.04 10.0057C296.101 9.26705 297.369 8.89773 298.847 8.89773C300.343 8.89773 301.617 9.27178 302.668 10.0199C303.719 10.7585 304.42 11.7623 304.77 13.0312H304.997C305.442 11.7812 306.247 10.7822 307.412 10.0341C308.586 9.27652 309.974 8.89773 311.574 8.89773C313.61 8.89773 315.262 9.5464 316.531 10.8438C317.81 12.1316 318.449 13.9593 318.449 16.3267V31H312.412V17.5199C312.412 16.3078 312.09 15.3987 311.446 14.7926C310.802 14.1866 309.997 13.8835 309.031 13.8835C307.933 13.8835 307.076 14.2339 306.46 14.9347C305.845 15.6259 305.537 16.5398 305.537 17.6761V31H299.671V17.392C299.671 16.322 299.363 15.4697 298.747 14.8352C298.141 14.2008 297.341 13.8835 296.347 13.8835C295.674 13.8835 295.068 14.054 294.529 14.3949C293.998 14.7263 293.577 15.1951 293.264 15.8011C292.952 16.3977 292.796 17.0985 292.796 17.9034V31H286.744ZM322.429 31V9.18182H328.48V31H322.429ZM325.469 6.36932C324.569 6.36932 323.797 6.07102 323.153 5.47443C322.519 4.86837 322.202 4.14394 322.202 3.30114C322.202 2.4678 322.519 1.75284 323.153 1.15625C323.797 0.550188 324.569 0.247158 325.469 0.247158C326.368 0.247158 327.135 0.550188 327.77 1.15625C328.414 1.75284 328.736 2.4678 328.736 3.30114C328.736 4.14394 328.414 4.86837 327.77 5.47443C327.135 6.07102 326.368 6.36932 325.469 6.36932ZM350.681 15.4034L345.141 15.7443C345.046 15.2708 344.843 14.8447 344.53 14.4659C344.218 14.0777 343.806 13.7699 343.294 13.5426C342.792 13.3059 342.191 13.1875 341.49 13.1875C340.553 13.1875 339.762 13.3864 339.118 13.7841C338.474 14.1723 338.152 14.6932 338.152 15.3466C338.152 15.8674 338.361 16.3078 338.777 16.6676C339.194 17.0275 339.909 17.3163 340.922 17.5341L344.871 18.3295C346.992 18.7652 348.574 19.4659 349.615 20.4318C350.657 21.3977 351.178 22.6667 351.178 24.2386C351.178 25.6686 350.756 26.9233 349.914 28.0028C349.08 29.0824 347.934 29.9252 346.476 30.5312C345.027 31.1278 343.356 31.4261 341.462 31.4261C338.574 31.4261 336.273 30.8248 334.559 29.6222C332.854 28.41 331.855 26.7623 331.561 24.679L337.513 24.3665C337.693 25.2472 338.129 25.9195 338.82 26.3835C339.511 26.8381 340.397 27.0653 341.476 27.0653C342.537 27.0653 343.389 26.8617 344.033 26.4545C344.686 26.0379 345.018 25.5028 345.027 24.8494C345.018 24.3002 344.786 23.8504 344.331 23.5C343.877 23.1402 343.176 22.8655 342.229 22.6761L338.451 21.9233C336.32 21.4972 334.734 20.7585 333.692 19.7074C332.66 18.6562 332.144 17.3163 332.144 15.6875C332.144 14.286 332.523 13.0786 333.28 12.0653C334.047 11.0521 335.122 10.2708 336.505 9.72159C337.897 9.17235 339.525 8.89773 341.391 8.89773C344.147 8.89773 346.315 9.48011 347.897 10.6449C349.487 11.8097 350.416 13.3958 350.681 15.4034ZM364.131 31.4261C361.887 31.4261 359.955 30.9716 358.336 30.0625C356.726 29.1439 355.486 27.8466 354.614 26.1705C353.743 24.4848 353.308 22.4915 353.308 20.1903C353.308 17.946 353.743 15.9763 354.614 14.2812C355.486 12.5862 356.712 11.2652 358.293 10.3182C359.884 9.37121 361.75 8.89773 363.89 8.89773C365.329 8.89773 366.669 9.12973 367.91 9.59375C369.16 10.0483 370.249 10.7348 371.177 11.6534C372.114 12.572 372.844 13.7273 373.364 15.1193C373.885 16.5019 374.146 18.1212 374.146 19.9773V21.6392H355.722V17.8892H368.45C368.45 17.018 368.26 16.2462 367.881 15.5739C367.503 14.9015 366.977 14.3759 366.305 13.9972C365.642 13.6089 364.87 13.4148 363.989 13.4148C363.071 13.4148 362.256 13.6278 361.546 14.054C360.845 14.4706 360.296 15.0341 359.898 15.7443C359.501 16.4451 359.297 17.2263 359.288 18.0881V21.6534C359.288 22.733 359.487 23.6657 359.884 24.4517C360.291 25.2377 360.864 25.8438 361.603 26.2699C362.342 26.696 363.218 26.9091 364.231 26.9091C364.903 26.9091 365.519 26.8144 366.077 26.625C366.636 26.4356 367.114 26.1515 367.512 25.7727C367.91 25.3939 368.213 24.9299 368.421 24.3807L374.018 24.75C373.734 26.0947 373.151 27.2689 372.271 28.2727C371.399 29.267 370.272 30.0436 368.89 30.6023C367.517 31.1515 365.931 31.4261 364.131 31.4261ZM395.448 15.4034L389.908 15.7443C389.813 15.2708 389.61 14.8447 389.297 14.4659C388.985 14.0777 388.573 13.7699 388.062 13.5426C387.56 13.3059 386.958 13.1875 386.258 13.1875C385.32 13.1875 384.529 13.3864 383.885 13.7841C383.241 14.1723 382.919 14.6932 382.919 15.3466C382.919 15.8674 383.128 16.3078 383.544 16.6676C383.961 17.0275 384.676 17.3163 385.689 17.5341L389.638 18.3295C391.759 18.7652 393.341 19.4659 394.383 20.4318C395.424 21.3977 395.945 22.6667 395.945 24.2386C395.945 25.6686 395.524 26.9233 394.681 28.0028C393.848 29.0824 392.702 29.9252 391.243 30.5312C389.794 31.1278 388.123 31.4261 386.229 31.4261C383.341 31.4261 381.04 30.8248 379.326 29.6222C377.621 28.41 376.622 26.7623 376.329 24.679L382.28 24.3665C382.46 25.2472 382.896 25.9195 383.587 26.3835C384.278 26.8381 385.164 27.0653 386.243 27.0653C387.304 27.0653 388.156 26.8617 388.8 26.4545C389.454 26.0379 389.785 25.5028 389.794 24.8494C389.785 24.3002 389.553 23.8504 389.098 23.5C388.644 23.1402 387.943 22.8655 386.996 22.6761L383.218 21.9233C381.087 21.4972 379.501 20.7585 378.459 19.7074C377.427 18.6562 376.911 17.3163 376.911 15.6875C376.911 14.286 377.29 13.0786 378.047 12.0653C378.814 11.0521 379.889 10.2708 381.272 9.72159C382.664 9.17235 384.293 8.89773 386.158 8.89773C388.914 8.89773 391.082 9.48011 392.664 10.6449C394.255 11.8097 395.183 13.3958 395.448 15.4034ZM16.8324 87.1818V75.5057H16.6477C16.3636 76.1117 15.9612 76.7131 15.4403 77.3097C14.929 77.8968 14.2614 78.3845 13.4375 78.7727C12.6231 79.161 11.6288 79.3551 10.4545 79.3551C8.79735 79.3551 7.2964 78.929 5.9517 78.0767C4.61648 77.215 3.55587 75.9508 2.76989 74.2841C1.99337 72.608 1.60511 70.553 1.60511 68.1193C1.60511 65.6193 2.00758 63.5407 2.8125 61.8835C3.61742 60.2169 4.6875 58.9716 6.02273 58.1477C7.36742 57.3144 8.83996 56.8977 10.4403 56.8977C11.6619 56.8977 12.6799 57.1061 13.4943 57.5227C14.3182 57.9299 14.9811 58.4413 15.483 59.0568C15.9943 59.6629 16.3826 60.2595 16.6477 60.8466H16.9034V57.1818H22.8693V87.1818H16.8324ZM12.3722 74.5398C13.3475 74.5398 14.1714 74.2746 14.8438 73.7443C15.5256 73.2045 16.0464 72.4517 16.4062 71.4858C16.7756 70.5199 16.9602 69.3883 16.9602 68.0909C16.9602 66.7936 16.7803 65.6667 16.4205 64.7102C16.0606 63.7538 15.5398 63.0152 14.858 62.4943C14.1761 61.9735 13.3475 61.7131 12.3722 61.7131C11.3778 61.7131 10.5398 61.983 9.85795 62.5227C9.17614 63.0625 8.66004 63.8106 8.30966 64.767C7.95928 65.7235 7.78409 66.8314 7.78409 68.0909C7.78409 69.3598 7.95928 70.482 8.30966 71.4574C8.66951 72.4233 9.18561 73.1809 9.85795 73.7301C10.5398 74.2699 11.3778 74.5398 12.3722 74.5398ZM40.9188 69.7102V57.1818H46.9699V79H41.1602V75.0369H40.933C40.4405 76.3153 39.6214 77.3428 38.4756 78.1193C37.3392 78.8958 35.9519 79.2841 34.3136 79.2841C32.8553 79.2841 31.5722 78.9527 30.4642 78.2898C29.3563 77.6269 28.4898 76.6847 27.8648 75.4631C27.2492 74.2415 26.9367 72.7784 26.9273 71.0739V57.1818H32.9784V69.9943C32.9879 71.2822 33.3335 72.3002 34.0153 73.0483C34.6972 73.7964 35.611 74.1705 36.7568 74.1705C37.486 74.1705 38.1678 74.0047 38.8023 73.6733C39.4367 73.3324 39.9481 72.8305 40.3364 72.1676C40.7341 71.5047 40.9282 70.6856 40.9188 69.7102ZM57.2317 79.4119C55.8396 79.4119 54.5991 79.1705 53.5101 78.6875C52.4211 78.1951 51.5593 77.4706 50.9249 76.5142C50.2999 75.5483 49.9874 74.3456 49.9874 72.9062C49.9874 71.6941 50.2099 70.6761 50.655 69.8523C51.1 69.0284 51.7061 68.3655 52.4732 67.8636C53.2402 67.3617 54.1114 66.983 55.0868 66.7273C56.0716 66.4716 57.1038 66.2917 58.1834 66.1875C59.4523 66.0549 60.475 65.9318 61.2516 65.8182C62.0281 65.6951 62.5915 65.5152 62.9419 65.2784C63.2923 65.0417 63.4675 64.6913 63.4675 64.2273V64.142C63.4675 63.2424 63.1834 62.5464 62.6152 62.054C62.0565 61.5616 61.261 61.3153 60.2288 61.3153C59.1398 61.3153 58.2733 61.5568 57.6294 62.0398C56.9855 62.5133 56.5593 63.1098 56.351 63.8295L50.7544 63.375C51.0385 62.0492 51.5972 60.9034 52.4305 59.9375C53.2639 58.9621 54.3387 58.214 55.655 57.6932C56.9807 57.1629 58.5148 56.8977 60.2572 56.8977C61.4694 56.8977 62.6294 57.0398 63.7374 57.3239C64.8548 57.608 65.8444 58.0483 66.7061 58.6449C67.5773 59.2415 68.2639 60.0085 68.7658 60.946C69.2677 61.8741 69.5186 62.9867 69.5186 64.2841V79H63.78V75.9744H63.6095C63.2591 76.6562 62.7904 77.2576 62.2033 77.7784C61.6161 78.2898 60.9107 78.6922 60.0868 78.9858C59.2629 79.2699 58.3112 79.4119 57.2317 79.4119ZM58.9646 75.2358C59.8548 75.2358 60.6408 75.0606 61.3226 74.7102C62.0044 74.3504 62.5394 73.8674 62.9277 73.2614C63.316 72.6553 63.5101 71.9687 63.5101 71.2017V68.8864C63.3207 69.0095 63.0603 69.1231 62.7288 69.2273C62.4069 69.322 62.0423 69.4119 61.6351 69.4972C61.2279 69.5729 60.8207 69.6439 60.4135 69.7102C60.0063 69.767 59.637 69.8191 59.3055 69.8665C58.5953 69.9706 57.975 70.1364 57.4447 70.3636C56.9144 70.5909 56.5025 70.8987 56.209 71.2869C55.9154 71.6657 55.7686 72.1392 55.7686 72.7074C55.7686 73.5312 56.0669 74.161 56.6635 74.5966C57.2696 75.0227 58.0366 75.2358 58.9646 75.2358ZM79.4643 49.9091V79H73.4132V49.9091H79.4643ZM83.5117 79V57.1818H89.5628V79H83.5117ZM86.5514 54.3693C85.6518 54.3693 84.88 54.071 84.2361 53.4744C83.6016 52.8684 83.2844 52.1439 83.2844 51.3011C83.2844 50.4678 83.6016 49.7528 84.2361 49.1562C84.88 48.5502 85.6518 48.2472 86.5514 48.2472C87.451 48.2472 88.2181 48.5502 88.8526 49.1562C89.4965 49.7528 89.8185 50.4678 89.8185 51.3011C89.8185 52.1439 89.4965 52.8684 88.8526 53.4744C88.2181 54.071 87.451 54.3693 86.5514 54.3693ZM105.215 57.1818V61.7273H92.076V57.1818H105.215ZM95.0589 51.9545H101.11V72.2955C101.11 72.8542 101.195 73.2898 101.366 73.6023C101.536 73.9053 101.773 74.1184 102.076 74.2415C102.388 74.3646 102.748 74.4261 103.156 74.4261C103.44 74.4261 103.724 74.4025 104.008 74.3551C104.292 74.2983 104.51 74.2557 104.661 74.2273L105.613 78.7301C105.31 78.8248 104.884 78.9337 104.335 79.0568C103.785 79.1894 103.118 79.2699 102.332 79.2983C100.873 79.3551 99.5949 79.161 98.4964 78.7159C97.4074 78.2708 96.5599 77.5795 95.9538 76.642C95.3478 75.7045 95.0495 74.5208 95.0589 73.0909V51.9545ZM112.093 87.1818C111.326 87.1818 110.606 87.1203 109.934 86.9972C109.271 86.8835 108.722 86.7367 108.286 86.5568L109.65 82.0398C110.36 82.2576 110.999 82.3759 111.567 82.3949C112.145 82.4138 112.642 82.2813 113.059 81.9972C113.485 81.7131 113.83 81.2301 114.096 80.5483L114.451 79.625L106.624 57.1818H112.988L117.505 73.2045H117.732L122.292 57.1818H128.698L120.218 81.358C119.811 82.5322 119.257 83.5549 118.556 84.4261C117.865 85.3068 116.989 85.9839 115.928 86.4574C114.867 86.9403 113.589 87.1818 112.093 87.1818ZM136.204 75.0227L136.048 76.5852C135.925 77.8352 135.688 79.0805 135.338 80.321C134.997 81.571 134.637 82.7027 134.258 83.7159C133.889 84.7292 133.59 85.5246 133.363 86.1023H129.443C129.585 85.5436 129.779 84.7623 130.025 83.7585C130.271 82.7642 130.503 81.6468 130.721 80.4062C130.939 79.1657 131.076 77.9015 131.133 76.6136L131.204 75.0227H136.204ZM159.632 57.1818V61.7273H146.493V57.1818H159.632ZM149.476 51.9545H155.527V72.2955C155.527 72.8542 155.613 73.2898 155.783 73.6023C155.953 73.9053 156.19 74.1184 156.493 74.2415C156.806 74.3646 157.166 74.4261 157.573 74.4261C157.857 74.4261 158.141 74.4025 158.425 74.3551C158.709 74.2983 158.927 74.2557 159.078 74.2273L160.03 78.7301C159.727 78.8248 159.301 78.9337 158.752 79.0568C158.202 79.1894 157.535 79.2699 156.749 79.2983C155.291 79.3551 154.012 79.161 152.914 78.7159C151.825 78.2708 150.977 77.5795 150.371 76.642C149.765 75.7045 149.467 74.5208 149.476 73.0909V51.9545ZM162.774 79V57.1818H168.825V79H162.774ZM165.814 54.3693C164.914 54.3693 164.143 54.071 163.499 53.4744C162.864 52.8684 162.547 52.1439 162.547 51.3011C162.547 50.4678 162.864 49.7528 163.499 49.1562C164.143 48.5502 164.914 48.2472 165.814 48.2472C166.714 48.2472 167.481 48.5502 168.115 49.1562C168.759 49.7528 169.081 50.4678 169.081 51.3011C169.081 52.1439 168.759 52.8684 168.115 53.4744C167.481 54.071 166.714 54.3693 165.814 54.3693ZM172.873 79V57.1818H178.64V61.0312H178.895C179.35 59.7528 180.107 58.7443 181.168 58.0057C182.229 57.267 183.498 56.8977 184.975 56.8977C186.471 56.8977 187.745 57.2718 188.796 58.0199C189.847 58.7585 190.548 59.7623 190.898 61.0312H191.125C191.57 59.7812 192.375 58.7822 193.54 58.0341C194.714 57.2765 196.102 56.8977 197.702 56.8977C199.738 56.8977 201.391 57.5464 202.66 58.8438C203.938 60.1316 204.577 61.9593 204.577 64.3267V79H198.54V65.5199C198.54 64.3078 198.218 63.3987 197.574 62.7926C196.93 62.1866 196.125 61.8835 195.16 61.8835C194.061 61.8835 193.204 62.2339 192.588 62.9347C191.973 63.6259 191.665 64.5398 191.665 65.6761V79H185.799V65.392C185.799 64.322 185.491 63.4697 184.875 62.8352C184.269 62.2008 183.469 61.8835 182.475 61.8835C181.803 61.8835 181.196 62.054 180.657 62.3949C180.126 62.7263 179.705 63.1951 179.392 63.8011C179.08 64.3977 178.924 65.0985 178.924 65.9034V79H172.873ZM218.5 79.4261C216.256 79.4261 214.324 78.9716 212.705 78.0625C211.095 77.1439 209.854 75.8466 208.983 74.1705C208.112 72.4848 207.676 70.4915 207.676 68.1903C207.676 65.946 208.112 63.9763 208.983 62.2812C209.854 60.5862 211.081 59.2652 212.662 58.3182C214.253 57.3712 216.119 56.8977 218.259 56.8977C219.698 56.8977 221.038 57.1297 222.279 57.5938C223.529 58.0483 224.618 58.7348 225.546 59.6534C226.483 60.572 227.212 61.7273 227.733 63.1193C228.254 64.5019 228.514 66.1212 228.514 67.9773V69.6392H210.091V65.8892H222.818C222.818 65.018 222.629 64.2462 222.25 63.5739C221.871 62.9015 221.346 62.3759 220.673 61.9972C220.011 61.6089 219.239 61.4148 218.358 61.4148C217.44 61.4148 216.625 61.6278 215.915 62.054C215.214 62.4706 214.665 63.0341 214.267 63.7443C213.869 64.4451 213.666 65.2263 213.656 66.0881V69.6534C213.656 70.733 213.855 71.6657 214.253 72.4517C214.66 73.2377 215.233 73.8438 215.972 74.2699C216.71 74.696 217.586 74.9091 218.6 74.9091C219.272 74.9091 219.887 74.8144 220.446 74.625C221.005 74.4356 221.483 74.1515 221.881 73.7727C222.279 73.3939 222.582 72.9299 222.79 72.3807L228.387 72.75C228.102 74.0947 227.52 75.2689 226.639 76.2727C225.768 77.267 224.641 78.0436 223.259 78.6023C221.886 79.1515 220.299 79.4261 218.5 79.4261ZM237.714 49.9091V79H231.663V49.9091H237.714ZM251.705 79.4261C249.461 79.4261 247.529 78.9716 245.909 78.0625C244.3 77.1439 243.059 75.8466 242.188 74.1705C241.317 72.4848 240.881 70.4915 240.881 68.1903C240.881 65.946 241.317 63.9763 242.188 62.2812C243.059 60.5862 244.285 59.2652 245.867 58.3182C247.458 57.3712 249.323 56.8977 251.463 56.8977C252.903 56.8977 254.243 57.1297 255.483 57.5938C256.733 58.0483 257.822 58.7348 258.75 59.6534C259.688 60.572 260.417 61.7273 260.938 63.1193C261.459 64.5019 261.719 66.1212 261.719 67.9773V69.6392H243.296V65.8892H256.023C256.023 65.018 255.834 64.2462 255.455 63.5739C255.076 62.9015 254.55 62.3759 253.878 61.9972C253.215 61.6089 252.443 61.4148 251.563 61.4148C250.644 61.4148 249.83 61.6278 249.12 62.054C248.419 62.4706 247.87 63.0341 247.472 63.7443C247.074 64.4451 246.871 65.2263 246.861 66.0881V69.6534C246.861 70.733 247.06 71.6657 247.458 72.4517C247.865 73.2377 248.438 73.8438 249.176 74.2699C249.915 74.696 250.791 74.9091 251.804 74.9091C252.477 74.9091 253.092 74.8144 253.651 74.625C254.21 74.4356 254.688 74.1515 255.086 73.7727C255.483 73.3939 255.786 72.9299 255.995 72.3807L261.591 72.75C261.307 74.0947 260.725 75.2689 259.844 76.2727C258.973 77.267 257.846 78.0436 256.463 78.6023C255.09 79.1515 253.504 79.4261 251.705 79.4261ZM283.021 63.4034L277.482 63.7443C277.387 63.2708 277.183 62.8447 276.871 62.4659C276.558 62.0777 276.146 61.7699 275.635 61.5426C275.133 61.3059 274.532 61.1875 273.831 61.1875C272.893 61.1875 272.103 61.3864 271.459 61.7841C270.815 62.1723 270.493 62.6932 270.493 63.3466C270.493 63.8674 270.701 64.3078 271.118 64.6676C271.535 65.0275 272.25 65.3163 273.263 65.5341L277.212 66.3295C279.333 66.7652 280.914 67.4659 281.956 68.4318C282.998 69.3977 283.518 70.6667 283.518 72.2386C283.518 73.6686 283.097 74.9233 282.254 76.0028C281.421 77.0824 280.275 77.9252 278.817 78.5312C277.368 79.1278 275.696 79.4261 273.803 79.4261C270.914 79.4261 268.613 78.8248 266.899 77.6222C265.195 76.41 264.196 74.7623 263.902 72.679L269.854 72.3665C270.034 73.2472 270.469 73.9195 271.161 74.3835C271.852 74.8381 272.737 75.0653 273.817 75.0653C274.877 75.0653 275.73 74.8617 276.374 74.4545C277.027 74.0379 277.358 73.5028 277.368 72.8494C277.358 72.3002 277.126 71.8504 276.672 71.5C276.217 71.1402 275.517 70.8655 274.57 70.6761L270.791 69.9233C268.661 69.4972 267.074 68.7585 266.033 67.7074C265 66.6562 264.484 65.3163 264.484 63.6875C264.484 62.286 264.863 61.0786 265.621 60.0653C266.388 59.0521 267.463 58.2708 268.845 57.7216C270.237 57.1723 271.866 56.8977 273.732 56.8977C276.487 56.8977 278.656 57.4801 280.237 58.6449C281.828 59.8097 282.756 61.3958 283.021 63.4034ZM304.682 63.4034L299.142 63.7443C299.048 63.2708 298.844 62.8447 298.532 62.4659C298.219 62.0777 297.807 61.7699 297.296 61.5426C296.794 61.3059 296.193 61.1875 295.492 61.1875C294.554 61.1875 293.764 61.3864 293.12 61.7841C292.476 62.1723 292.154 62.6932 292.154 63.3466C292.154 63.8674 292.362 64.3078 292.779 64.6676C293.196 65.0275 293.91 65.3163 294.924 65.5341L298.873 66.3295C300.994 66.7652 302.575 67.4659 303.617 68.4318C304.659 69.3977 305.179 70.6667 305.179 72.2386C305.179 73.6686 304.758 74.9233 303.915 76.0028C303.082 77.0824 301.936 77.9252 300.478 78.5312C299.029 79.1278 297.357 79.4261 295.464 79.4261C292.575 79.4261 290.274 78.8248 288.56 77.6222C286.856 76.41 285.856 74.7623 285.563 72.679L291.515 72.3665C291.695 73.2472 292.13 73.9195 292.821 74.3835C293.513 74.8381 294.398 75.0653 295.478 75.0653C296.538 75.0653 297.391 74.8617 298.035 74.4545C298.688 74.0379 299.019 73.5028 299.029 72.8494C299.019 72.3002 298.787 71.8504 298.333 71.5C297.878 71.1402 297.178 70.8655 296.231 70.6761L292.452 69.9233C290.321 69.4972 288.735 68.7585 287.694 67.7074C286.661 66.6562 286.145 65.3163 286.145 63.6875C286.145 62.286 286.524 61.0786 287.282 60.0653C288.049 59.0521 289.124 58.2708 290.506 57.7216C291.898 57.1723 293.527 56.8977 295.392 56.8977C298.148 56.8977 300.317 57.4801 301.898 58.6449C303.489 59.8097 304.417 61.3958 304.682 63.4034ZM324.687 79.3551C323.03 79.3551 321.529 78.929 320.185 78.0767C318.849 77.215 317.789 75.9508 317.003 74.2841C316.226 72.608 315.838 70.553 315.838 68.1193C315.838 65.6193 316.24 63.5407 317.045 61.8835C317.85 60.2169 318.92 58.9716 320.256 58.1477C321.6 57.3144 323.073 56.8977 324.673 56.8977C325.895 56.8977 326.913 57.1061 327.727 57.5227C328.551 57.9299 329.214 58.4413 329.716 59.0568C330.227 59.6629 330.615 60.2595 330.881 60.8466H331.065V49.9091H337.102V79H331.136V75.5057H330.881C330.596 76.1117 330.194 76.7131 329.673 77.3097C329.162 77.8968 328.494 78.3845 327.67 78.7727C326.856 79.161 325.862 79.3551 324.687 79.3551ZM326.605 74.5398C327.58 74.5398 328.404 74.2746 329.077 73.7443C329.758 73.2045 330.279 72.4517 330.639 71.4858C331.008 70.5199 331.193 69.3883 331.193 68.0909C331.193 66.7936 331.013 65.6667 330.653 64.7102C330.293 63.7538 329.773 63.0152 329.091 62.4943C328.409 61.9735 327.58 61.7131 326.605 61.7131C325.611 61.7131 324.773 61.983 324.091 62.5227C323.409 63.0625 322.893 63.8106 322.542 64.767C322.192 65.7235 322.017 66.8314 322.017 68.0909C322.017 69.3598 322.192 70.482 322.542 71.4574C322.902 72.4233 323.418 73.1809 324.091 73.7301C324.773 74.2699 325.611 74.5398 326.605 74.5398ZM351.22 79.4261C348.976 79.4261 347.044 78.9716 345.425 78.0625C343.815 77.1439 342.575 75.8466 341.703 74.1705C340.832 72.4848 340.397 70.4915 340.397 68.1903C340.397 65.946 340.832 63.9763 341.703 62.2812C342.575 60.5862 343.801 59.2652 345.382 58.3182C346.973 57.3712 348.839 56.8977 350.979 56.8977C352.418 56.8977 353.758 57.1297 354.999 57.5938C356.249 58.0483 357.338 58.7348 358.266 59.6534C359.203 60.572 359.933 61.7273 360.453 63.1193C360.974 64.5019 361.235 66.1212 361.235 67.9773V69.6392H342.811V65.8892H355.539C355.539 65.018 355.349 64.2462 354.97 63.5739C354.592 62.9015 354.066 62.3759 353.394 61.9972C352.731 61.6089 351.959 61.4148 351.078 61.4148C350.16 61.4148 349.345 61.6278 348.635 62.054C347.934 62.4706 347.385 63.0341 346.987 63.7443C346.59 64.4451 346.386 65.2263 346.377 66.0881V69.6534C346.377 70.733 346.576 71.6657 346.973 72.4517C347.38 73.2377 347.953 73.8438 348.692 74.2699C349.431 74.696 350.307 74.9091 351.32 74.9091C351.992 74.9091 352.608 74.8144 353.166 74.625C353.725 74.4356 354.203 74.1515 354.601 73.7727C354.999 73.3939 355.302 72.9299 355.51 72.3807L361.107 72.75C360.823 74.0947 360.24 75.2689 359.36 76.2727C358.488 77.267 357.362 78.0436 355.979 78.6023C354.606 79.1515 353.02 79.4261 351.22 79.4261ZM382.537 63.4034L376.997 63.7443C376.902 63.2708 376.699 62.8447 376.386 62.4659C376.074 62.0777 375.662 61.7699 375.151 61.5426C374.649 61.3059 374.047 61.1875 373.347 61.1875C372.409 61.1875 371.618 61.3864 370.974 61.7841C370.33 62.1723 370.009 62.6932 370.009 63.3466C370.009 63.8674 370.217 64.3078 370.634 64.6676C371.05 65.0275 371.765 65.3163 372.778 65.5341L376.727 66.3295C378.848 66.7652 380.43 67.4659 381.472 68.4318C382.513 69.3977 383.034 70.6667 383.034 72.2386C383.034 73.6686 382.613 74.9233 381.77 76.0028C380.937 77.0824 379.791 77.9252 378.332 78.5312C376.884 79.1278 375.212 79.4261 373.318 79.4261C370.43 79.4261 368.129 78.8248 366.415 77.6222C364.71 76.41 363.711 74.7623 363.418 72.679L369.369 72.3665C369.549 73.2472 369.985 73.9195 370.676 74.3835C371.367 74.8381 372.253 75.0653 373.332 75.0653C374.393 75.0653 375.245 74.8617 375.889 74.4545C376.543 74.0379 376.874 73.5028 376.884 72.8494C376.874 72.3002 376.642 71.8504 376.188 71.5C375.733 71.1402 375.032 70.8655 374.085 70.6761L370.307 69.9233C368.176 69.4972 366.59 68.7585 365.548 67.7074C364.516 66.6562 364 65.3163 364 63.6875C364 62.286 364.379 61.0786 365.136 60.0653C365.903 59.0521 366.978 58.2708 368.361 57.7216C369.753 57.1723 371.382 56.8977 373.247 56.8977C376.003 56.8977 378.171 57.4801 379.753 58.6449C381.344 59.8097 382.272 61.3958 382.537 63.4034ZM386.044 79V57.1818H392.096V79H386.044ZM389.084 54.3693C388.185 54.3693 387.413 54.071 386.769 53.4744C386.134 52.8684 385.817 52.1439 385.817 51.3011C385.817 50.4678 386.134 49.7528 386.769 49.1562C387.413 48.5502 388.185 48.2472 389.084 48.2472C389.984 48.2472 390.751 48.5502 391.385 49.1562C392.029 49.7528 392.351 50.4678 392.351 51.3011C392.351 52.1439 392.029 52.8684 391.385 53.4744C390.751 54.071 389.984 54.3693 389.084 54.3693ZM405.972 87.6364C404.012 87.6364 402.331 87.3665 400.93 86.8267C399.538 86.2964 398.43 85.572 397.606 84.6534C396.782 83.7348 396.247 82.7027 396.001 81.5568L401.597 80.804C401.768 81.2396 402.038 81.6468 402.407 82.0256C402.776 82.4044 403.264 82.7074 403.87 82.9347C404.486 83.1714 405.234 83.2898 406.114 83.2898C407.431 83.2898 408.515 82.9678 409.367 82.3239C410.229 81.6894 410.66 80.6241 410.66 79.1278V75.1364H410.404C410.139 75.7424 409.741 76.3153 409.211 76.8551C408.681 77.3949 407.999 77.8352 407.166 78.1761C406.332 78.517 405.338 78.6875 404.183 78.6875C402.544 78.6875 401.053 78.3087 399.708 77.5511C398.373 76.7841 397.308 75.6146 396.512 74.0426C395.726 72.4612 395.333 70.4631 395.333 68.0483C395.333 65.5767 395.736 63.5123 396.541 61.8551C397.346 60.1979 398.416 58.9574 399.751 58.1335C401.096 57.3097 402.568 56.8977 404.168 56.8977C405.39 56.8977 406.413 57.1061 407.237 57.5227C408.061 57.9299 408.723 58.4413 409.225 59.0568C409.737 59.6629 410.13 60.2595 410.404 60.8466H410.632V57.1818H416.64V79.2131C416.64 81.0691 416.186 82.6222 415.276 83.8722C414.367 85.1222 413.108 86.0597 411.498 86.6847C409.898 87.3191 408.056 87.6364 405.972 87.6364ZM406.1 74.142C407.076 74.142 407.9 73.9006 408.572 73.4176C409.254 72.9252 409.775 72.2244 410.134 71.3153C410.504 70.3968 410.688 69.2983 410.688 68.0199C410.688 66.7415 410.508 65.6335 410.149 64.696C409.789 63.7491 409.268 63.0152 408.586 62.4943C407.904 61.9735 407.076 61.7131 406.1 61.7131C405.106 61.7131 404.268 61.983 403.586 62.5227C402.904 63.053 402.388 63.7917 402.038 64.7386C401.687 65.6856 401.512 66.7794 401.512 68.0199C401.512 69.2794 401.687 70.3684 402.038 71.2869C402.398 72.196 402.914 72.9015 403.586 73.4034C404.268 73.8958 405.106 74.142 406.1 74.142ZM426.707 66.3864V79H420.655V57.1818H426.422V61.0312H426.678C427.161 59.7623 427.971 58.7585 429.107 58.0199C430.243 57.2718 431.621 56.8977 433.241 56.8977C434.756 56.8977 436.077 57.2292 437.204 57.892C438.331 58.5549 439.207 59.5019 439.832 60.733C440.457 61.9545 440.769 63.4129 440.769 65.108V79H434.718V66.1875C434.727 64.8523 434.386 63.8106 433.695 63.0625C433.004 62.3049 432.052 61.9261 430.84 61.9261C430.026 61.9261 429.306 62.1013 428.681 62.4517C428.065 62.8021 427.582 63.3134 427.232 63.9858C426.891 64.6487 426.716 65.4489 426.707 66.3864ZM462.892 63.4034L457.352 63.7443C457.257 63.2708 457.054 62.8447 456.741 62.4659C456.429 62.0777 456.017 61.7699 455.505 61.5426C455.003 61.3059 454.402 61.1875 453.701 61.1875C452.764 61.1875 451.973 61.3864 451.329 61.7841C450.685 62.1723 450.363 62.6932 450.363 63.3466C450.363 63.8674 450.572 64.3078 450.988 64.6676C451.405 65.0275 452.12 65.3163 453.133 65.5341L457.082 66.3295C459.203 66.7652 460.785 67.4659 461.826 68.4318C462.868 69.3977 463.389 70.6667 463.389 72.2386C463.389 73.6686 462.967 74.9233 462.125 76.0028C461.291 77.0824 460.145 77.9252 458.687 78.5312C457.238 79.1278 455.567 79.4261 453.673 79.4261C450.785 79.4261 448.483 78.8248 446.769 77.6222C445.065 76.41 444.066 74.7623 443.772 72.679L449.724 72.3665C449.904 73.2472 450.34 73.9195 451.031 74.3835C451.722 74.8381 452.608 75.0653 453.687 75.0653C454.748 75.0653 455.6 74.8617 456.244 74.4545C456.897 74.0379 457.229 73.5028 457.238 72.8494C457.229 72.3002 456.997 71.8504 456.542 71.5C456.088 71.1402 455.387 70.8655 454.44 70.6761L450.661 69.9233C448.531 69.4972 446.945 68.7585 445.903 67.7074C444.871 66.6562 444.355 65.3163 444.355 63.6875C444.355 62.286 444.733 61.0786 445.491 60.0653C446.258 59.0521 447.333 58.2708 448.715 57.7216C450.108 57.1723 451.736 56.8977 453.602 56.8977C456.358 56.8977 458.526 57.4801 460.108 58.6449C461.698 59.8097 462.626 61.3958 462.892 63.4034ZM8.63636 127.412C7.24432 127.412 6.00379 127.17 4.91477 126.688C3.82576 126.195 2.96402 125.471 2.32955 124.514C1.70455 123.548 1.39205 122.346 1.39205 120.906C1.39205 119.694 1.61458 118.676 2.05966 117.852C2.50473 117.028 3.1108 116.366 3.87784 115.864C4.64489 115.362 5.5161 114.983 6.49148 114.727C7.47633 114.472 8.50852 114.292 9.58807 114.188C10.857 114.055 11.8797 113.932 12.6562 113.818C13.4328 113.695 13.9962 113.515 14.3466 113.278C14.697 113.042 14.8722 112.691 14.8722 112.227V112.142C14.8722 111.242 14.5881 110.546 14.0199 110.054C13.4612 109.562 12.6657 109.315 11.6335 109.315C10.5445 109.315 9.67803 109.557 9.03409 110.04C8.39015 110.513 7.96402 111.11 7.75568 111.83L2.15909 111.375C2.44318 110.049 3.00189 108.903 3.83523 107.938C4.66856 106.962 5.74337 106.214 7.05966 105.693C8.38542 105.163 9.91951 104.898 11.6619 104.898C12.8741 104.898 14.0341 105.04 15.142 105.324C16.2595 105.608 17.2491 106.048 18.1108 106.645C18.982 107.241 19.6686 108.009 20.1705 108.946C20.6723 109.874 20.9233 110.987 20.9233 112.284V127H15.1847V123.974H15.0142C14.6638 124.656 14.1951 125.258 13.608 125.778C13.0208 126.29 12.3153 126.692 11.4915 126.986C10.6676 127.27 9.71591 127.412 8.63636 127.412ZM10.3693 123.236C11.2595 123.236 12.0455 123.061 12.7273 122.71C13.4091 122.35 13.9441 121.867 14.3324 121.261C14.7206 120.655 14.9148 119.969 14.9148 119.202V116.886C14.7254 117.009 14.465 117.123 14.1335 117.227C13.8116 117.322 13.447 117.412 13.0398 117.497C12.6326 117.573 12.2254 117.644 11.8182 117.71C11.411 117.767 11.0417 117.819 10.7102 117.866C10 117.971 9.37974 118.136 8.84943 118.364C8.31913 118.591 7.9072 118.899 7.61364 119.287C7.32008 119.666 7.1733 120.139 7.1733 120.707C7.1733 121.531 7.47159 122.161 8.06818 122.597C8.67424 123.023 9.44129 123.236 10.3693 123.236ZM30.869 114.386V127H24.8179V105.182H30.5849V109.031H30.8406C31.3236 107.762 32.1332 106.759 33.2696 106.02C34.406 105.272 35.7838 104.898 37.4031 104.898C38.9183 104.898 40.2393 105.229 41.3662 105.892C42.4931 106.555 43.369 107.502 43.994 108.733C44.619 109.955 44.9315 111.413 44.9315 113.108V127H38.8804V114.188C38.8899 112.852 38.549 111.811 37.8577 111.062C37.1664 110.305 36.2147 109.926 35.0026 109.926C34.1882 109.926 33.4685 110.101 32.8435 110.452C32.2279 110.802 31.745 111.313 31.3946 111.986C31.0537 112.649 30.8785 113.449 30.869 114.386ZM56.9405 127.355C55.2833 127.355 53.7823 126.929 52.4376 126.077C51.1024 125.215 50.0418 123.951 49.2558 122.284C48.4793 120.608 48.0911 118.553 48.0911 116.119C48.0911 113.619 48.4935 111.541 49.2984 109.884C50.1034 108.217 51.1734 106.972 52.5087 106.148C53.8534 105.314 55.3259 104.898 56.9263 104.898C58.1479 104.898 59.1659 105.106 59.9803 105.523C60.8041 105.93 61.467 106.441 61.9689 107.057C62.4803 107.663 62.8685 108.259 63.1337 108.847H63.3183V97.9091H69.3553V127H63.3893V123.506H63.1337C62.8496 124.112 62.4471 124.713 61.9263 125.31C61.4149 125.897 60.7473 126.384 59.9234 126.773C59.109 127.161 58.1147 127.355 56.9405 127.355ZM58.8581 122.54C59.8335 122.54 60.6573 122.275 61.3297 121.744C62.0115 121.205 62.5323 120.452 62.8922 119.486C63.2615 118.52 63.4462 117.388 63.4462 116.091C63.4462 114.794 63.2662 113.667 62.9064 112.71C62.5465 111.754 62.0257 111.015 61.3439 110.494C60.6621 109.973 59.8335 109.713 58.8581 109.713C57.8638 109.713 57.0257 109.983 56.3439 110.523C55.6621 111.062 55.146 111.811 54.7956 112.767C54.4452 113.723 54.27 114.831 54.27 116.091C54.27 117.36 54.4452 118.482 54.7956 119.457C55.1554 120.423 55.6715 121.181 56.3439 121.73C57.0257 122.27 57.8638 122.54 58.8581 122.54ZM86.2922 127L80.3547 105.182H86.4768L89.8575 119.841H90.0564L93.5791 105.182H99.5876L103.167 119.756H103.352L106.676 105.182H112.784L106.86 127H100.454L96.7041 113.278H96.4342L92.6842 127H86.2922ZM115.212 127V105.182H121.263V127H115.212ZM118.251 102.369C117.352 102.369 116.58 102.071 115.936 101.474C115.302 100.868 114.984 100.144 114.984 99.3011C114.984 98.4678 115.302 97.7528 115.936 97.1562C116.58 96.5502 117.352 96.2472 118.251 96.2472C119.151 96.2472 119.918 96.5502 120.553 97.1562C121.196 97.7528 121.518 98.4678 121.518 99.3011C121.518 100.144 121.196 100.868 120.553 101.474C119.918 102.071 119.151 102.369 118.251 102.369ZM136.915 105.182V109.727H123.776V105.182H136.915ZM126.759 99.9545H132.81V120.295C132.81 120.854 132.895 121.29 133.066 121.602C133.236 121.905 133.473 122.118 133.776 122.241C134.088 122.365 134.448 122.426 134.856 122.426C135.14 122.426 135.424 122.402 135.708 122.355C135.992 122.298 136.21 122.256 136.361 122.227L137.313 126.73C137.01 126.825 136.584 126.934 136.035 127.057C135.485 127.189 134.818 127.27 134.032 127.298C132.573 127.355 131.295 127.161 130.196 126.716C129.107 126.271 128.26 125.58 127.654 124.642C127.048 123.705 126.749 122.521 126.759 121.091V99.9545ZM146.577 114.386V127H140.526V97.9091H146.406V109.031H146.662C147.154 107.743 147.95 106.735 149.048 106.006C150.147 105.267 151.525 104.898 153.182 104.898C154.697 104.898 156.018 105.229 157.145 105.892C158.281 106.545 159.162 107.488 159.787 108.719C160.422 109.94 160.734 111.403 160.725 113.108V127H154.673V114.188C154.683 112.843 154.342 111.796 153.651 111.048C152.969 110.3 152.012 109.926 150.781 109.926C149.958 109.926 149.228 110.101 148.594 110.452C147.969 110.802 147.476 111.313 147.117 111.986C146.766 112.649 146.586 113.449 146.577 114.386ZM183.002 127.426C180.796 127.426 178.888 126.957 177.278 126.02C175.678 125.073 174.442 123.757 173.571 122.071C172.699 120.376 172.264 118.411 172.264 116.176C172.264 113.922 172.699 111.953 173.571 110.267C174.442 108.572 175.678 107.256 177.278 106.318C178.888 105.371 180.796 104.898 183.002 104.898C185.209 104.898 187.112 105.371 188.713 106.318C190.322 107.256 191.563 108.572 192.434 110.267C193.305 111.953 193.741 113.922 193.741 116.176C193.741 118.411 193.305 120.376 192.434 122.071C191.563 123.757 190.322 125.073 188.713 126.02C187.112 126.957 185.209 127.426 183.002 127.426ZM183.031 122.739C184.035 122.739 184.873 122.455 185.545 121.886C186.217 121.309 186.724 120.523 187.065 119.528C187.415 118.534 187.59 117.402 187.59 116.134C187.59 114.865 187.415 113.733 187.065 112.739C186.724 111.744 186.217 110.958 185.545 110.381C184.873 109.803 184.035 109.514 183.031 109.514C182.018 109.514 181.165 109.803 180.474 110.381C179.792 110.958 179.276 111.744 178.926 112.739C178.585 113.733 178.414 114.865 178.414 116.134C178.414 117.402 178.585 118.534 178.926 119.528C179.276 120.523 179.792 121.309 180.474 121.886C181.165 122.455 182.018 122.739 183.031 122.739ZM210.867 117.71V105.182H216.918V127H211.109V123.037H210.881C210.389 124.315 209.57 125.343 208.424 126.119C207.288 126.896 205.9 127.284 204.262 127.284C202.804 127.284 201.521 126.953 200.413 126.29C199.305 125.627 198.438 124.685 197.813 123.463C197.198 122.241 196.885 120.778 196.876 119.074V105.182H202.927V117.994C202.936 119.282 203.282 120.3 203.964 121.048C204.646 121.796 205.559 122.17 206.705 122.17C207.434 122.17 208.116 122.005 208.751 121.673C209.385 121.332 209.897 120.83 210.285 120.168C210.683 119.505 210.877 118.686 210.867 117.71ZM220.959 127V105.182H226.825V108.989H227.052C227.45 107.634 228.118 106.612 229.055 105.92C229.993 105.22 231.072 104.869 232.294 104.869C232.597 104.869 232.923 104.888 233.274 104.926C233.624 104.964 233.932 105.016 234.197 105.082V110.452C233.913 110.366 233.52 110.291 233.018 110.224C232.516 110.158 232.057 110.125 231.64 110.125C230.75 110.125 229.955 110.319 229.254 110.707C228.563 111.086 228.013 111.616 227.606 112.298C227.209 112.98 227.01 113.766 227.01 114.656V127H220.959ZM244.984 127V105.182H250.751V109.031H251.006C251.461 107.753 252.218 106.744 253.279 106.006C254.34 105.267 255.609 104.898 257.086 104.898C258.582 104.898 259.856 105.272 260.907 106.02C261.958 106.759 262.659 107.762 263.009 109.031H263.236C263.681 107.781 264.486 106.782 265.651 106.034C266.825 105.277 268.213 104.898 269.813 104.898C271.849 104.898 273.502 105.546 274.77 106.844C276.049 108.132 276.688 109.959 276.688 112.327V127H270.651V113.52C270.651 112.308 270.329 111.399 269.685 110.793C269.041 110.187 268.236 109.884 267.27 109.884C266.172 109.884 265.315 110.234 264.699 110.935C264.084 111.626 263.776 112.54 263.776 113.676V127H257.91V113.392C257.91 112.322 257.602 111.47 256.986 110.835C256.38 110.201 255.58 109.884 254.586 109.884C253.913 109.884 253.307 110.054 252.768 110.395C252.237 110.726 251.816 111.195 251.503 111.801C251.191 112.398 251.035 113.098 251.035 113.903V127H244.984ZM280.668 127V105.182H286.719V127H280.668ZM283.708 102.369C282.808 102.369 282.036 102.071 281.392 101.474C280.758 100.868 280.441 100.144 280.441 99.3011C280.441 98.4678 280.758 97.7528 281.392 97.1562C282.036 96.5502 282.808 96.2472 283.708 96.2472C284.607 96.2472 285.374 96.5502 286.009 97.1562C286.653 97.7528 286.975 98.4678 286.975 99.3011C286.975 100.144 286.653 100.868 286.009 101.474C285.374 102.071 284.607 102.369 283.708 102.369ZM308.92 111.403L303.38 111.744C303.285 111.271 303.082 110.845 302.769 110.466C302.457 110.078 302.045 109.77 301.533 109.543C301.031 109.306 300.43 109.188 299.729 109.188C298.792 109.188 298.001 109.386 297.357 109.784C296.713 110.172 296.391 110.693 296.391 111.347C296.391 111.867 296.6 112.308 297.016 112.668C297.433 113.027 298.148 113.316 299.161 113.534L303.11 114.33C305.231 114.765 306.813 115.466 307.854 116.432C308.896 117.398 309.417 118.667 309.417 120.239C309.417 121.669 308.996 122.923 308.153 124.003C307.319 125.082 306.174 125.925 304.715 126.531C303.266 127.128 301.595 127.426 299.701 127.426C296.813 127.426 294.512 126.825 292.798 125.622C291.093 124.41 290.094 122.762 289.8 120.679L295.752 120.366C295.932 121.247 296.368 121.92 297.059 122.384C297.75 122.838 298.636 123.065 299.715 123.065C300.776 123.065 301.628 122.862 302.272 122.455C302.925 122.038 303.257 121.503 303.266 120.849C303.257 120.3 303.025 119.85 302.57 119.5C302.116 119.14 301.415 118.866 300.468 118.676L296.69 117.923C294.559 117.497 292.973 116.759 291.931 115.707C290.899 114.656 290.383 113.316 290.383 111.688C290.383 110.286 290.762 109.079 291.519 108.065C292.286 107.052 293.361 106.271 294.744 105.722C296.136 105.172 297.764 104.898 299.63 104.898C302.386 104.898 304.554 105.48 306.136 106.645C307.727 107.81 308.655 109.396 308.92 111.403ZM330.581 111.403L325.041 111.744C324.946 111.271 324.743 110.845 324.43 110.466C324.118 110.078 323.706 109.77 323.194 109.543C322.692 109.306 322.091 109.188 321.39 109.188C320.453 109.188 319.662 109.386 319.018 109.784C318.374 110.172 318.052 110.693 318.052 111.347C318.052 111.867 318.261 112.308 318.677 112.668C319.094 113.027 319.809 113.316 320.822 113.534L324.771 114.33C326.892 114.765 328.474 115.466 329.515 116.432C330.557 117.398 331.078 118.667 331.078 120.239C331.078 121.669 330.656 122.923 329.814 124.003C328.98 125.082 327.834 125.925 326.376 126.531C324.927 127.128 323.256 127.426 321.362 127.426C318.474 127.426 316.173 126.825 314.459 125.622C312.754 124.41 311.755 122.762 311.461 120.679L317.413 120.366C317.593 121.247 318.029 121.92 318.72 122.384C319.411 122.838 320.297 123.065 321.376 123.065C322.437 123.065 323.289 122.862 323.933 122.455C324.586 122.038 324.918 121.503 324.927 120.849C324.918 120.3 324.686 119.85 324.231 119.5C323.777 119.14 323.076 118.866 322.129 118.676L318.351 117.923C316.22 117.497 314.634 116.759 313.592 115.707C312.56 114.656 312.044 113.316 312.044 111.688C312.044 110.286 312.423 109.079 313.18 108.065C313.947 107.052 315.022 106.271 316.405 105.722C317.797 105.172 319.425 104.898 321.291 104.898C324.047 104.898 326.215 105.48 327.797 106.645C329.388 107.81 330.316 109.396 330.581 111.403ZM334.088 127V105.182H340.139V127H334.088ZM337.128 102.369C336.228 102.369 335.457 102.071 334.813 101.474C334.178 100.868 333.861 100.144 333.861 99.3011C333.861 98.4678 334.178 97.7528 334.813 97.1562C335.457 96.5502 336.228 96.2472 337.128 96.2472C338.028 96.2472 338.795 96.5502 339.429 97.1562C340.073 97.7528 340.395 98.4678 340.395 99.3011C340.395 100.144 340.073 100.868 339.429 101.474C338.795 102.071 338.028 102.369 337.128 102.369ZM354.045 127.426C351.838 127.426 349.93 126.957 348.32 126.02C346.72 125.073 345.484 123.757 344.613 122.071C343.742 120.376 343.306 118.411 343.306 116.176C343.306 113.922 343.742 111.953 344.613 110.267C345.484 108.572 346.72 107.256 348.32 106.318C349.93 105.371 351.838 104.898 354.045 104.898C356.251 104.898 358.154 105.371 359.755 106.318C361.365 107.256 362.605 108.572 363.476 110.267C364.348 111.953 364.783 113.922 364.783 116.176C364.783 118.411 364.348 120.376 363.476 122.071C362.605 123.757 361.365 125.073 359.755 126.02C358.154 126.957 356.251 127.426 354.045 127.426ZM354.073 122.739C355.077 122.739 355.915 122.455 356.587 121.886C357.26 121.309 357.766 120.523 358.107 119.528C358.457 118.534 358.633 117.402 358.633 116.134C358.633 114.865 358.457 113.733 358.107 112.739C357.766 111.744 357.26 110.958 356.587 110.381C355.915 109.803 355.077 109.514 354.073 109.514C353.06 109.514 352.207 109.803 351.516 110.381C350.834 110.958 350.318 111.744 349.968 112.739C349.627 113.733 349.457 114.865 349.457 116.134C349.457 117.402 349.627 118.534 349.968 119.528C350.318 120.523 350.834 121.309 351.516 121.886C352.207 122.455 353.06 122.739 354.073 122.739ZM373.969 114.386V127H367.918V105.182H373.685V109.031H373.941C374.424 107.762 375.233 106.759 376.37 106.02C377.506 105.272 378.884 104.898 380.503 104.898C382.018 104.898 383.339 105.229 384.466 105.892C385.593 106.555 386.469 107.502 387.094 108.733C387.719 109.955 388.032 111.413 388.032 113.108V127H381.98V114.188C381.99 112.852 381.649 111.811 380.958 111.062C380.266 110.305 379.315 109.926 378.103 109.926C377.288 109.926 376.568 110.101 375.943 110.452C375.328 110.802 374.845 111.313 374.495 111.986C374.154 112.649 373.978 113.449 373.969 114.386ZM400.459 127V105.182H406.51V127H400.459ZM403.498 102.369C402.599 102.369 401.827 102.071 401.183 101.474C400.548 100.868 400.231 100.144 400.231 99.3011C400.231 98.4678 400.548 97.7528 401.183 97.1562C401.827 96.5502 402.599 96.2472 403.498 96.2472C404.398 96.2472 405.165 96.5502 405.799 97.1562C406.443 97.7528 406.765 98.4678 406.765 99.3011C406.765 100.144 406.443 100.868 405.799 101.474C405.165 102.071 404.398 102.369 403.498 102.369ZM422.162 105.182V109.727H409.023V105.182H422.162ZM412.006 99.9545H418.057V120.295C418.057 120.854 418.142 121.29 418.313 121.602C418.483 121.905 418.72 122.118 419.023 122.241C419.335 122.365 419.695 122.426 420.102 122.426C420.386 122.426 420.671 122.402 420.955 122.355C421.239 122.298 421.457 122.256 421.608 122.227L422.56 126.73C422.257 126.825 421.831 126.934 421.281 127.057C420.732 127.189 420.065 127.27 419.279 127.298C417.82 127.355 416.542 127.161 415.443 126.716C414.354 126.271 413.507 125.58 412.901 124.642C412.295 123.705 411.996 122.521 412.006 121.091V99.9545ZM433.762 127V105.182H439.813V127H433.762ZM436.801 102.369C435.902 102.369 435.13 102.071 434.486 101.474C433.852 100.868 433.534 100.144 433.534 99.3011C433.534 98.4678 433.852 97.7528 434.486 97.1562C435.13 96.5502 435.902 96.2472 436.801 96.2472C437.701 96.2472 438.468 96.5502 439.103 97.1562C439.746 97.7528 440.068 98.4678 440.068 99.3011C440.068 100.144 439.746 100.868 439.103 101.474C438.468 102.071 437.701 102.369 436.801 102.369ZM462.013 111.403L456.474 111.744C456.379 111.271 456.175 110.845 455.863 110.466C455.55 110.078 455.138 109.77 454.627 109.543C454.125 109.306 453.524 109.188 452.823 109.188C451.886 109.188 451.095 109.386 450.451 109.784C449.807 110.172 449.485 110.693 449.485 111.347C449.485 111.867 449.693 112.308 450.11 112.668C450.527 113.027 451.242 113.316 452.255 113.534L456.204 114.33C458.325 114.765 459.906 115.466 460.948 116.432C461.99 117.398 462.511 118.667 462.511 120.239C462.511 121.669 462.089 122.923 461.246 124.003C460.413 125.082 459.267 125.925 457.809 126.531C456.36 127.128 454.689 127.426 452.795 127.426C449.906 127.426 447.605 126.825 445.891 125.622C444.187 124.41 443.188 122.762 442.894 120.679L448.846 120.366C449.026 121.247 449.461 121.92 450.153 122.384C450.844 122.838 451.729 123.065 452.809 123.065C453.87 123.065 454.722 122.862 455.366 122.455C456.019 122.038 456.351 121.503 456.36 120.849C456.351 120.3 456.119 119.85 455.664 119.5C455.21 119.14 454.509 118.866 453.562 118.676L449.783 117.923C447.653 117.497 446.067 116.759 445.025 115.707C443.993 114.656 443.477 113.316 443.477 111.688C443.477 110.286 443.855 109.079 444.613 108.065C445.38 107.052 446.455 106.271 447.837 105.722C449.229 105.172 450.858 104.898 452.724 104.898C455.479 104.898 457.648 105.48 459.229 106.645C460.82 107.81 461.748 109.396 462.013 111.403ZM14.0199 153.182V157.727H0.880682V153.182H14.0199ZM3.86364 147.955H9.91477V168.295C9.91477 168.854 10 169.29 10.1705 169.602C10.3409 169.905 10.5777 170.118 10.8807 170.241C11.1932 170.365 11.553 170.426 11.9602 170.426C12.2443 170.426 12.5284 170.402 12.8125 170.355C13.0966 170.298 13.3144 170.256 13.4659 170.227L14.4176 174.73C14.1146 174.825 13.6884 174.934 13.1392 175.057C12.59 175.189 11.9223 175.27 11.1364 175.298C9.67803 175.355 8.39962 175.161 7.30114 174.716C6.21212 174.271 5.36458 173.58 4.75852 172.642C4.15246 171.705 3.85417 170.521 3.86364 169.091V147.955ZM17.1616 175V153.182H23.0281V156.989H23.2554C23.6531 155.634 24.3207 154.612 25.2582 153.92C26.1957 153.22 27.2753 152.869 28.4969 152.869C28.7999 152.869 29.1266 152.888 29.477 152.926C29.8274 152.964 30.1351 153.016 30.4003 153.082V158.452C30.1162 158.366 29.7232 158.291 29.2213 158.224C28.7194 158.158 28.2601 158.125 27.8435 158.125C26.9533 158.125 26.1579 158.319 25.4571 158.707C24.7658 159.086 24.2166 159.616 23.8094 160.298C23.4116 160.98 23.2128 161.766 23.2128 162.656V175H17.1616ZM46.7203 165.71V153.182H52.7714V175H46.9618V171.037H46.7345C46.2421 172.315 45.423 173.343 44.2771 174.119C43.1408 174.896 41.7535 175.284 40.1152 175.284C38.6569 175.284 37.3737 174.953 36.2658 174.29C35.1578 173.627 34.2913 172.685 33.6663 171.463C33.0508 170.241 32.7383 168.778 32.7288 167.074V153.182H38.78V165.994C38.7894 167.282 39.1351 168.3 39.8169 169.048C40.4987 169.796 41.4125 170.17 42.5584 170.17C43.2875 170.17 43.9694 170.005 44.6038 169.673C45.2383 169.332 45.7497 168.83 46.1379 168.168C46.5357 167.505 46.7298 166.686 46.7203 165.71ZM62.8628 145.909V175H56.8116V145.909H62.8628ZM70.6459 183.182C69.8788 183.182 69.1591 183.12 68.4868 182.997C67.8239 182.884 67.2747 182.737 66.8391 182.557L68.2027 178.04C68.9129 178.258 69.5521 178.376 70.1203 178.395C70.698 178.414 71.1951 178.281 71.6118 177.997C72.0379 177.713 72.3836 177.23 72.6487 176.548L73.0038 175.625L65.1771 153.182H71.5408L76.0578 169.205H76.2851L80.8447 153.182H87.251L78.7709 177.358C78.3637 178.532 77.8097 179.555 77.109 180.426C76.4177 181.307 75.5417 181.984 74.4811 182.457C73.4205 182.94 72.1421 183.182 70.6459 183.182ZM104.227 175.412C102.835 175.412 101.594 175.17 100.505 174.688C99.4164 174.195 98.5546 173.471 97.9202 172.514C97.2952 171.548 96.9827 170.346 96.9827 168.906C96.9827 167.694 97.2052 166.676 97.6503 165.852C98.0954 165.028 98.7014 164.366 99.4685 163.864C100.236 163.362 101.107 162.983 102.082 162.727C103.067 162.472 104.099 162.292 105.179 162.188C106.448 162.055 107.47 161.932 108.247 161.818C109.023 161.695 109.587 161.515 109.937 161.278C110.288 161.042 110.463 160.691 110.463 160.227V160.142C110.463 159.242 110.179 158.546 109.611 158.054C109.052 157.562 108.256 157.315 107.224 157.315C106.135 157.315 105.269 157.557 104.625 158.04C103.981 158.513 103.555 159.11 103.346 159.83L97.7497 159.375C98.0338 158.049 98.5925 156.903 99.4258 155.938C100.259 154.962 101.334 154.214 102.65 153.693C103.976 153.163 105.51 152.898 107.253 152.898C108.465 152.898 109.625 153.04 110.733 153.324C111.85 153.608 112.84 154.048 113.701 154.645C114.573 155.241 115.259 156.009 115.761 156.946C116.263 157.874 116.514 158.987 116.514 160.284V175H110.775V171.974H110.605C110.254 172.656 109.786 173.258 109.199 173.778C108.611 174.29 107.906 174.692 107.082 174.986C106.258 175.27 105.307 175.412 104.227 175.412ZM105.96 171.236C106.85 171.236 107.636 171.061 108.318 170.71C109 170.35 109.535 169.867 109.923 169.261C110.311 168.655 110.505 167.969 110.505 167.202V164.886C110.316 165.009 110.056 165.123 109.724 165.227C109.402 165.322 109.038 165.412 108.63 165.497C108.223 165.573 107.816 165.644 107.409 165.71C107.002 165.767 106.632 165.819 106.301 165.866C105.591 165.971 104.97 166.136 104.44 166.364C103.91 166.591 103.498 166.899 103.204 167.287C102.911 167.666 102.764 168.139 102.764 168.707C102.764 169.531 103.062 170.161 103.659 170.597C104.265 171.023 105.032 171.236 105.96 171.236ZM128.98 175V145.909H135.031V156.847H135.216C135.481 156.259 135.864 155.663 136.366 155.057C136.878 154.441 137.541 153.93 138.355 153.523C139.179 153.106 140.202 152.898 141.423 152.898C143.014 152.898 144.482 153.314 145.827 154.148C147.171 154.972 148.246 156.217 149.051 157.884C149.856 159.541 150.258 161.619 150.258 164.119C150.258 166.553 149.865 168.608 149.079 170.284C148.303 171.951 147.242 173.215 145.898 174.077C144.562 174.929 143.066 175.355 141.409 175.355C140.235 175.355 139.236 175.161 138.412 174.773C137.597 174.384 136.93 173.897 136.409 173.31C135.888 172.713 135.49 172.112 135.216 171.506H134.946V175H128.98ZM134.903 164.091C134.903 165.388 135.083 166.52 135.443 167.486C135.803 168.452 136.324 169.205 137.006 169.744C137.687 170.275 138.516 170.54 139.491 170.54C140.476 170.54 141.31 170.27 141.991 169.73C142.673 169.181 143.189 168.423 143.54 167.457C143.899 166.482 144.079 165.36 144.079 164.091C144.079 162.831 143.904 161.723 143.554 160.767C143.203 159.811 142.687 159.062 142.006 158.523C141.324 157.983 140.486 157.713 139.491 157.713C138.506 157.713 137.673 157.973 136.991 158.494C136.319 159.015 135.803 159.754 135.443 160.71C135.083 161.667 134.903 162.794 134.903 164.091ZM167.488 165.71V153.182H173.539V175H167.729V171.037H167.502C167.009 172.315 166.19 173.343 165.044 174.119C163.908 174.896 162.521 175.284 160.882 175.284C159.424 175.284 158.141 174.953 157.033 174.29C155.925 173.627 155.059 172.685 154.434 171.463C153.818 170.241 153.505 168.778 153.496 167.074V153.182H159.547V165.994C159.557 167.282 159.902 168.3 160.584 169.048C161.266 169.796 162.18 170.17 163.326 170.17C164.055 170.17 164.737 170.005 165.371 169.673C166.005 169.332 166.517 168.83 166.905 168.168C167.303 167.505 167.497 166.686 167.488 165.71ZM181.315 183.182C180.548 183.182 179.828 183.12 179.156 182.997C178.493 182.884 177.943 182.737 177.508 182.557L178.871 178.04C179.582 178.258 180.221 178.376 180.789 178.395C181.367 178.414 181.864 178.281 182.281 177.997C182.707 177.713 183.052 177.23 183.317 176.548L183.673 175.625L175.846 153.182H182.21L186.727 169.205H186.954L191.513 153.182H197.92L189.44 177.358C189.032 178.532 188.478 179.555 187.778 180.426C187.086 181.307 186.21 181.984 185.15 182.457C184.089 182.94 182.811 183.182 181.315 183.182ZM208.674 175V153.182H214.725V175H208.674ZM211.714 150.369C210.814 150.369 210.043 150.071 209.399 149.474C208.764 148.868 208.447 148.144 208.447 147.301C208.447 146.468 208.764 145.753 209.399 145.156C210.043 144.55 210.814 144.247 211.714 144.247C212.614 144.247 213.381 144.55 214.015 145.156C214.659 145.753 214.981 146.468 214.981 147.301C214.981 148.144 214.659 148.868 214.015 149.474C213.381 150.071 212.614 150.369 211.714 150.369ZM230.378 153.182V157.727H217.239V153.182H230.378ZM220.221 147.955H226.273V168.295C226.273 168.854 226.358 169.29 226.528 169.602C226.699 169.905 226.935 170.118 227.239 170.241C227.551 170.365 227.911 170.426 228.318 170.426C228.602 170.426 228.886 170.402 229.17 170.355C229.454 170.298 229.672 170.256 229.824 170.227L230.775 174.73C230.472 174.825 230.046 174.934 229.497 175.057C228.948 175.189 228.28 175.27 227.494 175.298C226.036 175.355 224.757 175.161 223.659 174.716C222.57 174.271 221.722 173.58 221.116 172.642C220.51 171.705 220.212 170.521 220.221 169.091V147.955ZM253.71 153.182V157.727H240.244V153.182H253.71ZM243.327 175V151.605C243.327 150.024 243.634 148.712 244.25 147.67C244.875 146.629 245.727 145.848 246.807 145.327C247.886 144.806 249.113 144.545 250.486 144.545C251.414 144.545 252.261 144.616 253.028 144.759C253.805 144.901 254.383 145.028 254.761 145.142L253.682 149.688C253.445 149.612 253.152 149.541 252.801 149.474C252.46 149.408 252.11 149.375 251.75 149.375C250.86 149.375 250.24 149.583 249.889 150C249.539 150.407 249.364 150.98 249.364 151.719V175H243.327ZM265.684 175.426C263.477 175.426 261.569 174.957 259.959 174.02C258.359 173.073 257.123 171.757 256.252 170.071C255.381 168.376 254.945 166.411 254.945 164.176C254.945 161.922 255.381 159.953 256.252 158.267C257.123 156.572 258.359 155.256 259.959 154.318C261.569 153.371 263.477 152.898 265.684 152.898C267.89 152.898 269.794 153.371 271.394 154.318C273.004 155.256 274.244 156.572 275.115 158.267C275.987 159.953 276.422 161.922 276.422 164.176C276.422 166.411 275.987 168.376 275.115 170.071C274.244 171.757 273.004 173.073 271.394 174.02C269.794 174.957 267.89 175.426 265.684 175.426ZM265.712 170.739C266.716 170.739 267.554 170.455 268.226 169.886C268.899 169.309 269.405 168.523 269.746 167.528C270.097 166.534 270.272 165.402 270.272 164.134C270.272 162.865 270.097 161.733 269.746 160.739C269.405 159.744 268.899 158.958 268.226 158.381C267.554 157.803 266.716 157.514 265.712 157.514C264.699 157.514 263.847 157.803 263.155 158.381C262.473 158.958 261.957 159.744 261.607 160.739C261.266 161.733 261.096 162.865 261.096 164.134C261.096 165.402 261.266 166.534 261.607 167.528C261.957 168.523 262.473 169.309 263.155 169.886C263.847 170.455 264.699 170.739 265.712 170.739ZM279.557 175V153.182H285.423V156.989H285.651C286.048 155.634 286.716 154.612 287.654 153.92C288.591 153.22 289.671 152.869 290.892 152.869C291.195 152.869 291.522 152.888 291.872 152.926C292.223 152.964 292.53 153.016 292.796 153.082V158.452C292.512 158.366 292.119 158.291 291.617 158.224C291.115 158.158 290.655 158.125 290.239 158.125C289.349 158.125 288.553 158.319 287.852 158.707C287.161 159.086 286.612 159.616 286.205 160.298C285.807 160.98 285.608 161.766 285.608 162.656V175H279.557ZM309.633 145.909V175H303.582V145.909H309.633ZM313.68 175V153.182H319.732V175H313.68ZM316.72 150.369C315.821 150.369 315.049 150.071 314.405 149.474C313.77 148.868 313.453 148.144 313.453 147.301C313.453 146.468 313.77 145.753 314.405 145.156C315.049 144.55 315.821 144.247 316.72 144.247C317.62 144.247 318.387 144.55 319.021 145.156C319.665 145.753 319.987 146.468 319.987 147.301C319.987 148.144 319.665 148.868 319.021 149.474C318.387 150.071 317.62 150.369 316.72 150.369ZM335.512 153.182V157.727H322.046V153.182H335.512ZM325.128 175V151.605C325.128 150.024 325.436 148.712 326.052 147.67C326.677 146.629 327.529 145.848 328.608 145.327C329.688 144.806 330.914 144.545 332.287 144.545C333.215 144.545 334.063 144.616 334.83 144.759C335.606 144.901 336.184 145.028 336.563 145.142L335.483 149.688C335.247 149.612 334.953 149.541 334.603 149.474C334.262 149.408 333.911 149.375 333.552 149.375C332.661 149.375 332.041 149.583 331.691 150C331.34 150.407 331.165 150.98 331.165 151.719V175H325.128ZM347.57 175.426C345.326 175.426 343.394 174.972 341.775 174.062C340.165 173.144 338.925 171.847 338.053 170.17C337.182 168.485 336.747 166.491 336.747 164.19C336.747 161.946 337.182 159.976 338.053 158.281C338.925 156.586 340.151 155.265 341.732 154.318C343.323 153.371 345.189 152.898 347.329 152.898C348.768 152.898 350.108 153.13 351.349 153.594C352.599 154.048 353.688 154.735 354.616 155.653C355.553 156.572 356.283 157.727 356.803 159.119C357.324 160.502 357.585 162.121 357.585 163.977V165.639H339.161V161.889H351.889C351.889 161.018 351.699 160.246 351.32 159.574C350.942 158.902 350.416 158.376 349.744 157.997C349.081 157.609 348.309 157.415 347.428 157.415C346.51 157.415 345.695 157.628 344.985 158.054C344.284 158.471 343.735 159.034 343.337 159.744C342.94 160.445 342.736 161.226 342.727 162.088V165.653C342.727 166.733 342.926 167.666 343.323 168.452C343.73 169.238 344.303 169.844 345.042 170.27C345.781 170.696 346.657 170.909 347.67 170.909C348.342 170.909 348.958 170.814 349.516 170.625C350.075 170.436 350.553 170.152 350.951 169.773C351.349 169.394 351.652 168.93 351.86 168.381L357.457 168.75C357.173 170.095 356.59 171.269 355.71 172.273C354.838 173.267 353.712 174.044 352.329 174.602C350.956 175.152 349.37 175.426 347.57 175.426ZM2.41477 231.182V201.182H8.38068V204.847H8.65057C8.91572 204.259 9.29924 203.663 9.80114 203.057C10.3125 202.441 10.9754 201.93 11.7898 201.523C12.6136 201.106 13.6364 200.898 14.858 200.898C16.4489 200.898 17.9167 201.314 19.2614 202.148C20.6061 202.972 21.6809 204.217 22.4858 205.884C23.2907 207.541 23.6932 209.619 23.6932 212.119C23.6932 214.553 23.3002 216.608 22.5142 218.284C21.7377 219.951 20.6771 221.215 19.3324 222.077C17.9972 222.929 16.5009 223.355 14.8438 223.355C13.6695 223.355 12.6705 223.161 11.8466 222.773C11.0322 222.384 10.3646 221.897 9.84375 221.31C9.32292 220.713 8.92519 220.112 8.65057 219.506H8.46591V231.182H2.41477ZM8.33807 212.091C8.33807 213.388 8.51799 214.52 8.87784 215.486C9.23769 216.452 9.75852 217.205 10.4403 217.744C11.1222 218.275 11.9508 218.54 12.9261 218.54C13.911 218.54 14.7443 218.27 15.4261 217.73C16.108 217.181 16.6241 216.423 16.9744 215.457C17.3343 214.482 17.5142 213.36 17.5142 212.091C17.5142 210.831 17.339 209.723 16.9886 208.767C16.6383 207.811 16.1222 207.062 15.4403 206.523C14.7585 205.983 13.9205 205.713 12.9261 205.713C11.9413 205.713 11.108 205.973 10.4261 206.494C9.75379 207.015 9.23769 207.754 8.87784 208.71C8.51799 209.667 8.33807 210.794 8.33807 212.091ZM40.9188 213.71V201.182H46.9699V223H41.1602V219.037H40.933C40.4405 220.315 39.6214 221.343 38.4756 222.119C37.3392 222.896 35.9519 223.284 34.3136 223.284C32.8553 223.284 31.5722 222.953 30.4642 222.29C29.3563 221.627 28.4898 220.685 27.8648 219.463C27.2492 218.241 26.9367 216.778 26.9273 215.074V201.182H32.9784V213.994C32.9879 215.282 33.3335 216.3 34.0153 217.048C34.6972 217.796 35.611 218.17 36.7568 218.17C37.486 218.17 38.1678 218.005 38.8023 217.673C39.4367 217.332 39.9481 216.83 40.3364 216.168C40.7341 215.505 40.9282 214.686 40.9188 213.71ZM51.0101 223V201.182H56.8766V204.989H57.1038C57.5016 203.634 58.1692 202.612 59.1067 201.92C60.0442 201.22 61.1237 200.869 62.3453 200.869C62.6483 200.869 62.975 200.888 63.3254 200.926C63.6758 200.964 63.9836 201.016 64.2487 201.082V206.452C63.9646 206.366 63.5716 206.291 63.0697 206.224C62.5679 206.158 62.1086 206.125 61.6919 206.125C60.8018 206.125 60.0063 206.319 59.3055 206.707C58.6143 207.086 58.065 207.616 57.6578 208.298C57.2601 208.98 57.0612 209.766 57.0612 210.656V223H51.0101ZM75.4196 223.426C73.1848 223.426 71.2624 222.953 69.6526 222.006C68.0522 221.049 66.8211 219.723 65.9594 218.028C65.1071 216.333 64.681 214.383 64.681 212.176C64.681 209.941 65.1118 207.981 65.9736 206.295C66.8448 204.6 68.0806 203.279 69.681 202.332C71.2813 201.376 73.1848 200.898 75.3912 200.898C77.2946 200.898 78.9613 201.243 80.3912 201.935C81.8211 202.626 82.9527 203.597 83.7861 204.847C84.6194 206.097 85.0787 207.564 85.1639 209.25H79.4537C79.2927 208.161 78.8666 207.285 78.1753 206.622C77.4935 205.95 76.5986 205.614 75.4906 205.614C74.5531 205.614 73.734 205.869 73.0332 206.381C72.3419 206.883 71.8022 207.616 71.4139 208.582C71.0257 209.548 70.8315 210.718 70.8315 212.091C70.8315 213.483 71.0209 214.667 71.3997 215.642C71.788 216.617 72.3325 217.361 73.0332 217.872C73.734 218.384 74.5531 218.639 75.4906 218.639C76.1819 218.639 76.8022 218.497 77.3514 218.213C77.9101 217.929 78.3694 217.517 78.7293 216.977C79.0986 216.428 79.3401 215.77 79.4537 215.003H85.1639C85.0692 216.67 84.6147 218.137 83.8003 219.406C82.9954 220.666 81.8827 221.651 80.4622 222.361C79.0418 223.071 77.3609 223.426 75.4196 223.426ZM94.2893 210.386V223H88.2382V193.909H94.1189V205.031H94.3746C94.867 203.743 95.6625 202.735 96.7609 202.006C97.8594 201.267 99.2373 200.898 100.894 200.898C102.41 200.898 103.731 201.229 104.858 201.892C105.994 202.545 106.875 203.488 107.5 204.719C108.134 205.94 108.447 207.403 108.437 209.108V223H102.386V210.188C102.395 208.843 102.055 207.796 101.363 207.048C100.681 206.3 99.725 205.926 98.4939 205.926C97.67 205.926 96.9409 206.101 96.3064 206.452C95.6814 206.802 95.189 207.313 94.8291 207.986C94.4787 208.649 94.2988 209.449 94.2893 210.386ZM118.621 223.412C117.229 223.412 115.988 223.17 114.899 222.688C113.81 222.195 112.948 221.471 112.314 220.514C111.689 219.548 111.376 218.346 111.376 216.906C111.376 215.694 111.599 214.676 112.044 213.852C112.489 213.028 113.095 212.366 113.862 211.864C114.629 211.362 115.5 210.983 116.476 210.727C117.461 210.472 118.493 210.292 119.572 210.188C120.841 210.055 121.864 209.932 122.641 209.818C123.417 209.695 123.981 209.515 124.331 209.278C124.681 209.042 124.857 208.691 124.857 208.227V208.142C124.857 207.242 124.572 206.546 124.004 206.054C123.446 205.562 122.65 205.315 121.618 205.315C120.529 205.315 119.662 205.557 119.018 206.04C118.375 206.513 117.948 207.11 117.74 207.83L112.143 207.375C112.428 206.049 112.986 204.903 113.82 203.938C114.653 202.962 115.728 202.214 117.044 201.693C118.37 201.163 119.904 200.898 121.646 200.898C122.858 200.898 124.018 201.04 125.126 201.324C126.244 201.608 127.233 202.048 128.095 202.645C128.966 203.241 129.653 204.009 130.155 204.946C130.657 205.874 130.908 206.987 130.908 208.284V223H125.169V219.974H124.999C124.648 220.656 124.179 221.258 123.592 221.778C123.005 222.29 122.3 222.692 121.476 222.986C120.652 223.27 119.7 223.412 118.621 223.412ZM120.354 219.236C121.244 219.236 122.03 219.061 122.712 218.71C123.393 218.35 123.929 217.867 124.317 217.261C124.705 216.655 124.899 215.969 124.899 215.202V212.886C124.71 213.009 124.449 213.123 124.118 213.227C123.796 213.322 123.431 213.412 123.024 213.497C122.617 213.573 122.21 213.644 121.803 213.71C121.395 213.767 121.026 213.819 120.695 213.866C119.984 213.971 119.364 214.136 118.834 214.364C118.304 214.591 117.892 214.899 117.598 215.287C117.304 215.666 117.158 216.139 117.158 216.707C117.158 217.531 117.456 218.161 118.053 218.597C118.659 219.023 119.426 219.236 120.354 219.236ZM152.956 207.403L147.416 207.744C147.321 207.271 147.118 206.845 146.805 206.466C146.493 206.078 146.081 205.77 145.569 205.543C145.067 205.306 144.466 205.188 143.765 205.188C142.828 205.188 142.037 205.386 141.393 205.784C140.749 206.172 140.427 206.693 140.427 207.347C140.427 207.867 140.636 208.308 141.052 208.668C141.469 209.027 142.184 209.316 143.197 209.534L147.146 210.33C149.267 210.765 150.849 211.466 151.89 212.432C152.932 213.398 153.453 214.667 153.453 216.239C153.453 217.669 153.031 218.923 152.189 220.003C151.355 221.082 150.209 221.925 148.751 222.531C147.302 223.128 145.631 223.426 143.737 223.426C140.849 223.426 138.548 222.825 136.834 221.622C135.129 220.41 134.13 218.762 133.836 216.679L139.788 216.366C139.968 217.247 140.404 217.92 141.095 218.384C141.786 218.838 142.672 219.065 143.751 219.065C144.812 219.065 145.664 218.862 146.308 218.455C146.961 218.038 147.293 217.503 147.302 216.849C147.293 216.3 147.061 215.85 146.606 215.5C146.152 215.14 145.451 214.866 144.504 214.676L140.726 213.923C138.595 213.497 137.009 212.759 135.967 211.707C134.935 210.656 134.419 209.316 134.419 207.688C134.419 206.286 134.798 205.079 135.555 204.065C136.322 203.052 137.397 202.271 138.78 201.722C140.172 201.172 141.8 200.898 143.666 200.898C146.422 200.898 148.59 201.48 150.172 202.645C151.762 203.81 152.691 205.396 152.956 207.403ZM166.406 223.426C164.162 223.426 162.23 222.972 160.611 222.062C159.001 221.144 157.761 219.847 156.889 218.17C156.018 216.485 155.583 214.491 155.583 212.19C155.583 209.946 156.018 207.976 156.889 206.281C157.761 204.586 158.987 203.265 160.568 202.318C162.159 201.371 164.025 200.898 166.165 200.898C167.604 200.898 168.944 201.13 170.185 201.594C171.435 202.048 172.524 202.735 173.452 203.653C174.389 204.572 175.119 205.727 175.639 207.119C176.16 208.502 176.421 210.121 176.421 211.977V213.639H157.997V209.889H170.725C170.725 209.018 170.535 208.246 170.156 207.574C169.778 206.902 169.252 206.376 168.58 205.997C167.917 205.609 167.145 205.415 166.264 205.415C165.346 205.415 164.531 205.628 163.821 206.054C163.12 206.471 162.571 207.034 162.173 207.744C161.776 208.445 161.572 209.226 161.563 210.088V213.653C161.563 214.733 161.761 215.666 162.159 216.452C162.566 217.238 163.139 217.844 163.878 218.27C164.617 218.696 165.493 218.909 166.506 218.909C167.178 218.909 167.794 218.814 168.352 218.625C168.911 218.436 169.389 218.152 169.787 217.773C170.185 217.394 170.488 216.93 170.696 216.381L176.293 216.75C176.009 218.095 175.426 219.269 174.546 220.273C173.674 221.267 172.547 222.044 171.165 222.602C169.792 223.152 168.206 223.426 166.406 223.426ZM183.106 223.369C182.169 223.369 181.364 223.038 180.692 222.375C180.029 221.703 179.697 220.898 179.697 219.96C179.697 219.032 180.029 218.237 180.692 217.574C181.364 216.911 182.169 216.58 183.106 216.58C184.015 216.58 184.811 216.911 185.493 217.574C186.175 218.237 186.515 219.032 186.515 219.96C186.515 220.585 186.355 221.158 186.033 221.679C185.72 222.19 185.308 222.602 184.797 222.915C184.285 223.218 183.722 223.369 183.106 223.369ZM197.561 203V199.932C197.561 199.061 197.732 198.17 198.072 197.261C198.413 196.352 198.863 195.495 199.422 194.69C199.981 193.885 200.587 193.213 201.24 192.673L203.911 194.25C203.38 195.083 202.945 195.955 202.604 196.864C202.272 197.773 202.107 198.786 202.107 199.903V203H197.561ZM204.734 203V199.932C204.734 199.061 204.905 198.17 205.246 197.261C205.587 196.352 206.036 195.495 206.595 194.69C207.154 193.885 207.76 193.213 208.413 192.673L211.084 194.25C210.554 195.083 210.118 195.955 209.777 196.864C209.446 197.773 209.28 198.786 209.28 199.903V203H204.734Z" fill="black"/>
</svg>
