<svg width="298" height="124" viewBox="0 0 298 124" fill="none" xmlns="http://www.w3.org/2000/svg">
<path d="M115.973 19.9012H120.622C120.803 20.4922 121.416 21.0833 122.565 21.0833C124.122 21.0833 124.658 20.1086 124.658 18.6672V17.6406H124.555C123.787 18.5428 122.766 19.2064 121.261 19.2064C118.298 19.2064 115.721 16.9977 115.721 12.6789C115.721 8.72294 117.839 5.63804 121.035 5.63804C122.875 5.63804 123.998 6.38464 124.741 7.56675H124.818V6.05282H129.415V18.0243C129.415 20.233 128.647 21.9543 127.498 22.9861C126.297 24.0645 124.586 24.5 122.643 24.5C118.989 24.5 116.437 22.9809 115.973 19.9012ZM124.864 12.4456C124.864 10.7242 124.05 9.33474 122.643 9.33474C121.287 9.33474 120.421 10.5687 120.421 12.4456C120.421 14.2965 121.292 15.629 122.643 15.629C124.045 15.6342 124.864 14.2706 124.864 12.4456ZM110.587 8.41186H110.665C111.659 6.48315 112.963 5.76766 114.623 5.76766C115.004 5.76766 115.262 5.81951 115.417 5.89728V10.1384H115.314C112.479 9.62508 110.819 10.9887 110.819 14.0943V19.8752H105.99V6.05282H110.587V8.41186ZM0.738647 0.5H10.1912C11.9797 0.5 13.3558 0.935515 14.3299 1.73396C15.4278 2.63091 16.0153 3.96857 16.0153 5.56027C16.0153 7.41121 15.2731 8.5674 13.7424 9.28808V9.36585C15.737 10.0347 16.8864 11.8338 16.8864 14.0165C16.8864 16.0956 16.0926 17.7184 14.7938 18.6931C13.696 19.4916 12.2683 19.8752 10.3768 19.8752H0.738647V0.5ZM9.73251 15.5823C10.8819 15.5823 11.722 14.8876 11.722 13.6018C11.722 12.2641 10.8046 11.6212 9.70674 11.6212H5.97519V15.5771H9.73251V15.5823ZM9.24287 8.08004C10.2634 8.08004 11.0056 7.51491 11.0056 6.38464C11.0056 5.2803 10.2376 4.74109 9.2171 4.74109H5.97519V8.08004H9.24287Z" fill="black"/>
<path d="M17.7522 0.5H22.7053V19.8752H17.7522V0.5ZM23.6536 12.9848C23.6536 8.61925 26.4626 5.66397 30.8075 5.66397C35.1524 5.66397 37.9098 8.61925 37.9098 12.9848C37.9098 17.3814 35.1524 20.3056 30.8075 20.3056C26.4626 20.3108 23.6536 17.3814 23.6536 12.9848ZM33.0031 12.9848C33.0031 10.5687 32.2352 9.05476 30.7559 9.05476C29.2767 9.05476 28.5603 10.5687 28.5603 12.9848C28.5603 15.4268 29.2767 16.9407 30.7559 16.9407C32.2352 16.9459 33.0031 15.4268 33.0031 12.9848ZM38.4716 12.9848C38.4716 8.61925 41.2806 5.66397 45.6254 5.66397C49.9703 5.66397 52.7278 8.61925 52.7278 12.9848C52.7278 17.3814 49.9703 20.3056 45.6254 20.3056C41.2806 20.3108 38.4716 17.3814 38.4716 12.9848ZM47.8211 12.9848C47.8211 10.5687 47.0531 9.05476 45.5739 9.05476C44.0947 9.05476 43.3783 10.5687 43.3783 12.9848C43.3783 15.4268 44.0947 16.9407 45.5739 16.9407C47.0531 16.9459 47.8211 15.4268 47.8211 12.9848ZM53.671 6.05282H58.2684V8.13188H58.3457C59.2631 6.51426 60.5156 5.63804 62.4844 5.63804C64.2213 5.63804 65.5253 6.50907 66.1902 8.02819H66.2675C67.3911 6.20317 68.8497 5.63804 70.5351 5.63804C73.7306 5.63804 75.1067 8.00227 75.1067 11.1857V19.8701H70.2774V12.0619C70.2774 10.6465 69.8444 9.72359 68.6178 9.72359C67.4169 9.72359 66.8035 10.8539 66.8035 12.347V19.8752H61.969V12.0619C61.969 10.6465 61.5361 9.72359 60.3094 9.72359C59.1085 9.72359 58.4952 10.8539 58.4952 12.347V19.8752H53.671V6.05282ZM81.003 18.0761H80.9515V19.8752H76.354V0.5H81.1834V7.48898H81.2607C82.1781 6.28095 83.4048 5.63804 85.1675 5.63804C88.6156 5.63804 90.6102 8.77479 90.6102 12.9329C90.6102 17.6354 88.4403 20.3315 84.8634 20.3315C83.379 20.3367 81.8483 19.616 81.003 18.0761ZM85.7035 12.8863C85.7035 10.6517 84.8892 9.2103 83.4306 9.2103C81.9513 9.2103 81.003 10.6517 81.003 12.8863C81.003 15.0949 81.9462 16.5622 83.4306 16.5622C84.9098 16.557 85.7035 15.1209 85.7035 12.8863ZM91.2235 12.9381C91.2235 8.61925 94.0583 5.6173 98.1712 5.6173C100.212 5.6173 101.8 6.26021 103.001 7.4164C104.583 8.95625 105.299 11.3723 105.248 14.2239H96.0271C96.2333 15.9452 97.0476 16.8214 98.5062 16.8214C99.3515 16.8214 100.089 16.4378 100.398 15.5097H105.047C104.232 18.6672 101.805 20.2641 98.3568 20.2641C94.084 20.2589 91.2235 17.3555 91.2235 12.9381ZM96.0271 11.4968H100.418C100.341 9.82728 99.4237 8.95107 98.2743 8.95107C96.9445 8.95107 96.2024 9.90505 96.0271 11.4968Z" fill="black"/>
<path d="M0.90767 58.5V57.2727C0.90767 56.9105 0.975852 56.5291 1.11222 56.1286C1.24858 55.728 1.43821 55.3445 1.68111 54.978C1.92401 54.6115 2.20952 54.2983 2.53764 54.0384L3.48366 54.7159C3.22372 55.0952 3.00213 55.4915 2.81889 55.9048C2.63565 56.3182 2.54403 56.7678 2.54403 57.2536V58.5H0.90767ZM4.16761 58.5V57.2727C4.16761 56.9105 4.2358 56.5291 4.37216 56.1286C4.50852 55.728 4.69815 55.3445 4.94105 54.978C5.18395 54.6115 5.46946 54.2983 5.79759 54.0384L6.74361 54.7159C6.48367 55.0952 6.26207 55.4915 6.07884 55.9048C5.8956 56.3182 5.80398 56.7678 5.80398 57.2536V58.5H4.16761ZM8.53977 67.5V54.4091H16.6577V56.1094H10.5149V60.098H16.076V61.7919H10.5149V67.5H8.53977ZM18.9332 67.5V57.6818H20.8445V67.5H18.9332ZM19.8984 56.1669C19.5661 56.1669 19.2805 56.0561 19.0419 55.8345C18.8075 55.6087 18.6903 55.3402 18.6903 55.0291C18.6903 54.7138 18.8075 54.4453 19.0419 54.2237C19.2805 53.9979 19.5661 53.8849 19.8984 53.8849C20.2308 53.8849 20.5142 53.9979 20.7486 54.2237C20.9872 54.4453 21.1065 54.7138 21.1065 55.0291C21.1065 55.3402 20.9872 55.6087 20.7486 55.8345C20.5142 56.0561 20.2308 56.1669 19.8984 56.1669ZM23.4157 67.5V57.6818H25.263V59.2415H25.3652C25.5442 58.7131 25.8596 58.2976 26.3113 57.995C26.7672 57.6882 27.2828 57.5348 27.8581 57.5348C27.9775 57.5348 28.1181 57.5391 28.28 57.5476C28.4462 57.5561 28.5762 57.5668 28.6699 57.5795V59.4077C28.5932 59.3864 28.4569 59.3629 28.2608 59.3374C28.0648 59.3075 27.8688 59.2926 27.6728 59.2926C27.2211 59.2926 26.8184 59.3885 26.4647 59.5803C26.1152 59.7678 25.8382 60.0298 25.6337 60.3665C25.4292 60.6989 25.3269 61.0781 25.3269 61.5043V67.5H23.4157ZM37.6811 60.0788L35.9489 60.3857C35.8764 60.1641 35.7614 59.9531 35.6037 59.7528C35.4503 59.5526 35.2415 59.3885 34.9773 59.2607C34.7131 59.1328 34.3828 59.0689 33.9865 59.0689C33.4453 59.0689 32.9936 59.1903 32.6314 59.4332C32.2692 59.6719 32.0881 59.9808 32.0881 60.3601C32.0881 60.6882 32.2095 60.9524 32.4524 61.1527C32.6953 61.353 33.0874 61.517 33.6286 61.6449L35.1882 62.0028C36.0916 62.2116 36.7649 62.5334 37.2081 62.968C37.6513 63.4027 37.8729 63.9673 37.8729 64.6619C37.8729 65.25 37.7024 65.7741 37.3615 66.2344C37.0249 66.6903 36.554 67.0483 35.9489 67.3082C35.348 67.5682 34.6513 67.6982 33.8587 67.6982C32.7592 67.6982 31.8622 67.4638 31.1676 66.995C30.473 66.522 30.0469 65.8509 29.8892 64.9815L31.7365 64.7003C31.8516 65.1818 32.0881 65.5462 32.446 65.7933C32.804 66.0362 33.2706 66.1577 33.8459 66.1577C34.4723 66.1577 34.973 66.0277 35.348 65.7678C35.723 65.5036 35.9105 65.1818 35.9105 64.8026C35.9105 64.4957 35.7955 64.2379 35.5653 64.0291C35.3395 63.8203 34.9922 63.6626 34.5234 63.5561L32.8615 63.1918C31.9453 62.983 31.2678 62.6506 30.8288 62.1946C30.3942 61.7386 30.1768 61.1612 30.1768 60.4624C30.1768 59.8828 30.3388 59.3757 30.6626 58.9411C30.9865 58.5064 31.4339 58.1676 32.005 57.9247C32.576 57.6776 33.2301 57.554 33.9673 57.554C35.0284 57.554 35.8636 57.7841 36.473 58.2443C37.0824 58.7003 37.4851 59.3118 37.6811 60.0788ZM44.5574 57.6818V59.2159H39.1944V57.6818H44.5574ZM40.6326 55.3295H42.5439V64.6172C42.5439 64.9879 42.5993 65.267 42.71 65.4545C42.8208 65.6378 42.9636 65.7635 43.1383 65.8317C43.3173 65.8956 43.5112 65.9276 43.72 65.9276C43.8734 65.9276 44.0076 65.9169 44.1227 65.8956C44.2377 65.8743 44.3272 65.8572 44.3912 65.8445L44.7363 67.4233C44.6255 67.4659 44.4679 67.5085 44.2633 67.5511C44.0588 67.598 43.8031 67.6236 43.4963 67.6278C42.9934 67.6364 42.5247 67.5469 42.09 67.3594C41.6554 67.1719 41.3038 66.8821 41.0353 66.4901C40.7669 66.098 40.6326 65.6058 40.6326 65.0135V55.3295ZM51.5886 67.5V54.4091H53.5637V65.7997H59.4956V67.5H51.5886ZM61.5953 67.5V57.6818H63.5066V67.5H61.5953ZM62.5605 56.1669C62.2282 56.1669 61.9426 56.0561 61.704 55.8345C61.4696 55.6087 61.3525 55.3402 61.3525 55.0291C61.3525 54.7138 61.4696 54.4453 61.704 54.2237C61.9426 53.9979 62.2282 53.8849 62.5605 53.8849C62.8929 53.8849 63.1763 53.9979 63.4107 54.2237C63.6493 54.4453 63.7686 54.7138 63.7686 55.0291C63.7686 55.3402 63.6493 55.6087 63.4107 55.8345C63.1763 56.0561 62.8929 56.1669 62.5605 56.1669ZM70.1942 71.3864C69.4144 71.3864 68.7433 71.2841 68.1808 71.0795C67.6225 70.875 67.1665 70.6044 66.8129 70.2678C66.4592 69.9311 66.195 69.5625 66.0202 69.1619L67.663 68.4844C67.7781 68.6719 67.9315 68.87 68.1232 69.0788C68.3192 69.2919 68.5835 69.473 68.9158 69.6222C69.2525 69.7713 69.685 69.8459 70.2134 69.8459C70.9379 69.8459 71.5366 69.669 72.0096 69.3153C72.4826 68.9659 72.7191 68.4077 72.7191 67.6406V65.7102H72.5977C72.4826 65.919 72.3164 66.1513 72.0991 66.407C71.886 66.6626 71.592 66.8842 71.217 67.0717C70.842 67.2592 70.354 67.353 69.7532 67.353C68.9776 67.353 68.2788 67.1719 67.6566 66.8097C67.0387 66.4432 66.5487 65.9041 66.1864 65.1925C65.8285 64.4766 65.6495 63.5966 65.6495 62.5526C65.6495 61.5085 65.8263 60.6136 66.18 59.8679C66.538 59.1222 67.0281 58.5511 67.6502 58.1548C68.2724 57.7543 68.9776 57.554 69.766 57.554C70.3754 57.554 70.8675 57.6562 71.2425 57.8608C71.6175 58.0611 71.9094 58.2955 72.1183 58.5639C72.3313 58.8324 72.4954 59.0689 72.6104 59.2734H72.7511V57.6818H74.6239V67.7173C74.6239 68.5611 74.4279 69.2536 74.0359 69.7947C73.6438 70.3359 73.1133 70.7365 72.4442 70.9964C71.7795 71.2564 71.0295 71.3864 70.1942 71.3864ZM70.1751 65.7678C70.7248 65.7678 71.1893 65.6399 71.5685 65.3842C71.9521 65.1243 72.2418 64.7536 72.4379 64.272C72.6381 63.7862 72.7383 63.2045 72.7383 62.527C72.7383 61.8665 72.6403 61.2848 72.4442 60.782C72.2482 60.2791 71.9606 59.8871 71.5813 59.6058C71.2021 59.3203 70.7333 59.1776 70.1751 59.1776C69.5998 59.1776 69.1204 59.3267 68.7369 59.625C68.3533 59.919 68.0636 60.3196 67.8675 60.8267C67.6758 61.3338 67.5799 61.9006 67.5799 62.527C67.5799 63.1705 67.6779 63.7351 67.8739 64.2209C68.07 64.7067 68.3597 65.0859 68.7433 65.3587C69.131 65.6314 69.6083 65.7678 70.1751 65.7678ZM79.0984 61.6705V67.5H77.1871V54.4091H79.0728V59.2798H79.1942C79.4244 58.7514 79.7759 58.3317 80.2489 58.0206C80.7219 57.7095 81.3398 57.554 82.1026 57.554C82.7759 57.554 83.364 57.6925 83.8668 57.9695C84.3739 58.2464 84.766 58.6598 85.043 59.2095C85.3242 59.755 85.4648 60.4368 85.4648 61.255V67.5H83.5536V61.4851C83.5536 60.7649 83.3683 60.2067 82.9975 59.8104C82.6268 59.4098 82.1112 59.2095 81.4506 59.2095C80.9989 59.2095 80.5941 59.3054 80.2362 59.4972C79.8825 59.6889 79.6033 59.9702 79.3988 60.3409C79.1985 60.7074 79.0984 61.1506 79.0984 61.6705ZM92.5984 57.6818V59.2159H87.2354V57.6818H92.5984ZM88.6737 55.3295H90.5849V64.6172C90.5849 64.9879 90.6403 65.267 90.7511 65.4545C90.8619 65.6378 91.0046 65.7635 91.1793 65.8317C91.3583 65.8956 91.5522 65.9276 91.761 65.9276C91.9144 65.9276 92.0487 65.9169 92.1637 65.8956C92.2788 65.8743 92.3683 65.8572 92.4322 65.8445L92.7773 67.4233C92.6665 67.4659 92.5089 67.5085 92.3043 67.5511C92.0998 67.598 91.8441 67.6236 91.5373 67.6278C91.0344 67.6364 90.5657 67.5469 90.131 67.3594C89.6964 67.1719 89.3448 66.8821 89.0763 66.4901C88.8079 66.098 88.6737 65.6058 88.6737 65.0135V55.3295ZM95.9909 67.6214C95.6415 67.6214 95.3411 67.4979 95.0897 67.2507C94.8382 66.9993 94.7125 66.6967 94.7125 66.343C94.7125 65.9936 94.8382 65.6953 95.0897 65.4482C95.3411 65.1967 95.6415 65.071 95.9909 65.071C96.3404 65.071 96.6408 65.1967 96.8922 65.4482C97.1436 65.6953 97.2694 65.9936 97.2694 66.343C97.2694 66.5774 97.2097 66.7926 97.0904 66.9886C96.9753 67.1804 96.8219 67.3338 96.6301 67.4489C96.4384 67.5639 96.2253 67.6214 95.9909 67.6214ZM95.9909 60.4751C95.6415 60.4751 95.3411 60.3494 95.0897 60.098C94.8382 59.8466 94.7125 59.5462 94.7125 59.1967C94.7125 58.8473 94.8382 58.549 95.0897 58.3018C95.3411 58.0504 95.6415 57.9247 95.9909 57.9247C96.3404 57.9247 96.6408 58.0504 96.8922 58.3018C97.1436 58.549 97.2694 58.8473 97.2694 59.1967C97.2694 59.4311 97.2097 59.6463 97.0904 59.8423C96.9753 60.0341 96.8219 60.1875 96.6301 60.3026C96.4384 60.4176 96.2253 60.4751 95.9909 60.4751ZM107.29 67.5L103.66 54.4091H105.737L108.288 64.5469H108.409L111.062 54.4091H113.12L115.773 64.5533H115.894L118.438 54.4091H120.522L116.885 67.5H114.897L112.142 57.6946H112.04L109.285 67.5H107.29ZM124.081 61.6705V67.5H122.17V54.4091H124.055V59.2798H124.177C124.407 58.7514 124.758 58.3317 125.231 58.0206C125.704 57.7095 126.322 57.554 127.085 57.554C127.758 57.554 128.346 57.6925 128.849 57.9695C129.356 58.2464 129.748 58.6598 130.025 59.2095C130.307 59.755 130.447 60.4368 130.447 61.255V67.5H128.536V61.4851C128.536 60.7649 128.351 60.2067 127.98 59.8104C127.609 59.4098 127.094 59.2095 126.433 59.2095C125.981 59.2095 125.577 59.3054 125.219 59.4972C124.865 59.6889 124.586 59.9702 124.381 60.3409C124.181 60.7074 124.081 61.1506 124.081 61.6705ZM137.229 67.6982C136.262 67.6982 135.429 67.4915 134.73 67.0781C134.035 66.6605 133.498 66.0746 133.119 65.3203C132.744 64.5618 132.557 63.6733 132.557 62.6548C132.557 61.6491 132.744 60.7628 133.119 59.9957C133.498 59.2287 134.027 58.63 134.704 58.1996C135.386 57.7692 136.183 57.554 137.095 57.554C137.649 57.554 138.186 57.6456 138.706 57.8288C139.226 58.0121 139.692 58.2997 140.106 58.6918C140.519 59.0838 140.845 59.593 141.084 60.2195C141.322 60.8416 141.442 61.598 141.442 62.4886V63.1662H133.637V61.7344H139.569C139.569 61.2315 139.466 60.7862 139.262 60.3984C139.057 60.0064 138.77 59.6974 138.399 59.4716C138.032 59.2457 137.602 59.1328 137.108 59.1328C136.571 59.1328 136.102 59.2649 135.702 59.5291C135.305 59.7891 134.998 60.13 134.781 60.5518C134.568 60.9695 134.461 61.4233 134.461 61.9134V63.032C134.461 63.6882 134.577 64.2464 134.807 64.7067C135.041 65.1669 135.367 65.5185 135.785 65.7614C136.202 66 136.69 66.1193 137.248 66.1193C137.611 66.1193 137.941 66.0682 138.239 65.9659C138.537 65.8594 138.795 65.7017 139.013 65.4929C139.23 65.2841 139.396 65.0263 139.511 64.7195L141.32 65.0455C141.175 65.5781 140.915 66.0447 140.54 66.4453C140.17 66.8416 139.703 67.1506 139.14 67.3722C138.582 67.5895 137.945 67.6982 137.229 67.6982ZM143.562 67.5V57.6818H145.409V59.2415H145.512C145.691 58.7131 146.006 58.2976 146.458 57.995C146.914 57.6882 147.429 57.5348 148.005 57.5348C148.124 57.5348 148.265 57.5391 148.426 57.5476C148.593 57.5561 148.723 57.5668 148.816 57.5795V59.4077C148.74 59.3864 148.603 59.3629 148.407 59.3374C148.211 59.3075 148.015 59.2926 147.819 59.2926C147.368 59.2926 146.965 59.3885 146.611 59.5803C146.262 59.7678 145.985 60.0298 145.78 60.3665C145.576 60.6989 145.473 61.0781 145.473 61.5043V67.5H143.562ZM154.35 67.6982C153.383 67.6982 152.55 67.4915 151.851 67.0781C151.156 66.6605 150.619 66.0746 150.24 65.3203C149.865 64.5618 149.678 63.6733 149.678 62.6548C149.678 61.6491 149.865 60.7628 150.24 59.9957C150.619 59.2287 151.148 58.63 151.825 58.1996C152.507 57.7692 153.304 57.554 154.216 57.554C154.77 57.554 155.307 57.6456 155.827 57.8288C156.347 58.0121 156.813 58.2997 157.227 58.6918C157.64 59.0838 157.966 59.593 158.205 60.2195C158.443 60.8416 158.563 61.598 158.563 62.4886V63.1662H150.758V61.7344H156.69C156.69 61.2315 156.588 60.7862 156.383 60.3984C156.178 60.0064 155.891 59.6974 155.52 59.4716C155.154 59.2457 154.723 59.1328 154.229 59.1328C153.692 59.1328 153.223 59.2649 152.823 59.5291C152.426 59.7891 152.119 60.13 151.902 60.5518C151.689 60.9695 151.583 61.4233 151.583 61.9134V63.032C151.583 63.6882 151.698 64.2464 151.928 64.7067C152.162 65.1669 152.488 65.5185 152.906 65.7614C153.323 66 153.811 66.1193 154.369 66.1193C154.732 66.1193 155.062 66.0682 155.36 65.9659C155.659 65.8594 155.916 65.7017 156.134 65.4929C156.351 65.2841 156.517 65.0263 156.632 64.7195L158.441 65.0455C158.296 65.5781 158.036 66.0447 157.661 66.4453C157.291 66.8416 156.824 67.1506 156.262 67.3722C155.703 67.5895 155.066 67.6982 154.35 67.6982ZM169.563 71.3864C168.784 71.3864 168.112 71.2841 167.55 71.0795C166.992 70.875 166.536 70.6044 166.182 70.2678C165.828 69.9311 165.564 69.5625 165.389 69.1619L167.032 68.4844C167.147 68.6719 167.301 68.87 167.492 69.0788C167.688 69.2919 167.953 69.473 168.285 69.6222C168.622 69.7713 169.054 69.8459 169.583 69.8459C170.307 69.8459 170.906 69.669 171.379 69.3153C171.852 68.9659 172.088 68.4077 172.088 67.6406V65.7102H171.967C171.852 65.919 171.686 66.1513 171.468 66.407C171.255 66.6626 170.961 66.8842 170.586 67.0717C170.211 67.2592 169.723 67.353 169.122 67.353C168.347 67.353 167.648 67.1719 167.026 66.8097C166.408 66.4432 165.918 65.9041 165.556 65.1925C165.198 64.4766 165.019 63.5966 165.019 62.5526C165.019 61.5085 165.195 60.6136 165.549 59.8679C165.907 59.1222 166.397 58.5511 167.019 58.1548C167.642 57.7543 168.347 57.554 169.135 57.554C169.744 57.554 170.237 57.6562 170.612 57.8608C170.987 58.0611 171.279 58.2955 171.487 58.5639C171.7 58.8324 171.865 59.0689 171.98 59.2734H172.12V57.6818H173.993V67.7173C173.993 68.5611 173.797 69.2536 173.405 69.7947C173.013 70.3359 172.482 70.7365 171.813 70.9964C171.149 71.2564 170.399 71.3864 169.563 71.3864ZM169.544 65.7678C170.094 65.7678 170.558 65.6399 170.938 65.3842C171.321 65.1243 171.611 64.7536 171.807 64.272C172.007 63.7862 172.107 63.2045 172.107 62.527C172.107 61.8665 172.009 61.2848 171.813 60.782C171.617 60.2791 171.33 59.8871 170.95 59.6058C170.571 59.3203 170.102 59.1776 169.544 59.1776C168.969 59.1776 168.49 59.3267 168.106 59.625C167.722 59.919 167.433 60.3196 167.237 60.8267C167.045 61.3338 166.949 61.9006 166.949 62.527C166.949 63.1705 167.047 63.7351 167.243 64.2209C167.439 64.7067 167.729 65.0859 168.112 65.3587C168.5 65.6314 168.977 65.7678 169.544 65.7678ZM176.556 67.5V57.6818H178.404V59.2415H178.506C178.685 58.7131 179 58.2976 179.452 57.995C179.908 57.6882 180.423 57.5348 180.999 57.5348C181.118 57.5348 181.259 57.5391 181.421 57.5476C181.587 57.5561 181.717 57.5668 181.811 57.5795V59.4077C181.734 59.3864 181.597 59.3629 181.401 59.3374C181.205 59.3075 181.009 59.2926 180.813 59.2926C180.362 59.2926 179.959 59.3885 179.605 59.5803C179.256 59.7678 178.979 60.0298 178.774 60.3665C178.57 60.6989 178.468 61.0781 178.468 61.5043V67.5H176.556ZM187.344 67.6982C186.377 67.6982 185.544 67.4915 184.845 67.0781C184.151 66.6605 183.614 66.0746 183.234 65.3203C182.859 64.5618 182.672 63.6733 182.672 62.6548C182.672 61.6491 182.859 60.7628 183.234 59.9957C183.614 59.2287 184.142 58.63 184.82 58.1996C185.501 57.7692 186.298 57.554 187.21 57.554C187.764 57.554 188.301 57.6456 188.821 57.8288C189.341 58.0121 189.808 58.2997 190.221 58.6918C190.634 59.0838 190.96 59.593 191.199 60.2195C191.438 60.8416 191.557 61.598 191.557 62.4886V63.1662H183.752V61.7344H189.684C189.684 61.2315 189.582 60.7862 189.377 60.3984C189.173 60.0064 188.885 59.6974 188.514 59.4716C188.148 59.2457 187.717 59.1328 187.223 59.1328C186.686 59.1328 186.217 59.2649 185.817 59.5291C185.42 59.7891 185.114 60.13 184.896 60.5518C184.683 60.9695 184.577 61.4233 184.577 61.9134V63.032C184.577 63.6882 184.692 64.2464 184.922 64.7067C185.156 65.1669 185.482 65.5185 185.9 65.7614C186.317 66 186.805 66.1193 187.364 66.1193C187.726 66.1193 188.056 66.0682 188.354 65.9659C188.653 65.8594 188.911 65.7017 189.128 65.4929C189.345 65.2841 189.511 65.0263 189.626 64.7195L191.435 65.0455C191.29 65.5781 191.031 66.0447 190.656 66.4453C190.285 66.8416 189.818 67.1506 189.256 67.3722C188.697 67.5895 188.06 67.6982 187.344 67.6982ZM196.535 67.7173C195.912 67.7173 195.35 67.6023 194.847 67.3722C194.344 67.1378 193.946 66.799 193.652 66.3558C193.362 65.9126 193.217 65.3693 193.217 64.7259C193.217 64.1719 193.324 63.7159 193.537 63.358C193.75 63 194.037 62.7166 194.4 62.5078C194.762 62.299 195.167 62.1413 195.614 62.0348C196.062 61.9283 196.518 61.8473 196.982 61.7919C197.57 61.7237 198.047 61.6683 198.414 61.6257C198.78 61.5788 199.047 61.5043 199.213 61.402C199.379 61.2997 199.462 61.1335 199.462 60.9034V60.8587C199.462 60.3004 199.305 59.8679 198.989 59.5611C198.678 59.2543 198.214 59.1009 197.596 59.1009C196.952 59.1009 196.445 59.2436 196.074 59.5291C195.708 59.8104 195.454 60.1236 195.314 60.4688L193.518 60.0597C193.731 59.4631 194.042 58.9815 194.451 58.6151C194.864 58.2443 195.339 57.9759 195.876 57.8097C196.413 57.6392 196.978 57.554 197.57 57.554C197.962 57.554 198.378 57.6009 198.817 57.6946C199.26 57.7841 199.673 57.9503 200.057 58.1932C200.444 58.4361 200.762 58.7834 201.009 59.2351C201.256 59.6825 201.38 60.2642 201.38 60.9801V67.5H199.513V66.1577H199.437C199.313 66.4048 199.128 66.6477 198.881 66.8864C198.633 67.125 198.316 67.3232 197.928 67.4808C197.54 67.6385 197.076 67.7173 196.535 67.7173ZM196.95 66.1832C197.479 66.1832 197.93 66.0788 198.305 65.87C198.684 65.6612 198.972 65.3885 199.168 65.0518C199.368 64.7109 199.469 64.3466 199.469 63.9588V62.6932C199.4 62.7614 199.268 62.8253 199.072 62.8849C198.881 62.9403 198.661 62.9893 198.414 63.032C198.167 63.0703 197.926 63.1065 197.692 63.1406C197.457 63.1705 197.261 63.196 197.104 63.2173C196.733 63.2642 196.394 63.343 196.087 63.4538C195.785 63.5646 195.542 63.7244 195.358 63.9332C195.18 64.1378 195.09 64.4105 195.09 64.7514C195.09 65.2244 195.265 65.5824 195.614 65.8253C195.964 66.0639 196.409 66.1832 196.95 66.1832ZM208.509 57.6818V59.2159H203.146V57.6818H208.509ZM204.584 55.3295H206.495V64.6172C206.495 64.9879 206.55 65.267 206.661 65.4545C206.772 65.6378 206.915 65.7635 207.089 65.8317C207.268 65.8956 207.462 65.9276 207.671 65.9276C207.825 65.9276 207.959 65.9169 208.074 65.8956C208.189 65.8743 208.278 65.8572 208.342 65.8445L208.688 67.4233C208.577 67.4659 208.419 67.5085 208.214 67.5511C208.01 67.598 207.754 67.6236 207.447 67.6278C206.945 67.6364 206.476 67.5469 206.041 67.3594C205.607 67.1719 205.255 66.8821 204.987 66.4901C204.718 66.098 204.584 65.6058 204.584 65.0135V55.3295ZM219.062 67.6918C218.269 67.6918 217.562 67.4893 216.94 67.0845C216.322 66.6754 215.836 66.0937 215.482 65.3395C215.133 64.581 214.958 63.6712 214.958 62.6101C214.958 61.549 215.135 60.6413 215.489 59.8871C215.847 59.1328 216.337 58.5554 216.959 58.1548C217.581 57.7543 218.286 57.554 219.075 57.554C219.684 57.554 220.174 57.6562 220.545 57.8608C220.92 58.0611 221.21 58.2955 221.414 58.5639C221.623 58.8324 221.785 59.0689 221.9 59.2734H222.015V54.4091H223.926V67.5H222.06V65.9723H221.9C221.785 66.1811 221.619 66.4197 221.401 66.6882C221.188 66.9567 220.894 67.1911 220.519 67.3913C220.144 67.5916 219.658 67.6918 219.062 67.6918ZM219.484 66.0618C220.033 66.0618 220.498 65.9169 220.877 65.6271C221.261 65.3331 221.55 64.9261 221.746 64.4062C221.947 63.8864 222.047 63.2812 222.047 62.5909C222.047 61.9091 221.949 61.3125 221.753 60.8011C221.557 60.2898 221.269 59.8913 220.89 59.6058C220.511 59.3203 220.042 59.1776 219.484 59.1776C218.908 59.1776 218.429 59.3267 218.045 59.625C217.662 59.9233 217.372 60.3303 217.176 60.8459C216.984 61.3615 216.888 61.9432 216.888 62.5909C216.888 63.2472 216.987 63.8374 217.183 64.3615C217.379 64.8857 217.668 65.3011 218.052 65.608C218.44 65.9105 218.917 66.0618 219.484 66.0618ZM230.885 67.6982C229.918 67.6982 229.085 67.4915 228.386 67.0781C227.692 66.6605 227.155 66.0746 226.775 65.3203C226.4 64.5618 226.213 63.6733 226.213 62.6548C226.213 61.6491 226.4 60.7628 226.775 59.9957C227.155 59.2287 227.683 58.63 228.361 58.1996C229.042 57.7692 229.839 57.554 230.751 57.554C231.305 57.554 231.842 57.6456 232.362 57.8288C232.882 58.0121 233.349 58.2997 233.762 58.6918C234.175 59.0838 234.501 59.593 234.74 60.2195C234.979 60.8416 235.098 61.598 235.098 62.4886V63.1662H227.293V61.7344H233.225C233.225 61.2315 233.123 60.7862 232.918 60.3984C232.714 60.0064 232.426 59.6974 232.055 59.4716C231.689 59.2457 231.258 59.1328 230.764 59.1328C230.227 59.1328 229.758 59.2649 229.358 59.5291C228.961 59.7891 228.655 60.13 228.437 60.5518C228.224 60.9695 228.118 61.4233 228.118 61.9134V63.032C228.118 63.6882 228.233 64.2464 228.463 64.7067C228.697 65.1669 229.023 65.5185 229.441 65.7614C229.858 66 230.346 66.1193 230.905 66.1193C231.267 66.1193 231.597 66.0682 231.895 65.9659C232.194 65.8594 232.452 65.7017 232.669 65.4929C232.886 65.2841 233.052 65.0263 233.167 64.7195L234.976 65.0455C234.831 65.5781 234.572 66.0447 234.197 66.4453C233.826 66.8416 233.359 67.1506 232.797 67.3722C232.238 67.5895 231.601 67.6982 230.885 67.6982ZM244.576 60.0788L242.843 60.3857C242.771 60.1641 242.656 59.9531 242.498 59.7528C242.345 59.5526 242.136 59.3885 241.872 59.2607C241.608 59.1328 241.277 59.0689 240.881 59.0689C240.34 59.0689 239.888 59.1903 239.526 59.4332C239.164 59.6719 238.983 59.9808 238.983 60.3601C238.983 60.6882 239.104 60.9524 239.347 61.1527C239.59 61.353 239.982 61.517 240.523 61.6449L242.083 62.0028C242.986 62.2116 243.659 62.5334 244.103 62.968C244.546 63.4027 244.767 63.9673 244.767 64.6619C244.767 65.25 244.597 65.7741 244.256 66.2344C243.919 66.6903 243.449 67.0483 242.843 67.3082C242.243 67.5682 241.546 67.6982 240.753 67.6982C239.654 67.6982 238.757 67.4638 238.062 66.995C237.368 66.522 236.941 65.8509 236.784 64.9815L238.631 64.7003C238.746 65.1818 238.983 65.5462 239.341 65.7933C239.699 66.0362 240.165 66.1577 240.74 66.1577C241.367 66.1577 241.868 66.0277 242.243 65.7678C242.618 65.5036 242.805 65.1818 242.805 64.8026C242.805 64.4957 242.69 64.2379 242.46 64.0291C242.234 63.8203 241.887 63.6626 241.418 63.5561L239.756 63.1918C238.84 62.983 238.162 62.6506 237.723 62.1946C237.289 61.7386 237.071 61.1612 237.071 60.4624C237.071 59.8828 237.233 59.3757 237.557 58.9411C237.881 58.5064 238.328 58.1676 238.9 57.9247C239.471 57.6776 240.125 57.554 240.862 57.554C241.923 57.554 242.758 57.7841 243.368 58.2443C243.977 58.7003 244.38 59.3118 244.576 60.0788ZM246.869 67.5V57.6818H248.78V67.5H246.869ZM247.834 56.1669C247.502 56.1669 247.216 56.0561 246.977 55.8345C246.743 55.6087 246.626 55.3402 246.626 55.0291C246.626 54.7138 246.743 54.4453 246.977 54.2237C247.216 53.9979 247.502 53.8849 247.834 53.8849C248.166 53.8849 248.45 53.9979 248.684 54.2237C248.923 54.4453 249.042 54.7138 249.042 55.0291C249.042 55.3402 248.923 55.6087 248.684 55.8345C248.45 56.0561 248.166 56.1669 247.834 56.1669ZM255.468 71.3864C254.688 71.3864 254.017 71.2841 253.454 71.0795C252.896 70.875 252.44 70.6044 252.086 70.2678C251.733 69.9311 251.468 69.5625 251.294 69.1619L252.936 68.4844C253.051 68.6719 253.205 68.87 253.397 69.0788C253.593 69.2919 253.857 69.473 254.189 69.6222C254.526 69.7713 254.958 69.8459 255.487 69.8459C256.211 69.8459 256.81 69.669 257.283 69.3153C257.756 68.9659 257.993 68.4077 257.993 67.6406V65.7102H257.871C257.756 65.919 257.59 66.1513 257.373 66.407C257.159 66.6626 256.865 66.8842 256.49 67.0717C256.115 67.2592 255.627 67.353 255.027 67.353C254.251 67.353 253.552 67.1719 252.93 66.8097C252.312 66.4432 251.822 65.9041 251.46 65.1925C251.102 64.4766 250.923 63.5966 250.923 62.5526C250.923 61.5085 251.1 60.6136 251.453 59.8679C251.811 59.1222 252.301 58.5511 252.924 58.1548C253.546 57.7543 254.251 57.554 255.039 57.554C255.649 57.554 256.141 57.6562 256.516 57.8608C256.891 58.0611 257.183 58.2955 257.392 58.5639C257.605 58.8324 257.769 59.0689 257.884 59.2734H258.025V57.6818H259.897V67.7173C259.897 68.5611 259.701 69.2536 259.309 69.7947C258.917 70.3359 258.387 70.7365 257.718 70.9964C257.053 71.2564 256.303 71.3864 255.468 71.3864ZM255.449 65.7678C255.998 65.7678 256.463 65.6399 256.842 65.3842C257.225 65.1243 257.515 64.7536 257.711 64.272C257.912 63.7862 258.012 63.2045 258.012 62.527C258.012 61.8665 257.914 61.2848 257.718 60.782C257.522 60.2791 257.234 59.8871 256.855 59.6058C256.475 59.3203 256.007 59.1776 255.449 59.1776C254.873 59.1776 254.394 59.3267 254.01 59.625C253.627 59.919 253.337 60.3196 253.141 60.8267C252.949 61.3338 252.853 61.9006 252.853 62.527C252.853 63.1705 252.951 63.7351 253.147 64.2209C253.343 64.7067 253.633 65.0859 254.017 65.3587C254.404 65.6314 254.882 65.7678 255.449 65.7678ZM264.372 61.6705V67.5H262.461V57.6818H264.295V59.2798H264.417C264.642 58.7599 264.996 58.3423 265.478 58.027C265.963 57.7116 266.575 57.554 267.312 57.554C267.981 57.554 268.567 57.6946 269.07 57.9759C269.573 58.2528 269.963 58.6662 270.24 59.2159C270.517 59.7656 270.655 60.4453 270.655 61.255V67.5H268.744V61.4851C268.744 60.7734 268.559 60.2173 268.188 59.8168C267.817 59.4119 267.308 59.2095 266.66 59.2095C266.217 59.2095 265.823 59.3054 265.478 59.4972C265.137 59.6889 264.866 59.9702 264.666 60.3409C264.47 60.7074 264.372 61.1506 264.372 61.6705ZM4.14205 92.7173C3.51989 92.7173 2.95739 92.6023 2.45455 92.3722C1.9517 92.1378 1.55327 91.799 1.25923 91.3558C0.96946 90.9126 0.824574 90.3693 0.824574 89.7259C0.824574 89.1719 0.931108 88.7159 1.14418 88.358C1.35724 88 1.64489 87.7166 2.0071 87.5078C2.36932 87.299 2.77415 87.1413 3.22159 87.0348C3.66903 86.9283 4.125 86.8473 4.58949 86.7919C5.17756 86.7237 5.65483 86.6683 6.02131 86.6257C6.38778 86.5788 6.65412 86.5043 6.82031 86.402C6.98651 86.2997 7.0696 86.1335 7.0696 85.9034V85.8587C7.0696 85.3004 6.91193 84.8679 6.59659 84.5611C6.28551 84.2543 5.82102 84.1009 5.20312 84.1009C4.55966 84.1009 4.05256 84.2436 3.68182 84.5291C3.31534 84.8104 3.06179 85.1236 2.92116 85.4688L1.125 85.0597C1.33807 84.4631 1.64915 83.9815 2.05824 83.6151C2.47159 83.2443 2.94673 82.9759 3.48366 82.8097C4.0206 82.6392 4.58523 82.554 5.17756 82.554C5.5696 82.554 5.98509 82.6009 6.42401 82.6946C6.86719 82.7841 7.28054 82.9503 7.66406 83.1932C8.05185 83.4361 8.36932 83.7834 8.61648 84.2351C8.86364 84.6825 8.98722 85.2642 8.98722 85.9801V92.5H7.12074V91.1577H7.04403C6.92045 91.4048 6.73509 91.6477 6.48793 91.8864C6.24077 92.125 5.9233 92.3232 5.53551 92.4808C5.14773 92.6385 4.68324 92.7173 4.14205 92.7173ZM4.55753 91.1832C5.08594 91.1832 5.53764 91.0788 5.91264 90.87C6.2919 90.6612 6.57955 90.3885 6.77557 90.0518C6.97585 89.7109 7.07599 89.3466 7.07599 88.9588V87.6932C7.00781 87.7614 6.87571 87.8253 6.67969 87.8849C6.48793 87.9403 6.26847 87.9893 6.02131 88.032C5.77415 88.0703 5.53338 88.1065 5.29901 88.1406C5.06463 88.1705 4.86861 88.196 4.71094 88.2173C4.3402 88.2642 4.00142 88.343 3.6946 88.4538C3.39205 88.5646 3.14915 88.7244 2.96591 88.9332C2.78693 89.1378 2.69744 89.4105 2.69744 89.7514C2.69744 90.2244 2.87216 90.5824 3.22159 90.8253C3.57102 91.0639 4.01634 91.1832 4.55753 91.1832ZM13.4441 86.6705V92.5H11.5328V82.6818H13.3674V84.2798H13.4888C13.7147 83.7599 14.0684 83.3423 14.5499 83.027C15.0357 82.7116 15.6472 82.554 16.3844 82.554C17.0534 82.554 17.6394 82.6946 18.1422 82.9759C18.6451 83.2528 19.035 83.6662 19.312 84.2159C19.589 84.7656 19.7275 85.4453 19.7275 86.255V92.5H17.8162V86.4851C17.8162 85.7734 17.6309 85.2173 17.2601 84.8168C16.8894 84.4119 16.3801 84.2095 15.7324 84.2095C15.2892 84.2095 14.8951 84.3054 14.5499 84.4972C14.209 84.6889 13.9384 84.9702 13.7381 85.3409C13.5421 85.7074 13.4441 86.1506 13.4441 86.6705ZM25.9661 92.6918C25.1735 92.6918 24.4661 92.4893 23.8439 92.0845C23.226 91.6754 22.7402 91.0937 22.3865 90.3395C22.0371 89.581 21.8624 88.6712 21.8624 87.6101C21.8624 86.549 22.0392 85.6413 22.3929 84.8871C22.7509 84.1328 23.2409 83.5554 23.8631 83.1548C24.4853 82.7543 25.1905 82.554 25.9789 82.554C26.5882 82.554 27.0783 82.6562 27.449 82.8608C27.824 83.0611 28.1138 83.2955 28.3184 83.5639C28.5272 83.8324 28.6891 84.0689 28.8042 84.2734H28.9192V79.4091H30.8304V92.5H28.964V90.9723H28.8042C28.6891 91.1811 28.5229 91.4197 28.3056 91.6882C28.0925 91.9567 27.7985 92.1911 27.4235 92.3913C27.0485 92.5916 26.5627 92.6918 25.9661 92.6918ZM26.388 91.0618C26.9377 91.0618 27.4022 90.9169 27.7814 90.6271C28.165 90.3331 28.4547 89.9261 28.6507 89.4062C28.851 88.8864 28.9512 88.2812 28.9512 87.5909C28.9512 86.9091 28.8532 86.3125 28.6571 85.8011C28.4611 85.2898 28.1735 84.8913 27.7942 84.6058C27.415 84.3203 26.9462 84.1776 26.388 84.1776C25.8127 84.1776 25.3333 84.3267 24.9498 84.625C24.5662 84.9233 24.2765 85.3303 24.0804 85.8459C23.8887 86.3615 23.7928 86.9432 23.7928 87.5909C23.7928 88.2472 23.8908 88.8374 24.0868 89.3615C24.2828 89.8857 24.5726 90.3011 24.9561 90.608C25.3439 90.9105 25.8212 91.0618 26.388 91.0618ZM42.905 82.6818V84.2159H37.5421V82.6818H42.905ZM38.9803 80.3295H40.8915V89.6172C40.8915 89.9879 40.9469 90.267 41.0577 90.4545C41.1685 90.6378 41.3113 90.7635 41.486 90.8317C41.665 90.8956 41.8588 90.9276 42.0676 90.9276C42.2211 90.9276 42.3553 90.9169 42.4703 90.8956C42.5854 90.8743 42.6749 90.8572 42.7388 90.8445L43.084 92.4233C42.9732 92.4659 42.8155 92.5085 42.611 92.5511C42.4064 92.598 42.1507 92.6236 41.8439 92.6278C41.3411 92.6364 40.8723 92.5469 40.4377 92.3594C40.003 92.1719 39.6515 91.8821 39.383 91.4901C39.1145 91.098 38.9803 90.6058 38.9803 90.0135V80.3295ZM47.1413 86.6705V92.5H45.2301V79.4091H47.1158V84.2798H47.2372C47.4673 83.7514 47.8189 83.3317 48.2919 83.0206C48.7649 82.7095 49.3828 82.554 50.1456 82.554C50.8189 82.554 51.407 82.6925 51.9098 82.9695C52.4169 83.2464 52.8089 83.6598 53.0859 84.2095C53.3672 84.755 53.5078 85.4368 53.5078 86.255V92.5H51.5966V86.4851C51.5966 85.7649 51.4112 85.2067 51.0405 84.8104C50.6697 84.4098 50.1541 84.2095 49.4936 84.2095C49.0419 84.2095 48.6371 84.3054 48.2791 84.4972C47.9254 84.6889 47.6463 84.9702 47.4418 85.3409C47.2415 85.7074 47.1413 86.1506 47.1413 86.6705ZM60.2898 92.6982C59.3224 92.6982 58.4893 92.4915 57.7905 92.0781C57.0959 91.6605 56.5589 91.0746 56.1797 90.3203C55.8047 89.5618 55.6172 88.6733 55.6172 87.6548C55.6172 86.6491 55.8047 85.7628 56.1797 84.9957C56.5589 84.2287 57.0874 83.63 57.7649 83.1996C58.4467 82.7692 59.2436 82.554 60.1555 82.554C60.7095 82.554 61.2464 82.6456 61.7663 82.8288C62.2862 83.0121 62.7528 83.2997 63.1662 83.6918C63.5795 84.0838 63.9055 84.593 64.1442 85.2195C64.3828 85.8416 64.5021 86.598 64.5021 87.4886V88.1662H56.6974V86.7344H62.6293C62.6293 86.2315 62.527 85.7862 62.3224 85.3984C62.1179 85.0064 61.8303 84.6974 61.4595 84.4716C61.093 84.2457 60.6626 84.1328 60.1683 84.1328C59.6314 84.1328 59.1626 84.2649 58.7621 84.5291C58.3658 84.7891 58.0589 85.13 57.8416 85.5518C57.6286 85.9695 57.522 86.4233 57.522 86.9134V88.032C57.522 88.6882 57.6371 89.2464 57.8672 89.7067C58.1016 90.1669 58.4276 90.5185 58.8452 90.7614C59.2628 91 59.7507 91.1193 60.3089 91.1193C60.6712 91.1193 61.0014 91.0682 61.2997 90.9659C61.598 90.8594 61.8558 90.7017 62.0732 90.4929C62.2905 90.2841 62.4567 90.0263 62.5717 89.7195L64.3807 90.0455C64.2358 90.5781 63.9759 91.0447 63.6009 91.4453C63.2301 91.8416 62.7635 92.1506 62.201 92.3722C61.6428 92.5895 61.0057 92.6982 60.2898 92.6982ZM76.0589 82.6818V84.2159H70.5107V82.6818H76.0589ZM72.032 92.5V81.544C72.032 80.9304 72.1662 80.4212 72.4347 80.0163C72.7031 79.6072 73.0589 79.3026 73.5021 79.1023C73.9453 78.8977 74.4268 78.7955 74.9467 78.7955C75.3303 78.7955 75.6584 78.8274 75.9311 78.8913C76.2038 78.951 76.4062 79.0064 76.5384 79.0575L76.0909 80.6044C76.0014 80.5788 75.8864 80.549 75.7457 80.5149C75.6051 80.4766 75.4347 80.4574 75.2344 80.4574C74.7699 80.4574 74.4375 80.5724 74.2372 80.8026C74.0412 81.0327 73.9432 81.3651 73.9432 81.7997V92.5H72.032ZM78.0309 92.5V82.6818H79.9421V92.5H78.0309ZM78.9961 81.1669C78.6637 81.1669 78.3782 81.0561 78.1396 80.8345C77.9052 80.6087 77.788 80.3402 77.788 80.0291C77.788 79.7138 77.9052 79.4453 78.1396 79.2237C78.3782 78.9979 78.6637 78.8849 78.9961 78.8849C79.3285 78.8849 79.6119 78.9979 79.8462 79.2237C80.0849 79.4453 80.2042 79.7138 80.2042 80.0291C80.2042 80.3402 80.0849 80.6087 79.8462 80.8345C79.6119 81.0561 79.3285 81.1669 78.9961 81.1669ZM84.4245 86.6705V92.5H82.5133V82.6818H84.3478V84.2798H84.4693C84.6951 83.7599 85.0488 83.3423 85.5304 83.027C86.0162 82.7116 86.6277 82.554 87.3649 82.554C88.0339 82.554 88.6199 82.6946 89.1227 82.9759C89.6255 83.2528 90.0154 83.6662 90.2924 84.2159C90.5694 84.7656 90.7079 85.4453 90.7079 86.255V92.5H88.7967V86.4851C88.7967 85.7734 88.6113 85.2173 88.2406 84.8168C87.8699 84.4119 87.3606 84.2095 86.7129 84.2095C86.2697 84.2095 85.8755 84.3054 85.5304 84.4972C85.1895 84.6889 84.9189 84.9702 84.7186 85.3409C84.5225 85.7074 84.4245 86.1506 84.4245 86.6705ZM97.5027 92.6982C96.5353 92.6982 95.7022 92.4915 95.0034 92.0781C94.3088 91.6605 93.7718 91.0746 93.3926 90.3203C93.0176 89.5618 92.8301 88.6733 92.8301 87.6548C92.8301 86.6491 93.0176 85.7628 93.3926 84.9957C93.7718 84.2287 94.3002 83.63 94.9778 83.1996C95.6596 82.7692 96.4565 82.554 97.3684 82.554C97.9224 82.554 98.4593 82.6456 98.9792 82.8288C99.4991 83.0121 99.9657 83.2997 100.379 83.6918C100.792 84.0838 101.118 84.593 101.357 85.2195C101.596 85.8416 101.715 86.598 101.715 87.4886V88.1662H93.9103V86.7344H99.8422C99.8422 86.2315 99.7399 85.7862 99.5353 85.3984C99.3308 85.0064 99.0431 84.6974 98.6724 84.4716C98.3059 84.2457 97.8755 84.1328 97.3812 84.1328C96.8443 84.1328 96.3755 84.2649 95.975 84.5291C95.5787 84.7891 95.2718 85.13 95.0545 85.5518C94.8414 85.9695 94.7349 86.4233 94.7349 86.9134V88.032C94.7349 88.6882 94.85 89.2464 95.0801 89.7067C95.3145 90.1669 95.6404 90.5185 96.0581 90.7614C96.4757 91 96.9636 91.1193 97.5218 91.1193C97.8841 91.1193 98.2143 91.0682 98.5126 90.9659C98.8109 90.8594 99.0687 90.7017 99.286 90.4929C99.5034 90.2841 99.6696 90.0263 99.7846 89.7195L101.594 90.0455C101.449 90.5781 101.189 91.0447 100.814 91.4453C100.443 91.8416 99.9764 92.1506 99.4139 92.3722C98.8556 92.5895 98.2186 92.6982 97.5027 92.6982ZM111.193 85.0788L109.461 85.3857C109.388 85.1641 109.273 84.9531 109.115 84.7528C108.962 84.5526 108.753 84.3885 108.489 84.2607C108.225 84.1328 107.895 84.0689 107.498 84.0689C106.957 84.0689 106.505 84.1903 106.143 84.4332C105.781 84.6719 105.6 84.9808 105.6 85.3601C105.6 85.6882 105.721 85.9524 105.964 86.1527C106.207 86.353 106.599 86.517 107.14 86.6449L108.7 87.0028C109.603 87.2116 110.277 87.5334 110.72 87.968C111.163 88.4027 111.385 88.9673 111.385 89.6619C111.385 90.25 111.214 90.7741 110.873 91.2344C110.537 91.6903 110.066 92.0483 109.461 92.3082C108.86 92.5682 108.163 92.6982 107.37 92.6982C106.271 92.6982 105.374 92.4638 104.679 91.995C103.985 91.522 103.559 90.8509 103.401 89.9815L105.248 89.7003C105.363 90.1818 105.6 90.5462 105.958 90.7933C106.316 91.0362 106.782 91.1577 107.358 91.1577C107.984 91.1577 108.485 91.0277 108.86 90.7678C109.235 90.5036 109.422 90.1818 109.422 89.8026C109.422 89.4957 109.307 89.2379 109.077 89.0291C108.851 88.8203 108.504 88.6626 108.035 88.5561L106.373 88.1918C105.457 87.983 104.779 87.6506 104.341 87.1946C103.906 86.7386 103.689 86.1612 103.689 85.4624C103.689 84.8828 103.85 84.3757 104.174 83.9411C104.498 83.5064 104.946 83.1676 105.517 82.9247C106.088 82.6776 106.742 82.554 107.479 82.554C108.54 82.554 109.375 82.7841 109.985 83.2443C110.594 83.7003 110.997 84.3118 111.193 85.0788ZM118.069 82.6818V84.2159H112.706V82.6818H118.069ZM114.144 80.3295H116.056V89.6172C116.056 89.9879 116.111 90.267 116.222 90.4545C116.333 90.6378 116.475 90.7635 116.65 90.8317C116.829 90.8956 117.023 90.9276 117.232 90.9276C117.385 90.9276 117.519 90.9169 117.634 90.8956C117.749 90.8743 117.839 90.8572 117.903 90.8445L118.248 92.4233C118.137 92.4659 117.98 92.5085 117.775 92.5511C117.57 92.598 117.315 92.6236 117.008 92.6278C116.505 92.6364 116.036 92.5469 115.602 92.3594C115.167 92.1719 114.816 91.8821 114.547 91.4901C114.279 91.098 114.144 90.6058 114.144 90.0135V80.3295ZM124.947 92.5V82.6818H126.781V84.2798H126.903C127.107 83.7386 127.442 83.3168 127.906 83.0142C128.371 82.7074 128.927 82.554 129.575 82.554C130.231 82.554 130.781 82.7074 131.224 83.0142C131.671 83.321 132.002 83.7429 132.215 84.2798H132.317C132.551 83.7557 132.924 83.3381 133.436 83.027C133.947 82.7116 134.556 82.554 135.264 82.554C136.154 82.554 136.881 82.8331 137.443 83.3913C138.01 83.9496 138.294 84.7912 138.294 85.9162V92.5H136.382V86.0952C136.382 85.4304 136.201 84.9489 135.839 84.6506C135.477 84.3523 135.044 84.2031 134.541 84.2031C133.919 84.2031 133.436 84.3949 133.09 84.7784C132.745 85.1577 132.573 85.6456 132.573 86.2422V92.5H130.668V85.9737C130.668 85.4411 130.502 85.0128 130.169 84.6889C129.837 84.3651 129.404 84.2031 128.872 84.2031C128.509 84.2031 128.175 84.299 127.868 84.4908C127.566 84.6783 127.32 84.9403 127.133 85.277C126.95 85.6136 126.858 86.0036 126.858 86.4467V92.5H124.947ZM143.712 92.7173C143.09 92.7173 142.528 92.6023 142.025 92.3722C141.522 92.1378 141.124 91.799 140.83 91.3558C140.54 90.9126 140.395 90.3693 140.395 89.7259C140.395 89.1719 140.501 88.7159 140.714 88.358C140.928 88 141.215 87.7166 141.577 87.5078C141.94 87.299 142.344 87.1413 142.792 87.0348C143.239 86.9283 143.695 86.8473 144.16 86.7919C144.748 86.7237 145.225 86.6683 145.592 86.6257C145.958 86.5788 146.224 86.5043 146.391 86.402C146.557 86.2997 146.64 86.1335 146.64 85.9034V85.8587C146.64 85.3004 146.482 84.8679 146.167 84.5611C145.856 84.2543 145.391 84.1009 144.773 84.1009C144.13 84.1009 143.623 84.2436 143.252 84.5291C142.886 84.8104 142.632 85.1236 142.491 85.4688L140.695 85.0597C140.908 84.4631 141.219 83.9815 141.629 83.6151C142.042 83.2443 142.517 82.9759 143.054 82.8097C143.591 82.6392 144.156 82.554 144.748 82.554C145.14 82.554 145.555 82.6009 145.994 82.6946C146.438 82.7841 146.851 82.9503 147.234 83.1932C147.622 83.4361 147.94 83.7834 148.187 84.2351C148.434 84.6825 148.558 85.2642 148.558 85.9801V92.5H146.691V91.1577H146.614C146.491 91.4048 146.305 91.6477 146.058 91.8864C145.811 92.125 145.494 92.3232 145.106 92.4808C144.718 92.6385 144.254 92.7173 143.712 92.7173ZM144.128 91.1832C144.656 91.1832 145.108 91.0788 145.483 90.87C145.862 90.6612 146.15 90.3885 146.346 90.0518C146.546 89.7109 146.646 89.3466 146.646 88.9588V87.6932C146.578 87.7614 146.446 87.8253 146.25 87.8849C146.058 87.9403 145.839 87.9893 145.592 88.032C145.344 88.0703 145.104 88.1065 144.869 88.1406C144.635 88.1705 144.439 88.196 144.281 88.2173C143.911 88.2642 143.572 88.343 143.265 88.4538C142.962 88.5646 142.719 88.7244 142.536 88.9332C142.357 89.1378 142.268 89.4105 142.268 89.7514C142.268 90.2244 142.442 90.5824 142.792 90.8253C143.141 91.0639 143.587 91.1832 144.128 91.1832ZM155.686 82.6818V84.2159H150.323V82.6818H155.686ZM151.762 80.3295H153.673V89.6172C153.673 89.9879 153.728 90.267 153.839 90.4545C153.95 90.6378 154.093 90.7635 154.267 90.8317C154.446 90.8956 154.64 90.9276 154.849 90.9276C155.002 90.9276 155.137 90.9169 155.252 90.8956C155.367 90.8743 155.456 90.8572 155.52 90.8445L155.865 92.4233C155.754 92.4659 155.597 92.5085 155.392 92.5511C155.188 92.598 154.932 92.6236 154.625 92.6278C154.122 92.6364 153.654 92.5469 153.219 92.3594C152.784 92.1719 152.433 91.8821 152.164 91.4901C151.896 91.098 151.762 90.6058 151.762 90.0135V80.3295ZM161.926 92.6982C160.959 92.6982 160.126 92.4915 159.427 92.0781C158.733 91.6605 158.196 91.0746 157.816 90.3203C157.441 89.5618 157.254 88.6733 157.254 87.6548C157.254 86.6491 157.441 85.7628 157.816 84.9957C158.196 84.2287 158.724 83.63 159.402 83.1996C160.083 82.7692 160.88 82.554 161.792 82.554C162.346 82.554 162.883 82.6456 163.403 82.8288C163.923 83.0121 164.39 83.2997 164.803 83.6918C165.216 84.0838 165.542 84.593 165.781 85.2195C166.02 85.8416 166.139 86.598 166.139 87.4886V88.1662H158.334V86.7344H164.266C164.266 86.2315 164.164 85.7862 163.959 85.3984C163.755 85.0064 163.467 84.6974 163.096 84.4716C162.73 84.2457 162.299 84.1328 161.805 84.1328C161.268 84.1328 160.799 84.2649 160.399 84.5291C160.002 84.7891 159.696 85.13 159.478 85.5518C159.265 85.9695 159.159 86.4233 159.159 86.9134V88.032C159.159 88.6882 159.274 89.2464 159.504 89.7067C159.738 90.1669 160.064 90.5185 160.482 90.7614C160.9 91 161.387 91.1193 161.946 91.1193C162.308 91.1193 162.638 91.0682 162.936 90.9659C163.235 90.8594 163.493 90.7017 163.71 90.4929C163.927 90.2841 164.093 90.0263 164.208 89.7195L166.017 90.0455C165.873 90.5781 165.613 91.0447 165.238 91.4453C164.867 91.8416 164.4 92.1506 163.838 92.3722C163.279 92.5895 162.642 92.6982 161.926 92.6982ZM168.259 92.5V82.6818H170.107V84.2415H170.209C170.388 83.7131 170.703 83.2976 171.155 82.995C171.611 82.6882 172.127 82.5348 172.702 82.5348C172.821 82.5348 172.962 82.5391 173.124 82.5476C173.29 82.5561 173.42 82.5668 173.514 82.5795V84.4077C173.437 84.3864 173.301 84.3629 173.105 84.3374C172.909 84.3075 172.713 84.2926 172.517 84.2926C172.065 84.2926 171.662 84.3885 171.308 84.5803C170.959 84.7678 170.682 85.0298 170.477 85.3665C170.273 85.6989 170.171 86.0781 170.171 86.5043V92.5H168.259ZM175.168 92.5V82.6818H177.079V92.5H175.168ZM176.133 81.1669C175.8 81.1669 175.515 81.0561 175.276 80.8345C175.042 80.6087 174.925 80.3402 174.925 80.0291C174.925 79.7138 175.042 79.4453 175.276 79.2237C175.515 78.9979 175.8 78.8849 176.133 78.8849C176.465 78.8849 176.749 78.9979 176.983 79.2237C177.222 79.4453 177.341 79.7138 177.341 80.0291C177.341 80.3402 177.222 80.6087 176.983 80.8345C176.749 81.0561 176.465 81.1669 176.133 81.1669ZM182.507 92.7173C181.885 92.7173 181.323 92.6023 180.82 92.3722C180.317 92.1378 179.919 91.799 179.624 91.3558C179.335 90.9126 179.19 90.3693 179.19 89.7259C179.19 89.1719 179.296 88.7159 179.509 88.358C179.722 88 180.01 87.7166 180.372 87.5078C180.735 87.299 181.139 87.1413 181.587 87.0348C182.034 86.9283 182.49 86.8473 182.955 86.7919C183.543 86.7237 184.02 86.6683 184.387 86.6257C184.753 86.5788 185.019 86.5043 185.186 86.402C185.352 86.2997 185.435 86.1335 185.435 85.9034V85.8587C185.435 85.3004 185.277 84.8679 184.962 84.5611C184.651 84.2543 184.186 84.1009 183.568 84.1009C182.925 84.1009 182.418 84.2436 182.047 84.5291C181.681 84.8104 181.427 85.1236 181.286 85.4688L179.49 85.0597C179.703 84.4631 180.014 83.9815 180.423 83.6151C180.837 83.2443 181.312 82.9759 181.849 82.8097C182.386 82.6392 182.95 82.554 183.543 82.554C183.935 82.554 184.35 82.6009 184.789 82.6946C185.232 82.7841 185.646 82.9503 186.029 83.1932C186.417 83.4361 186.735 83.7834 186.982 84.2351C187.229 84.6825 187.352 85.2642 187.352 85.9801V92.5H185.486V91.1577H185.409C185.286 91.4048 185.1 91.6477 184.853 91.8864C184.606 92.125 184.289 92.3232 183.901 92.4808C183.513 92.6385 183.048 92.7173 182.507 92.7173ZM182.923 91.1832C183.451 91.1832 183.903 91.0788 184.278 90.87C184.657 90.6612 184.945 90.3885 185.141 90.0518C185.341 89.7109 185.441 89.3466 185.441 88.9588V87.6932C185.373 87.7614 185.241 87.8253 185.045 87.8849C184.853 87.9403 184.634 87.9893 184.387 88.032C184.139 88.0703 183.899 88.1065 183.664 88.1406C183.43 88.1705 183.234 88.196 183.076 88.2173C182.705 88.2642 182.367 88.343 182.06 88.4538C181.757 88.5646 181.514 88.7244 181.331 88.9332C181.152 89.1378 181.063 89.4105 181.063 89.7514C181.063 90.2244 181.237 90.5824 181.587 90.8253C181.936 91.0639 182.382 91.1832 182.923 91.1832ZM191.809 79.4091V92.5H189.898V79.4091H191.809ZM201.738 85.0788L200.006 85.3857C199.933 85.1641 199.818 84.9531 199.66 84.7528C199.507 84.5526 199.298 84.3885 199.034 84.2607C198.77 84.1328 198.439 84.0689 198.043 84.0689C197.502 84.0689 197.05 84.1903 196.688 84.4332C196.326 84.6719 196.145 84.9808 196.145 85.3601C196.145 85.6882 196.266 85.9524 196.509 86.1527C196.752 86.353 197.144 86.517 197.685 86.6449L199.245 87.0028C200.148 87.2116 200.822 87.5334 201.265 87.968C201.708 88.4027 201.93 88.9673 201.93 89.6619C201.93 90.25 201.759 90.7741 201.418 91.2344C201.081 91.6903 200.611 92.0483 200.006 92.3082C199.405 92.5682 198.708 92.6982 197.915 92.6982C196.816 92.6982 195.919 92.4638 195.224 91.995C194.53 91.522 194.104 90.8509 193.946 89.9815L195.793 89.7003C195.908 90.1818 196.145 90.5462 196.503 90.7933C196.861 91.0362 197.327 91.1577 197.903 91.1577C198.529 91.1577 199.03 91.0277 199.405 90.7678C199.78 90.5036 199.967 90.1818 199.967 89.8026C199.967 89.4957 199.852 89.2379 199.622 89.0291C199.396 88.8203 199.049 88.6626 198.58 88.5561L196.918 88.1918C196.002 87.983 195.324 87.6506 194.885 87.1946C194.451 86.7386 194.233 86.1612 194.233 85.4624C194.233 84.8828 194.395 84.3757 194.719 83.9411C195.043 83.5064 195.491 83.1676 196.062 82.9247C196.633 82.6776 197.287 82.554 198.024 82.554C199.085 82.554 199.92 82.7841 200.53 83.2443C201.139 83.7003 201.542 84.3118 201.738 85.0788ZM215.014 88.4283V82.6818H216.932V92.5H215.052V90.7997H214.95C214.724 91.3239 214.362 91.7607 213.863 92.1101C213.369 92.4553 212.753 92.6278 212.016 92.6278C211.385 92.6278 210.827 92.4893 210.341 92.2124C209.86 91.9311 209.481 91.5156 209.204 90.9659C208.931 90.4162 208.795 89.7365 208.795 88.9268V82.6818H210.706V88.6967C210.706 89.3658 210.891 89.8984 211.262 90.2947C211.633 90.6911 212.114 90.8892 212.706 90.8892C213.064 90.8892 213.42 90.7997 213.774 90.6207C214.132 90.4418 214.428 90.1712 214.662 89.8089C214.901 89.4467 215.018 88.9865 215.014 88.4283ZM221.411 86.6705V92.5H219.5V82.6818H221.334V84.2798H221.456C221.681 83.7599 222.035 83.3423 222.517 83.027C223.002 82.7116 223.614 82.554 224.351 82.554C225.02 82.554 225.606 82.6946 226.109 82.9759C226.612 83.2528 227.002 83.6662 227.279 84.2159C227.556 84.7656 227.694 85.4453 227.694 86.255V92.5H225.783V86.4851C225.783 85.7734 225.598 85.2173 225.227 84.8168C224.856 84.4119 224.347 84.2095 223.699 84.2095C223.256 84.2095 222.862 84.3054 222.517 84.4972C222.176 84.6889 221.905 84.9702 221.705 85.3409C221.509 85.7074 221.411 86.1506 221.411 86.6705ZM230.257 92.5V82.6818H232.169V92.5H230.257ZM231.223 81.1669C230.89 81.1669 230.605 81.0561 230.366 80.8345C230.132 80.6087 230.015 80.3402 230.015 80.0291C230.015 79.7138 230.132 79.4453 230.366 79.2237C230.605 78.9979 230.89 78.8849 231.223 78.8849C231.555 78.8849 231.838 78.9979 232.073 79.2237C232.311 79.4453 232.431 79.7138 232.431 80.0291C232.431 80.3402 232.311 80.6087 232.073 80.8345C231.838 81.0561 231.555 81.1669 231.223 81.1669ZM239.323 82.6818V84.2159H233.96V82.6818H239.323ZM235.398 80.3295H237.309V89.6172C237.309 89.9879 237.365 90.267 237.476 90.4545C237.586 90.6378 237.729 90.7635 237.904 90.8317C238.083 90.8956 238.277 90.9276 238.486 90.9276C238.639 90.9276 238.773 90.9169 238.888 90.8956C239.003 90.8743 239.093 90.8572 239.157 90.8445L239.502 92.4233C239.391 92.4659 239.233 92.5085 239.029 92.5511C238.824 92.598 238.569 92.6236 238.262 92.6278C237.759 92.6364 237.29 92.5469 236.856 92.3594C236.421 92.1719 236.069 91.8821 235.801 91.4901C235.532 91.098 235.398 90.6058 235.398 90.0135V80.3295ZM245.563 92.6982C244.596 92.6982 243.763 92.4915 243.064 92.0781C242.369 91.6605 241.832 91.0746 241.453 90.3203C241.078 89.5618 240.891 88.6733 240.891 87.6548C240.891 86.6491 241.078 85.7628 241.453 84.9957C241.832 84.2287 242.361 83.63 243.038 83.1996C243.72 82.7692 244.517 82.554 245.429 82.554C245.983 82.554 246.52 82.6456 247.04 82.8288C247.56 83.0121 248.026 83.2997 248.44 83.6918C248.853 84.0838 249.179 84.593 249.418 85.2195C249.656 85.8416 249.776 86.598 249.776 87.4886V88.1662H241.971V86.7344H247.903C247.903 86.2315 247.8 85.7862 247.596 85.3984C247.391 85.0064 247.104 84.6974 246.733 84.4716C246.366 84.2457 245.936 84.1328 245.442 84.1328C244.905 84.1328 244.436 84.2649 244.036 84.5291C243.639 84.7891 243.332 85.13 243.115 85.5518C242.902 85.9695 242.795 86.4233 242.795 86.9134V88.032C242.795 88.6882 242.911 89.2464 243.141 89.7067C243.375 90.1669 243.701 90.5185 244.119 90.7614C244.536 91 245.024 91.1193 245.582 91.1193C245.945 91.1193 246.275 91.0682 246.573 90.9659C246.871 90.8594 247.129 90.7017 247.347 90.4929C247.564 90.2841 247.73 90.0263 247.845 89.7195L249.654 90.0455C249.509 90.5781 249.249 91.0447 248.874 91.4453C248.504 91.8416 248.037 92.1506 247.474 92.3722C246.916 92.5895 246.279 92.6982 245.563 92.6982ZM256.66 92.5V82.6818H258.571V92.5H256.66ZM257.625 81.1669C257.293 81.1669 257.007 81.0561 256.768 80.8345C256.534 80.6087 256.417 80.3402 256.417 80.0291C256.417 79.7138 256.534 79.4453 256.768 79.2237C257.007 78.9979 257.293 78.8849 257.625 78.8849C257.957 78.8849 258.241 78.9979 258.475 79.2237C258.714 79.4453 258.833 79.7138 258.833 80.0291C258.833 80.3402 258.714 80.6087 258.475 80.8345C258.241 81.0561 257.957 81.1669 257.625 81.1669ZM263.053 86.6705V92.5H261.142V82.6818H262.977V84.2798H263.098C263.324 83.7599 263.678 83.3423 264.159 83.027C264.645 82.7116 265.257 82.554 265.994 82.554C266.663 82.554 267.249 82.6946 267.752 82.9759C268.254 83.2528 268.644 83.6662 268.921 84.2159C269.198 84.7656 269.337 85.4453 269.337 86.255V92.5H267.426V86.4851C267.426 85.7734 267.24 85.2173 266.869 84.8168C266.499 84.4119 265.99 84.2095 265.342 84.2095C264.899 84.2095 264.504 84.3054 264.159 84.4972C263.818 84.6889 263.548 84.9702 263.347 85.3409C263.151 85.7074 263.053 86.1506 263.053 86.6705ZM7.50426 113.428V107.682H9.42188V117.5H7.54261V115.8H7.44034C7.21449 116.324 6.85227 116.761 6.35369 117.11C5.85938 117.455 5.24361 117.628 4.50639 117.628C3.87571 117.628 3.31747 117.489 2.83168 117.212C2.35014 116.931 1.97088 116.516 1.69389 115.966C1.42116 115.416 1.2848 114.737 1.2848 113.927V107.682H3.19602V113.697C3.19602 114.366 3.38139 114.898 3.75213 115.295C4.12287 115.691 4.6044 115.889 5.19673 115.889C5.55469 115.889 5.91051 115.8 6.2642 115.621C6.62216 115.442 6.91832 115.171 7.1527 114.809C7.39134 114.447 7.50852 113.987 7.50426 113.428ZM13.9011 104.409V117.5H11.9899V104.409H13.9011ZM21.0554 107.682V109.216H15.6925V107.682H21.0554ZM17.1307 105.33H19.0419V114.617C19.0419 114.988 19.0973 115.267 19.2081 115.455C19.3189 115.638 19.4616 115.763 19.6364 115.832C19.8153 115.896 20.0092 115.928 20.218 115.928C20.3714 115.928 20.5057 115.917 20.6207 115.896C20.7358 115.874 20.8253 115.857 20.8892 115.844L21.2344 117.423C21.1236 117.466 20.9659 117.509 20.7614 117.551C20.5568 117.598 20.3011 117.624 19.9943 117.628C19.4915 117.636 19.0227 117.547 18.5881 117.359C18.1534 117.172 17.8018 116.882 17.5334 116.49C17.2649 116.098 17.1307 115.606 17.1307 115.013V105.33ZM23.1696 117.5V107.682H25.0808V117.5H23.1696ZM24.1348 106.167C23.8024 106.167 23.5169 106.056 23.2782 105.835C23.0439 105.609 22.9267 105.34 22.9267 105.029C22.9267 104.714 23.0439 104.445 23.2782 104.224C23.5169 103.998 23.8024 103.885 24.1348 103.885C24.4672 103.885 24.7505 103.998 24.9849 104.224C25.2235 104.445 25.3429 104.714 25.3429 105.029C25.3429 105.34 25.2235 105.609 24.9849 105.835C24.7505 106.056 24.4672 106.167 24.1348 106.167ZM27.652 117.5V107.682H29.4865V109.28H29.608C29.8125 108.739 30.147 108.317 30.6115 108.014C31.076 107.707 31.6321 107.554 32.2798 107.554C32.9361 107.554 33.4858 107.707 33.929 108.014C34.3764 108.321 34.7067 108.743 34.9197 109.28H35.022C35.2564 108.756 35.6293 108.338 36.1406 108.027C36.652 107.712 37.2614 107.554 37.9688 107.554C38.8594 107.554 39.5859 107.833 40.1484 108.391C40.7152 108.95 40.9986 109.791 40.9986 110.916V117.5H39.0874V111.095C39.0874 110.43 38.9063 109.949 38.544 109.651C38.1818 109.352 37.7493 109.203 37.2464 109.203C36.6243 109.203 36.1406 109.395 35.7955 109.778C35.4503 110.158 35.2777 110.646 35.2777 111.242V117.5H33.3729V110.974C33.3729 110.441 33.2067 110.013 32.8743 109.689C32.5419 109.365 32.1094 109.203 31.5767 109.203C31.2145 109.203 30.88 109.299 30.5732 109.491C30.2706 109.678 30.0256 109.94 29.8381 110.277C29.6548 110.614 29.5632 111.004 29.5632 111.447V117.5H27.652ZM46.4174 117.717C45.7953 117.717 45.2328 117.602 44.7299 117.372C44.2271 117.138 43.8287 116.799 43.5346 116.356C43.2449 115.913 43.1 115.369 43.1 114.726C43.1 114.172 43.2065 113.716 43.4196 113.358C43.6326 113 43.9203 112.717 44.2825 112.508C44.6447 112.299 45.0495 112.141 45.497 112.035C45.9444 111.928 46.4004 111.847 46.8649 111.792C47.4529 111.724 47.9302 111.668 48.2967 111.626C48.6632 111.579 48.9295 111.504 49.0957 111.402C49.2619 111.3 49.345 111.134 49.345 110.903V110.859C49.345 110.3 49.1873 109.868 48.872 109.561C48.5609 109.254 48.0964 109.101 47.4785 109.101C46.835 109.101 46.3279 109.244 45.9572 109.529C45.5907 109.81 45.3372 110.124 45.1966 110.469L43.4004 110.06C43.6135 109.463 43.9245 108.982 44.3336 108.615C44.747 108.244 45.2221 107.976 45.7591 107.81C46.296 107.639 46.8606 107.554 47.4529 107.554C47.845 107.554 48.2605 107.601 48.6994 107.695C49.1426 107.784 49.5559 107.95 49.9395 108.193C50.3272 108.436 50.6447 108.783 50.8919 109.235C51.139 109.683 51.2626 110.264 51.2626 110.98V117.5H49.3961V116.158H49.3194C49.1958 116.405 49.0105 116.648 48.7633 116.886C48.5162 117.125 48.1987 117.323 47.8109 117.481C47.4231 117.638 46.9586 117.717 46.4174 117.717ZM46.8329 116.183C47.3613 116.183 47.813 116.079 48.188 115.87C48.5673 115.661 48.8549 115.388 49.051 115.052C49.2512 114.711 49.3514 114.347 49.3514 113.959V112.693C49.2832 112.761 49.1511 112.825 48.9551 112.885C48.7633 112.94 48.5439 112.989 48.2967 113.032C48.0495 113.07 47.8088 113.107 47.5744 113.141C47.34 113.17 47.144 113.196 46.9863 113.217C46.6156 113.264 46.2768 113.343 45.97 113.454C45.6674 113.565 45.4245 113.724 45.2413 113.933C45.0623 114.138 44.9728 114.411 44.9728 114.751C44.9728 115.224 45.1475 115.582 45.497 115.825C45.8464 116.064 46.2917 116.183 46.8329 116.183ZM58.3913 107.682V109.216H53.0284V107.682H58.3913ZM54.4666 105.33H56.3778V114.617C56.3778 114.988 56.4332 115.267 56.544 115.455C56.6548 115.638 56.7976 115.763 56.9723 115.832C57.1513 115.896 57.3452 115.928 57.554 115.928C57.7074 115.928 57.8416 115.917 57.9567 115.896C58.0717 115.874 58.1612 115.857 58.2251 115.844L58.5703 117.423C58.4595 117.466 58.3018 117.509 58.0973 117.551C57.8928 117.598 57.6371 117.624 57.3303 117.628C56.8274 117.636 56.3587 117.547 55.924 117.359C55.4893 117.172 55.1378 116.882 54.8693 116.49C54.6009 116.098 54.4666 115.606 54.4666 115.013V105.33ZM64.6316 117.698C63.6642 117.698 62.8311 117.491 62.1323 117.078C61.4377 116.661 60.9007 116.075 60.5215 115.32C60.1465 114.562 59.959 113.673 59.959 112.655C59.959 111.649 60.1465 110.763 60.5215 109.996C60.9007 109.229 61.4292 108.63 62.1067 108.2C62.7885 107.769 63.5854 107.554 64.4973 107.554C65.0513 107.554 65.5882 107.646 66.1081 107.829C66.628 108.012 67.0946 108.3 67.508 108.692C67.9213 109.084 68.2473 109.593 68.486 110.219C68.7246 110.842 68.8439 111.598 68.8439 112.489V113.166H61.0392V111.734H66.9711C66.9711 111.232 66.8688 110.786 66.6642 110.398C66.4597 110.006 66.1721 109.697 65.8013 109.472C65.4348 109.246 65.0044 109.133 64.5101 109.133C63.9732 109.133 63.5044 109.265 63.1039 109.529C62.7076 109.789 62.4007 110.13 62.1834 110.552C61.9703 110.969 61.8638 111.423 61.8638 111.913V113.032C61.8638 113.688 61.9789 114.246 62.209 114.707C62.4434 115.167 62.7694 115.518 63.187 115.761C63.6046 116 64.0925 116.119 64.6507 116.119C65.013 116.119 65.3432 116.068 65.6415 115.966C65.9398 115.859 66.1976 115.702 66.415 115.493C66.6323 115.284 66.7985 115.026 66.9135 114.719L68.7225 115.045C68.5776 115.578 68.3176 116.045 67.9426 116.445C67.5719 116.842 67.1053 117.151 66.5428 117.372C65.9846 117.589 65.3475 117.698 64.6316 117.698ZM79.8638 117.698C78.9135 117.698 78.0953 117.483 77.4093 117.053C76.7275 116.618 76.2033 116.019 75.8368 115.256C75.4703 114.494 75.2871 113.62 75.2871 112.636C75.2871 111.638 75.4746 110.759 75.8496 109.996C76.2246 109.229 76.753 108.63 77.4348 108.2C78.1167 107.769 78.9199 107.554 79.8446 107.554C80.5904 107.554 81.2551 107.692 81.839 107.969C82.4228 108.242 82.8936 108.626 83.2516 109.12C83.6138 109.614 83.829 110.192 83.8972 110.852H82.0371C81.9348 110.392 81.7005 109.996 81.334 109.663C80.9718 109.331 80.486 109.165 79.8766 109.165C79.3439 109.165 78.8773 109.305 78.4767 109.587C78.0804 109.864 77.7715 110.26 77.5499 110.776C77.3283 111.287 77.2175 111.892 77.2175 112.591C77.2175 113.307 77.3262 113.925 77.5435 114.445C77.7608 114.964 78.0676 115.367 78.464 115.653C78.8645 115.938 79.3354 116.081 79.8766 116.081C80.2388 116.081 80.5669 116.015 80.861 115.883C81.1593 115.746 81.4086 115.553 81.6088 115.301C81.8134 115.05 81.9561 114.747 82.0371 114.393H83.8972C83.829 115.028 83.6223 115.595 83.2772 116.094C82.932 116.592 82.4696 116.984 81.8901 117.27C81.3148 117.555 80.6394 117.698 79.8638 117.698ZM90.0767 117.698C89.1563 117.698 88.353 117.487 87.6669 117.065C86.9808 116.643 86.4482 116.053 86.0689 115.295C85.6896 114.536 85.5 113.65 85.5 112.636C85.5 111.617 85.6896 110.727 86.0689 109.964C86.4482 109.201 86.9808 108.609 87.6669 108.187C88.353 107.765 89.1563 107.554 90.0767 107.554C90.9972 107.554 91.8004 107.765 92.4865 108.187C93.1726 108.609 93.7053 109.201 94.0845 109.964C94.4638 110.727 94.6534 111.617 94.6534 112.636C94.6534 113.65 94.4638 114.536 94.0845 115.295C93.7053 116.053 93.1726 116.643 92.4865 117.065C91.8004 117.487 90.9972 117.698 90.0767 117.698ZM90.0831 116.094C90.6797 116.094 91.174 115.936 91.5661 115.621C91.9581 115.305 92.2479 114.886 92.4354 114.362C92.6271 113.837 92.723 113.26 92.723 112.629C92.723 112.003 92.6271 111.428 92.4354 110.903C92.2479 110.375 91.9581 109.951 91.5661 109.631C91.174 109.312 90.6797 109.152 90.0831 109.152C89.4822 109.152 88.9837 109.312 88.5874 109.631C88.1953 109.951 87.9034 110.375 87.7116 110.903C87.5241 111.428 87.4304 112.003 87.4304 112.629C87.4304 113.26 87.5241 113.837 87.7116 114.362C87.9034 114.886 88.1953 115.305 88.5874 115.621C88.9837 115.936 89.4822 116.094 90.0831 116.094ZM96.7868 117.5V107.682H98.6213V109.28H98.7427C98.9473 108.739 99.2818 108.317 99.7463 108.014C100.211 107.707 100.767 107.554 101.415 107.554C102.071 107.554 102.621 107.707 103.064 108.014C103.511 108.321 103.841 108.743 104.055 109.28H104.157C104.391 108.756 104.764 108.338 105.275 108.027C105.787 107.712 106.396 107.554 107.104 107.554C107.994 107.554 108.721 107.833 109.283 108.391C109.85 108.95 110.133 109.791 110.133 110.916V117.5H108.222V111.095C108.222 110.43 108.041 109.949 107.679 109.651C107.317 109.352 106.884 109.203 106.381 109.203C105.759 109.203 105.275 109.395 104.93 109.778C104.585 110.158 104.412 110.646 104.412 111.242V117.5H102.508V110.974C102.508 110.441 102.341 110.013 102.009 109.689C101.677 109.365 101.244 109.203 100.711 109.203C100.349 109.203 100.015 109.299 99.7079 109.491C99.4054 109.678 99.1603 109.94 98.9728 110.277C98.7896 110.614 98.698 111.004 98.698 111.447V117.5H96.7868ZM117.368 107.682V109.216H111.819V107.682H117.368ZM113.341 117.5V106.544C113.341 105.93 113.475 105.421 113.743 105.016C114.012 104.607 114.368 104.303 114.811 104.102C115.254 103.898 115.735 103.795 116.255 103.795C116.639 103.795 116.967 103.827 117.24 103.891C117.512 103.951 117.715 104.006 117.847 104.058L117.4 105.604C117.31 105.579 117.195 105.549 117.054 105.515C116.914 105.477 116.743 105.457 116.543 105.457C116.078 105.457 115.746 105.572 115.546 105.803C115.35 106.033 115.252 106.365 115.252 106.8V117.5H113.341ZM123.088 117.698C122.168 117.698 121.365 117.487 120.679 117.065C119.993 116.643 119.46 116.053 119.081 115.295C118.701 114.536 118.512 113.65 118.512 112.636C118.512 111.617 118.701 110.727 119.081 109.964C119.46 109.201 119.993 108.609 120.679 108.187C121.365 107.765 122.168 107.554 123.088 107.554C124.009 107.554 124.812 107.765 125.498 108.187C126.184 108.609 126.717 109.201 127.096 109.964C127.475 110.727 127.665 111.617 127.665 112.636C127.665 113.65 127.475 114.536 127.096 115.295C126.717 116.053 126.184 116.643 125.498 117.065C124.812 117.487 124.009 117.698 123.088 117.698ZM123.095 116.094C123.691 116.094 124.186 115.936 124.578 115.621C124.97 115.305 125.26 114.886 125.447 114.362C125.639 113.837 125.735 113.26 125.735 112.629C125.735 112.003 125.639 111.428 125.447 110.903C125.26 110.375 124.97 109.951 124.578 109.631C124.186 109.312 123.691 109.152 123.095 109.152C122.494 109.152 121.995 109.312 121.599 109.631C121.207 109.951 120.915 110.375 120.723 110.903C120.536 111.428 120.442 112.003 120.442 112.629C120.442 113.26 120.536 113.837 120.723 114.362C120.915 114.886 121.207 115.305 121.599 115.621C121.995 115.936 122.494 116.094 123.095 116.094ZM129.798 117.5V107.682H131.646V109.241H131.748C131.927 108.713 132.242 108.298 132.694 107.995C133.15 107.688 133.666 107.535 134.241 107.535C134.36 107.535 134.501 107.539 134.663 107.548C134.829 107.556 134.959 107.567 135.053 107.58V109.408C134.976 109.386 134.84 109.363 134.644 109.337C134.448 109.308 134.252 109.293 134.056 109.293C133.604 109.293 133.201 109.388 132.847 109.58C132.498 109.768 132.221 110.03 132.017 110.366C131.812 110.699 131.71 111.078 131.71 111.504V117.5H129.798ZM141.87 107.682V109.216H136.507V107.682H141.87ZM137.945 105.33H139.856V114.617C139.856 114.988 139.912 115.267 140.023 115.455C140.133 115.638 140.276 115.763 140.451 115.832C140.63 115.896 140.824 115.928 141.032 115.928C141.186 115.928 141.32 115.917 141.435 115.896C141.55 115.874 141.64 115.857 141.704 115.844L142.049 117.423C141.938 117.466 141.78 117.509 141.576 117.551C141.371 117.598 141.116 117.624 140.809 117.628C140.306 117.636 139.837 117.547 139.403 117.359C138.968 117.172 138.616 116.882 138.348 116.49C138.079 116.098 137.945 115.606 137.945 115.013V105.33ZM146.119 104.409V105.636C146.119 105.999 146.051 106.38 145.914 106.781C145.782 107.177 145.595 107.558 145.352 107.925C145.109 108.291 144.824 108.607 144.495 108.871L143.549 108.193C143.801 107.827 144.018 107.437 144.201 107.023C144.389 106.61 144.483 106.154 144.483 105.656V104.409H146.119ZM149.373 104.409V105.636C149.373 105.999 149.304 106.38 149.168 106.781C149.036 107.177 148.848 107.558 148.605 107.925C148.363 108.291 148.077 108.607 147.749 108.871L146.803 108.193C147.054 107.827 147.272 107.437 147.455 107.023C147.642 106.61 147.736 106.154 147.736 105.656V104.409H149.373Z" fill="black"/>
</svg>
